<?xml version="1.0" encoding="utf-8"?>
<!-- Generator: Adobe Illustrator 27.8.0, SVG Export Plug-In . SVG Version: 6.00 Build 0)  -->
<svg version="1.1" id="Layer_1" xmlns="http://www.w3.org/2000/svg" xmlns:xlink="http://www.w3.org/1999/xlink" x="0px" y="0px"
	 viewBox="0 0 70.89 69.23" style="enable-background:new 0 0 70.89 69.23;" xml:space="preserve">
<style type="text/css">
	.st0{fill:#7F5F51;}
	.st1{fill:none;stroke:#7F5F51;stroke-width:3;stroke-miterlimit:10;}
</style>
<g>
	<path class="st0" d="M32.88,14.07c0.18,0.23,0.46,0.43,0.54,0.69c0.14,0.52-0.27,0.92-0.89,0.97c-0.77,0.06-1.55,0.07-2.31,0.18
		C23.83,16.83,18.46,21.57,17,27.88c-0.26,1.11-0.31,2.27-0.42,3.41c-0.06,0.54-0.23,0.87-0.61,0.98c-0.56,0.16-1.06-0.24-1.06-0.86
		c-0.01-2.09,0.35-4.13,1.14-6.06c2.29-5.62,6.41-9.17,12.25-10.74c0.88-0.24,1.81-0.31,2.72-0.46c0.12-0.02,0.23-0.05,0.35-0.08
		H32.88z"/>
	<path class="st0" d="M39.86,14.07c0.67,0.11,1.34,0.19,2.01,0.32c3.86,0.76,7.08,2.65,9.68,5.58c2.33,2.63,3.72,5.71,4.26,9.17
		c0.07,0.46,0.12,0.92,0.18,1.39v1.52c-0.23,0.18-0.43,0.46-0.69,0.54c-0.54,0.15-0.92-0.27-0.97-0.92
		c-0.07-0.92-0.11-1.84-0.26-2.74c-0.96-6.12-5.84-11.37-11.87-12.74c-1.12-0.26-2.29-0.31-3.45-0.43c-0.68-0.07-1.1-0.42-0.96-0.98
		c0.07-0.26,0.35-0.46,0.54-0.69H39.86z"/>
	<path class="st0" d="M55.99,39.03c-0.1,0.65-0.19,1.31-0.32,1.96c-0.69,3.6-2.39,6.66-5.02,9.2c-2.73,2.63-5.99,4.2-9.72,4.78
		c-0.84,0.13-1.7,0.15-2.56,0.19c-0.55,0.03-0.9-0.29-0.92-0.78c-0.02-0.49,0.3-0.83,0.85-0.87c0.77-0.07,1.55-0.07,2.32-0.18
		c3.8-0.54,7.02-2.25,9.61-5.07c2.21-2.4,3.54-5.25,3.97-8.49c0.09-0.63,0.08-1.28,0.12-1.92c0.04-0.64,0.47-1.04,1.01-0.88
		c0.25,0.08,0.43,0.35,0.65,0.54V39.03z"/>
	<path class="st0" d="M35.68,14.07c0.46,0.22,0.6,0.58,0.59,1.08c-0.02,1.52-0.01,3.05-0.01,4.57v0.49
		c0.17-0.15,0.28-0.23,0.38-0.33c0.69-0.63,1.38-1.27,2.07-1.9c0.42-0.38,0.91-0.4,1.25-0.05c0.33,0.35,0.3,0.86-0.1,1.24
		c-1.25,1.16-2.51,2.32-3.77,3.48c-0.44,0.4-0.84,0.4-1.28,0c-1.26-1.15-2.52-2.31-3.77-3.48c-0.41-0.38-0.44-0.89-0.11-1.24
		c0.33-0.35,0.83-0.33,1.25,0.05c0.79,0.72,1.57,1.44,2.45,2.25v-0.51c0-1.52,0.01-3.05-0.01-4.57c-0.01-0.49,0.13-0.86,0.59-1.08
		H35.68z"/>
	<path class="st0" d="M55.99,34.86c-0.22,0.46-0.59,0.6-1.08,0.59c-1.51-0.02-3.02-0.01-4.53-0.01h-0.53
		c0.16,0.18,0.25,0.29,0.35,0.39c0.63,0.69,1.27,1.38,1.9,2.07c0.38,0.42,0.38,0.92,0.02,1.25c-0.35,0.32-0.86,0.28-1.24-0.13
		c-1.15-1.25-2.3-2.49-3.45-3.75c-0.41-0.45-0.41-0.85,0-1.31c1.15-1.25,2.3-2.5,3.45-3.75c0.38-0.41,0.89-0.45,1.24-0.13
		c0.36,0.33,0.35,0.83-0.02,1.25c-0.64,0.7-1.29,1.4-1.93,2.1c-0.08,0.09-0.16,0.19-0.3,0.36h0.52c1.51,0,3.02,0.01,4.53-0.01
		c0.49-0.01,0.86,0.13,1.08,0.59V34.86z"/>
	<path class="st0" d="M38.37,37.29c2.6-2.29,2.08-5.5,0.41-7.14c-1.84-1.8-4.67-1.83-6.59-0.07c-1.58,1.44-2.45,4.74,0.32,7.21
		c-1.3,0.65-2.3,1.59-3.01,2.85c-2.46-2.33-3.34-7.16-0.36-10.73c3.08-3.7,8.52-4.01,11.96-0.7c3.45,3.32,3.18,8.51,0.3,11.45
		C40.69,38.91,39.7,37.94,38.37,37.29"/>
	<path class="st0" d="M31.8,55.16c-4.31-0.17-8.07-1.7-11.22-4.63c-3.04-2.83-4.85-6.33-5.49-10.43c-0.13-0.84-0.15-1.7-0.18-2.55
		c-0.02-0.55,0.3-0.9,0.78-0.92c0.49-0.01,0.82,0.31,0.87,0.85c0.06,0.79,0.07,1.58,0.18,2.36c0.57,3.83,2.29,7.05,5.16,9.65
		c2.38,2.16,5.18,3.45,8.37,3.88c0.57,0.08,1.14,0.08,1.72,0.12c0.2,0.01,0.4,0.02,0.59,0.08c0.37,0.11,0.58,0.47,0.54,0.88
		c-0.04,0.36-0.34,0.67-0.71,0.7C32.21,55.17,32.01,55.16,31.8,55.16"/>
	<path class="st0" d="M35.49,30.42c1.73,0.04,3.1,1.45,3.07,3.15c-0.04,1.74-1.46,3.09-3.24,3.05c-1.64-0.03-3.02-1.49-2.99-3.15
		C32.36,31.76,33.8,30.38,35.49,30.42"/>
	<path class="st0" d="M30.78,41.3c0.66-1.77,2.7-3.07,4.71-3.05c2.02,0.03,4.02,1.35,4.61,3.03C37.68,43.19,33.63,43.41,30.78,41.3"
		/>
	<path class="st0" d="M21.04,35.44h-1.02c-1.43,0-2.86,0-4.29-0.01c-0.45,0-0.76-0.28-0.82-0.67c-0.06-0.39,0.15-0.79,0.51-0.9
		c0.19-0.06,0.4-0.06,0.59-0.06c1.5-0.01,2.99,0,4.49,0h0.52c-0.13-0.16-0.2-0.26-0.28-0.35c-0.66-0.72-1.32-1.44-1.98-2.16
		c-0.27-0.3-0.34-0.64-0.14-0.99c0.18-0.33,0.48-0.48,0.84-0.4c0.18,0.04,0.38,0.15,0.51,0.28c1.2,1.28,2.38,2.57,3.56,3.86
		c0.34,0.37,0.34,0.79,0.01,1.15c-1.19,1.31-2.38,2.6-3.58,3.89c-0.34,0.36-0.85,0.37-1.18,0.05c-0.33-0.32-0.35-0.81-0.01-1.18
		c0.64-0.71,1.28-1.4,1.93-2.1C20.78,35.75,20.87,35.64,21.04,35.44"/>
	<path class="st0" d="M36.27,49.01v4.8c0,0.2,0.01,0.4-0.01,0.6c-0.04,0.44-0.36,0.74-0.79,0.74c-0.45,0.01-0.81-0.3-0.82-0.76
		c-0.02-0.95-0.01-1.9-0.02-2.85c0-0.81,0-1.62,0-2.54c-0.18,0.15-0.29,0.24-0.39,0.33c-0.69,0.63-1.38,1.27-2.07,1.9
		c-0.42,0.38-0.91,0.39-1.25,0.04c-0.33-0.35-0.29-0.86,0.11-1.24c1.25-1.16,2.51-2.32,3.78-3.48c0.42-0.39,0.83-0.39,1.25-0.02
		c1.27,1.16,2.54,2.33,3.81,3.5c0.39,0.36,0.43,0.86,0.12,1.21c-0.33,0.36-0.84,0.36-1.24-0.01c-0.68-0.62-1.36-1.25-2.04-1.87
		C36.59,49.29,36.47,49.19,36.27,49.01"/>
	<path class="st1" d="M49.59,63.93H21.3c-8.37,0-15.16-6.79-15.16-15.16v-28.3c0-8.37,6.79-15.16,15.16-15.16h28.3
		c8.37,0,15.16,6.79,15.16,15.16v28.3C64.75,57.14,57.96,63.93,49.59,63.93z"/>
</g>
</svg>
