<?xml version="1.0" encoding="utf-8"?>
<!-- Generator: Adobe Illustrator 27.8.0, SVG Export Plug-In . SVG Version: 6.00 Build 0)  -->
<svg version="1.1" id="Layer_1" xmlns="http://www.w3.org/2000/svg" xmlns:xlink="http://www.w3.org/1999/xlink" x="0px" y="0px"
	 viewBox="0 0 70.89 69.23" style="enable-background:new 0 0 70.89 69.23;" xml:space="preserve">
<style type="text/css">
	.st0{fill:#7F5F51;}
	.st1{fill:none;stroke:#7F5F51;stroke-width:3;stroke-miterlimit:10;}
</style>
<g>
	<path class="st0" d="M34.49,14.31h1.9c0.24,0.05,0.48,0.11,0.73,0.15c5.27,0.94,8.62,6.41,7.07,11.55c-0.53,1.76-1.5,3.22-2.89,4.4
		c-0.79,0.67-1.22,1.49-1.19,2.55c0.03,1,0.01,2.01,0,3.01c-0.01,0.3-0.04,0.61-0.12,0.9c-0.06,0.23-0.01,0.36,0.16,0.5
		c0.84,0.74,1.26,1.67,1.24,2.8c-0.01,0.95,0,1.9,0,2.85c0,0.32,0.11,0.59,0.44,0.6c0.73,0.03,1.46,0.01,2.21,0.01
		c-1.01-2.82-0.51-4.91,1.49-6.3c1.72-1.19,4.11-1.09,5.71,0.24c0.85,0.71,1.41,1.6,1.64,2.68c0.29,1.37,0,2.64-0.79,3.79
		c0.03,0.03,0.04,0.05,0.05,0.05c0.12,0.06,0.23,0.12,0.35,0.18c1.32,0.68,2.27,1.71,2.83,3.08c0.2,0.48,0.29,1.01,0.43,1.51v5.15
		c-0.3,0.68-0.83,0.89-1.55,0.88c-4.06-0.02-8.11-0.01-12.17-0.01c-0.88,0-1.34-0.46-1.34-1.34c0-0.95,0-1.9,0-2.84
		c-2.98-0.96-2.98-0.96-5.26-3.43c-0.6,0.9-1.35,1.66-2.25,2.25c-0.9,0.59-1.9,0.95-2.96,1.15c0,0.99,0,1.94,0,2.89
		c0,0.83-0.47,1.3-1.3,1.31c-4.16,0-8.32,0-12.49,0c-0.8,0-1.28-0.48-1.28-1.28c0-1.38-0.01-2.75,0-4.12
		c0.02-1.75,0.7-3.21,2.01-4.35c0.49-0.43,1.07-0.75,1.61-1.12c-1.55-2.39-0.78-4.85,0.59-6.17c1.55-1.5,3.88-1.79,5.7-0.72
		c0.93,0.55,1.62,1.32,2.02,2.31c0.58,1.41,0.46,2.81-0.26,4.19c0.7,0,1.35,0,1.99,0c0.52,0,0.68-0.16,0.68-0.69
		c0-0.98,0-1.96,0-2.93c0-0.82,0.23-1.6,0.8-2.18c0.46-0.47,0.77-0.88,0.48-1.55c-0.05-0.11-0.01-0.26-0.01-0.39
		c0-1.03,0-2.06,0-3.09c0-0.2-0.01-0.4-0.05-0.59c-0.14-0.8-0.62-1.37-1.22-1.89c-1.89-1.63-2.95-3.7-3.16-6.18
		c-0.37-4.27,2.39-8.27,6.5-9.47C33.39,14.54,33.94,14.44,34.49,14.31 M34.23,31.75c0.01-0.08,0.02-0.13,0.02-0.18
		c0-1.94,0.01-3.89-0.01-5.83c0-0.14-0.09-0.3-0.18-0.4c-0.59-0.61-1.19-1.2-1.79-1.8c-0.36-0.36-0.5-0.78-0.34-1.27
		c0.29-0.9,1.33-1.11,2.04-0.42c0.49,0.48,0.96,0.97,1.47,1.48c0.51-0.51,0.96-0.99,1.43-1.45c0.56-0.56,1.3-0.59,1.79-0.1
		c0.49,0.5,0.45,1.23-0.11,1.8c-0.56,0.56-1.13,1.11-1.67,1.69c-0.14,0.14-0.24,0.38-0.25,0.57c-0.02,1.84-0.01,3.67-0.01,5.51v0.38
		h1.16c0.11-0.33,0.2-0.64,0.32-0.95c0.37-0.95,1.04-1.66,1.79-2.33c1.82-1.65,2.58-3.72,2.18-6.14c-0.64-3.83-4.23-6.24-8.05-5.48
		c-3.46,0.69-5.89,4.27-5.23,7.72c0.3,1.57,1.03,2.9,2.25,3.95c0.87,0.75,1.55,1.61,1.89,2.73c0.05,0.17,0.1,0.34,0.15,0.51H34.23z
		 M34.33,38.89c-0.46,0-0.79,0-1.12,0c-0.83,0.01-1.33,0.5-1.33,1.33c-0.01,0.87-0.05,1.75,0.01,2.61c0.13,1.89-1.36,3.27-3.18,3.21
		c-2.51-0.08-5.02-0.03-7.53-0.02c-1.76,0.01-3.3,1.16-3.54,2.81c-0.18,1.2-0.11,2.44-0.15,3.67h10.35V49.8
		c0-0.93,0.41-1.36,1.33-1.39c2.41-0.09,4.54-1.73,4.91-4.11C34.35,42.54,34.25,40.73,34.33,38.89 M36.64,38.9
		c0,1.55-0.05,3.04,0.01,4.53c0.12,2.74,2.33,4.87,5.06,4.98c0.94,0.04,1.35,0.46,1.35,1.41c0,0.89,0,1.79,0,2.69h10.3
		c0-1.08,0-2.13-0.01-3.19c0-0.19-0.05-0.39-0.1-0.58c-0.42-1.64-1.81-2.7-3.55-2.71c-2.59-0.01-5.18,0-7.77,0
		c-1.67,0-2.91-1.23-2.91-2.89c0-0.99,0.01-1.98,0-2.97c-0.01-0.68-0.43-1.19-1.08-1.25C37.52,38.87,37.1,38.9,36.64,38.9
		 M22.68,38.89c-1.29-0.01-2.37,1.07-2.39,2.36c-0.01,1.28,1.06,2.38,2.35,2.4c1.29,0.02,2.41-1.08,2.4-2.38
		C25.05,39.98,23.97,38.9,22.68,38.89 M48.22,38.89c-1.29-0.01-2.37,1.07-2.39,2.36c-0.01,1.28,1.06,2.38,2.35,2.4
		c1.3,0.02,2.41-1.08,2.4-2.38C50.59,39.98,49.51,38.9,48.22,38.89 M33.17,34.15c0,0.67-0.01,1.3,0,1.93c0,0.26,0.16,0.42,0.42,0.42
		c1.23,0.01,2.45,0.02,3.68-0.01c0.15,0,0.41-0.23,0.42-0.36c0.04-0.65,0.02-1.31,0.02-1.98H33.17z"/>
	<path class="st0" d="M25.06,41.27c0,1.3-1.11,2.4-2.4,2.38c-1.29-0.02-2.36-1.11-2.35-2.4"/>
	<path class="st0" d="M33.17,34.15h4.54c0,0.67,0.02,1.33-0.02,1.98c-0.01,0.14-0.27,0.36-0.42,0.36c-1.23,0.03-2.45,0.02-3.68,0.01
		c-0.27,0-0.42-0.17-0.42-0.42C33.16,35.46,33.17,34.82,33.17,34.15"/>
	<path class="st0" d="M24.74,28.58c0,0.43-0.17,0.78-0.53,1c-0.71,0.43-1.43,0.85-2.16,1.24c-0.6,0.32-1.29,0.1-1.6-0.47
		c-0.32-0.58-0.13-1.25,0.46-1.61c0.68-0.41,1.36-0.81,2.05-1.18C23.78,27.11,24.73,27.66,24.74,28.58"/>
	<path class="st0" d="M24.74,18.28c0,0.88-0.92,1.47-1.71,1.06c-0.75-0.39-1.47-0.82-2.19-1.26c-0.54-0.33-0.69-1.02-0.39-1.57
		c0.29-0.54,0.97-0.8,1.53-0.51c0.78,0.41,1.54,0.86,2.29,1.32C24.6,17.53,24.73,17.88,24.74,18.28"/>
	<path class="st0" d="M21.55,24.62c-0.39,0-0.79,0.01-1.19,0c-0.67-0.01-1.17-0.52-1.18-1.18c0-0.66,0.5-1.18,1.17-1.19
		c0.8-0.01,1.61-0.01,2.41,0c0.67,0.01,1.17,0.52,1.18,1.18c0,0.66-0.5,1.17-1.17,1.19C22.37,24.62,21.96,24.62,21.55,24.62"/>
	<path class="st0" d="M50.59,17.28c-0.01,0.24-0.18,0.59-0.55,0.81c-0.71,0.43-1.43,0.85-2.16,1.24c-0.58,0.31-1.26,0.09-1.58-0.46
		c-0.33-0.57-0.16-1.27,0.42-1.62c0.69-0.42,1.38-0.82,2.09-1.2C49.65,15.61,50.59,16.18,50.59,17.28"/>
	<path class="st0" d="M50.59,29.77c0,0.87-0.89,1.47-1.67,1.08c-0.78-0.39-1.52-0.84-2.26-1.3c-0.53-0.33-0.66-1.04-0.35-1.58
		c0.3-0.52,0.97-0.76,1.51-0.48c0.78,0.41,1.54,0.86,2.29,1.32C50.44,29.03,50.59,29.38,50.59,29.77"/>
	<path class="st0" d="M49.3,24.62c-0.39,0-0.79,0.01-1.19,0c-0.67-0.01-1.17-0.53-1.17-1.19c0-0.66,0.5-1.17,1.17-1.18
		c0.8-0.01,1.61-0.01,2.41,0c0.67,0.01,1.17,0.53,1.17,1.19c0,0.66-0.5,1.17-1.17,1.18C50.12,24.62,49.71,24.62,49.3,24.62"/>
	<path class="st1" d="M49.59,63.93H21.3c-8.37,0-15.16-6.79-15.16-15.16v-28.3c0-8.37,6.79-15.16,15.16-15.16h28.3
		c8.37,0,15.16,6.79,15.16,15.16v28.3C64.75,57.14,57.96,63.93,49.59,63.93z"/>
</g>
</svg>
