<?xml version="1.0" encoding="utf-8"?>
<!-- Generator: Adobe Illustrator 27.8.0, SVG Export Plug-In . SVG Version: 6.00 Build 0)  -->
<svg version="1.1" id="Layer_1" xmlns="http://www.w3.org/2000/svg" xmlns:xlink="http://www.w3.org/1999/xlink" x="0px" y="0px"
	 viewBox="0 0 70.89 69.23" style="enable-background:new 0 0 70.89 69.23;" xml:space="preserve">
<style type="text/css">
	.st0{fill:#7F5F51;}
	.st1{fill:none;stroke:#7F5F51;stroke-width:3;stroke-miterlimit:10;}
</style>
<g>
	<path class="st0" d="M36.42,51.54c-0.81,0.29-1.54,0.17-2.27-0.04c-1.51-0.44-2.84-1.26-4.02-2.27c-2.07-1.76-4.07-3.6-6.1-5.41
		c-0.7-0.63-1.39-1.28-2.06-1.94c-0.1-0.09-0.16-0.33-0.11-0.45c1.04-2.76,2.09-5.52,3.16-8.27c0.05-0.14,0.19-0.3,0.32-0.33
		c2.32-0.62,4.66-1.18,7.09-1.23c0.49-0.01,0.98,0.05,1.47,0.11c0.21,0.03,0.41,0.14,0.64,0.22c-0.73,0.61-1.43,1.16-2.07,1.76
		c-0.87,0.81-1.71,1.67-1.95,2.89c-0.1,0.5-0.12,1.05-0.01,1.54c0.29,1.28,1.54,2,2.93,1.64c0.86-0.22,1.67-0.64,2.49-1
		c0.29-0.13,0.56-0.32,0.82-0.51c0.74-0.54,1.48-0.53,2.18,0.02c0.94,0.74,1.9,1.47,2.76,2.29c1.46,1.39,2.86,2.84,4.27,4.27
		c0.5,0.51,0.51,1.14,0.33,1.77c-0.19,0.65-0.63,1.06-1.3,1.19c-0.13,0.03-0.32-0.07-0.43-0.16c-1.53-1.33-3.06-2.66-4.59-4
		c-0.13-0.11-0.25-0.23-0.38-0.33c-0.32-0.26-0.62-0.28-0.81-0.03c-0.26,0.32-0.09,0.57,0.17,0.79c0.81,0.7,1.61,1.41,2.42,2.11
		c0.82,0.71,1.63,1.44,2.45,2.14c0.22,0.18,0.22,0.33,0.1,0.57c-0.59,1.09-1.98,1.34-2.96,0.53c-1.67-1.38-3.35-2.76-5.02-4.14
		c-0.11-0.09-0.21-0.18-0.33-0.27c-0.25-0.18-0.51-0.19-0.71,0.06c-0.21,0.25-0.15,0.51,0.08,0.71c0.47,0.4,0.95,0.79,1.43,1.19
		c1.26,1.04,2.52,2.08,3.78,3.11c-0.6,1.48-1.97,1.68-2.91,0.89C35.66,49.59,34,48.31,32.36,47c-0.1-0.08-0.2-0.16-0.3-0.23
		c-0.27-0.19-0.53-0.21-0.74,0.06c-0.21,0.26-0.12,0.51,0.12,0.7c0.65,0.53,1.3,1.04,1.94,1.56c0.92,0.74,1.85,1.48,2.77,2.22
		C36.23,51.37,36.29,51.43,36.42,51.54"/>
	<path class="st0" d="M46.53,44.04c-0.17-0.2-0.32-0.39-0.48-0.56c-1.87-1.93-3.71-3.9-5.85-5.54c-0.56-0.43-1.2-0.78-1.85-1.08
		c-0.57-0.27-1.13-0.05-1.64,0.25c-0.73,0.42-1.44,0.88-2.2,1.26c-0.44,0.22-0.95,0.37-1.44,0.43c-1.2,0.13-1.96-0.84-1.63-2.01
		c0.21-0.74,0.67-1.33,1.19-1.87c1.1-1.17,2.39-2.1,3.73-2.96c0.58-0.37,1.26-0.42,1.92-0.39c2.49,0.09,4.9,0.6,7.29,1.27
		c0.12,0.03,0.25,0.18,0.3,0.3c1.07,2.76,2.12,5.53,3.17,8.3c0.04,0.1,0.03,0.3-0.04,0.36C48.2,42.54,47.39,43.26,46.53,44.04"/>
	<path class="st0" d="M24.38,31.87c-0.03,0.09-0.06,0.27-0.13,0.44c-1.18,3.1-2.36,6.2-3.54,9.3c-0.28,0.73-0.69,0.91-1.42,0.64
		c-1.31-0.5-2.63-1-3.94-1.51c-0.67-0.26-0.86-0.67-0.61-1.33c1.2-3.14,2.4-6.28,3.6-9.41c0.26-0.67,0.66-0.85,1.33-0.6
		c1.34,0.51,2.68,1.02,4.02,1.53C24.1,31.08,24.37,31.32,24.38,31.87"/>
	<path class="st0" d="M46.5,31.87c0.01-0.47,0.2-0.74,0.57-0.88c1.42-0.55,2.83-1.1,4.25-1.63c0.54-0.2,0.98,0.01,1.19,0.55
		c1.22,3.19,2.44,6.38,3.65,9.57c0.22,0.58,0.03,1.01-0.54,1.23c-1.39,0.54-2.78,1.07-4.17,1.59c-0.57,0.21-0.99,0.01-1.22-0.57
		c-1.22-3.17-2.43-6.35-3.64-9.53C46.54,32.08,46.52,31.94,46.5,31.87"/>
	<path class="st0" d="M17.8,24.89c0-1.27-0.07-2.54,0.02-3.8c0.08-1.15,0.76-2.01,1.69-2.65c0.3-0.21,0.63-0.37,0.95-0.54
		c0.65-0.36,1.16-0.44,1.85,0.14c1.37,1.15,3.27,0.96,4.62-0.29c0.25-0.23,0.44-0.26,0.74-0.15c1.15,0.41,1.15,0.4,1.15,1.6
		c0,1.45-0.01,2.9,0,4.35c0,0.43,0.05,0.87,0.08,1.33H17.8z"/>
	<path class="st0" d="M42.05,24.89c0-2.16-0.01-4.31,0.01-6.46c0-0.15,0.16-0.31,0.27-0.45c0.05-0.06,0.15-0.07,0.22-0.11
		c0.61-0.33,1.09-0.41,1.74,0.14c1.42,1.19,3.32,1,4.72-0.3c0.19-0.18,0.36-0.24,0.59-0.13c0.58,0.28,1.2,0.51,1.73,0.86
		c1.19,0.78,1.8,1.89,1.77,3.34c-0.02,1.03,0,2.05,0,3.11H42.05z"/>
	<path class="st0" d="M29.82,20.74c0-1.03,0.01-2.06-0.01-3.09c0-0.25,0.08-0.38,0.3-0.49c3.57-1.72,7.13-1.72,10.68,0.02
		c0.12,0.06,0.27,0.24,0.27,0.36c0.01,2.17,0.03,4.34-0.04,6.51c-0.04,1.3-0.82,2.25-1.8,3.02c-1.05,0.83-2.27,1.35-3.54,1.72
		c-0.14,0.04-0.31,0.05-0.45,0.01c-1.47-0.44-2.85-1.04-4-2.1c-0.93-0.86-1.43-1.9-1.42-3.18C29.82,22.6,29.82,21.67,29.82,20.74
		 M30.87,17.95c0,1.85,0.02,3.65-0.01,5.45c-0.02,1.12,0.43,1.98,1.26,2.69c0.91,0.78,2,1.24,3.13,1.62
		c0.11,0.04,0.26,0.04,0.37,0.01c1.19-0.38,2.32-0.87,3.26-1.72c0.64-0.57,1.11-1.27,1.12-2.15c0.03-1.89,0.01-3.78,0-5.66
		c0-0.11-0.12-0.28-0.22-0.33C36.81,16.61,33.85,16.64,30.87,17.95"/>
	<path class="st0" d="M49.83,13.57c-0.08,1.35-0.54,2.56-1.59,3.49c-1.03,0.91-2.37,0.99-3.43,0.11c-1.39-1.15-1.94-2.68-1.64-4.45
		c0.25-1.42,1.59-2.38,3.2-2.42c1.73-0.04,3.09,1,3.39,2.61C49.81,13.12,49.81,13.34,49.83,13.57"/>
	<path class="st0" d="M24.44,10.31c2.3,0.01,3.75,1.81,3.27,4.07c-0.24,1.1-0.71,2.07-1.62,2.79c-1,0.79-2.18,0.85-3.19,0.08
		c-1.42-1.08-2-2.58-1.77-4.31C21.33,11.33,22.72,10.31,24.44,10.31"/>
	<path class="st0" d="M39,21.36c0-0.8-0.01-1.61,0.01-2.41c0-0.24-0.06-0.37-0.31-0.46c-2.17-0.74-4.33-0.74-6.5,0
		c-0.24,0.08-0.32,0.19-0.32,0.45c0.01,1.49,0.03,2.99,0,4.48c-0.02,0.77,0.28,1.36,0.83,1.85c0.75,0.67,1.65,1.06,2.59,1.39
		c0.09,0.03,0.2,0.04,0.29,0.01c1.02-0.37,2.02-0.79,2.8-1.6c0.41-0.42,0.64-0.91,0.62-1.52C38.99,22.83,39,22.09,39,21.36"/>
	<path class="st0" d="M39,21.36c0,0.73-0.01,1.47,0,2.2c0.01,0.6-0.22,1.09-0.62,1.52c-0.78,0.8-1.77,1.22-2.8,1.6
		c-0.08,0.03-0.2,0.02-0.29-0.01c-0.93-0.33-1.83-0.72-2.59-1.39c-0.56-0.49-0.85-1.08-0.83-1.85c0.03-1.49,0.02-2.99,0-4.48
		c0-0.26,0.08-0.37,0.32-0.45c2.17-0.74,4.33-0.74,6.5,0c0.25,0.08,0.31,0.21,0.31,0.46C38.99,19.75,39,20.56,39,21.36 M34.69,22.64
		c-0.22-0.38-0.41-0.71-0.6-1.04c-0.16-0.27-0.42-0.35-0.69-0.21c-0.28,0.15-0.33,0.42-0.18,0.69c0.3,0.54,0.6,1.08,0.93,1.6
		c0.18,0.29,0.52,0.36,0.76,0.13c0.92-0.89,1.82-1.8,2.72-2.71c0.2-0.21,0.18-0.47-0.03-0.68c-0.2-0.19-0.43-0.2-0.65-0.02
		c-0.11,0.09-0.21,0.19-0.3,0.29C36,21.32,35.36,21.96,34.69,22.64"/>
	<path class="st1" d="M49.59,63.93H21.3c-8.37,0-15.16-6.79-15.16-15.16v-28.3c0-8.37,6.79-15.16,15.16-15.16h28.3
		c8.37,0,15.16,6.79,15.16,15.16v28.3C64.75,57.14,57.96,63.93,49.59,63.93z"/>
</g>
</svg>
