<?xml version="1.0" encoding="utf-8"?>
<!-- Generator: Adobe Illustrator 27.8.0, SVG Export Plug-In . SVG Version: 6.00 Build 0)  -->
<svg version="1.1" id="Layer_1" xmlns="http://www.w3.org/2000/svg" xmlns:xlink="http://www.w3.org/1999/xlink" x="0px" y="0px"
	 viewBox="0 0 70.89 69.23" style="enable-background:new 0 0 70.89 69.23;" xml:space="preserve">
<style type="text/css">
	.st0{fill:#7F5F51;}
	.st1{fill:none;stroke:#7F5F51;stroke-width:3;stroke-miterlimit:10;}
</style>
<g>
	<path class="st0" d="M31.58,46.71h-0.41c-2.99,0-5.98,0-8.97,0.01c-0.25,0-0.39-0.08-0.54-0.29c-0.5-0.73-1.02-1.45-1.56-2.15
		c-1.6-2.06-2.47-4.42-2.94-6.96c-0.64-3.5-0.7-7.03-0.57-10.57c0.02-0.66,0.31-1.18,0.93-1.44c0.63-0.27,1.21-0.16,1.75,0.26
		c0.37,0.29,0.53,0.69,0.58,1.15c0.26,2.24,0.5,4.48,0.8,6.71c0.31,2.33,0.99,4.54,2.26,6.55c0.2,0.33,0.48,0.47,0.75,0.32
		c0.29-0.16,0.31-0.42,0.21-0.72c-0.48-1.43-0.96-2.85-1.42-4.28c-0.38-1.18,0.27-2.31,1.47-2.59c0.92-0.22,1.84,0.3,2.21,1.23
		c0.87,2.2,1.7,4.42,2.65,6.58c0.65,1.46,1.47,2.85,2.26,4.25C31.37,45.36,31.61,45.96,31.58,46.71"/>
	<path class="st0" d="M39.22,46.63c0.15-0.5,0.2-1.07,0.47-1.49c2.22-3.49,3.63-7.34,5.07-11.17c0.49-1.31,2.1-1.74,3.11-0.82
		c0.66,0.6,0.85,1.35,0.56,2.21c-0.48,1.43-0.95,2.85-1.42,4.28c-0.15,0.45,0.14,0.79,0.58,0.68c0.14-0.04,0.29-0.19,0.37-0.33
		c1.14-1.83,1.88-3.81,2.17-5.94c0.33-2.43,0.63-4.87,0.91-7.31c0.11-0.93,0.71-1.57,1.62-1.57c0.93,0,1.63,0.64,1.65,1.58
		c0.04,1.94,0.05,3.88,0.03,5.82c-0.01,1.67-0.19,3.34-0.54,4.98c-0.34,1.57-1,3.02-1.83,4.39c-0.93,1.52-1.83,3.06-2.76,4.59
		c-0.05,0.09-0.19,0.18-0.28,0.18c-3.18,0.01-6.36,0-9.54,0c-0.01,0-0.02-0.01-0.03-0.02C39.3,46.66,39.26,46.65,39.22,46.63"/>
	<path class="st0" d="M35.48,33.68c-1.35,0.99-2.68,1.96-4.01,2.92c-0.57,0.41-1.14,0.4-1.59-0.01c-0.38-0.35-0.44-0.76-0.27-1.24
		c0.52-1.42,1.02-2.86,1.54-4.28c0.11-0.29,0.09-0.45-0.19-0.65c-1.25-0.87-2.47-1.77-3.71-2.65c-0.34-0.24-0.58-0.52-0.6-0.96
		c-0.04-0.77,0.38-1.23,1.15-1.23c1.56-0.01,3.12,0,4.67,0h0.45c0.27-0.84,0.53-1.68,0.8-2.52c0.23-0.75,0.46-1.5,0.7-2.24
		c0.18-0.59,0.54-0.88,1.09-0.88c0.54-0.01,0.92,0.27,1.12,0.85c0.49,1.47,0.97,2.95,1.44,4.43c0.09,0.27,0.21,0.37,0.51,0.36
		c1.52-0.03,3.04-0.04,4.56-0.06c0.83-0.01,1.36,0.51,1.32,1.27c-0.02,0.43-0.29,0.68-0.6,0.91c-1.26,0.9-2.5,1.81-3.77,2.7
		c-0.22,0.16-0.27,0.29-0.19,0.55c0.49,1.46,0.96,2.93,1.44,4.4c0.2,0.63,0.1,1.05-0.32,1.36c-0.44,0.32-0.91,0.3-1.43-0.08
		C38.22,35.65,36.87,34.68,35.48,33.68"/>
	<path class="st0" d="M43.85,52.33c-1.63,0-3.27,0-4.9,0c-0.61,0-0.82-0.21-0.82-0.82c0-0.95,0-1.9,0-2.85
		c0-0.54,0.22-0.78,0.75-0.78c3.29,0,6.59,0,9.88,0c0.56,0,0.82,0.27,0.82,0.82c0.01,0.95,0.01,1.9,0,2.85
		c0,0.55-0.24,0.78-0.79,0.78C47.15,52.33,45.5,52.33,43.85,52.33"/>
	<path class="st0" d="M27.07,47.88c1.62,0,3.24,0,4.87,0c0.67,0,0.83,0.16,0.83,0.82c0,0.94,0,1.88,0,2.81
		c0,0.6-0.22,0.82-0.83,0.82c-3.26,0-6.51,0-9.77,0c-0.6,0-0.8-0.2-0.8-0.8c-0.01-0.95-0.01-1.9,0-2.85c0-0.6,0.21-0.8,0.8-0.8
		C23.8,47.87,25.43,47.88,27.07,47.88"/>
	<path class="st0" d="M50.24,22.64c0.23,0.75,0.46,1.45,0.68,2.17c0.14,0.45,0.03,0.8-0.31,1.04c-0.33,0.23-0.64,0.22-1.05-0.07
		c-0.6-0.43-1.19-0.86-1.81-1.3c-0.59,0.42-1.18,0.84-1.76,1.26c-0.47,0.34-0.77,0.36-1.14,0.09c-0.33-0.24-0.41-0.57-0.25-1.09
		c0.19-0.6,0.37-1.21,0.57-1.8c0.08-0.22,0.03-0.34-0.16-0.47c-0.54-0.35-1.07-0.72-1.61-1.08c-0.43-0.29-0.57-0.61-0.45-1.02
		c0.12-0.38,0.47-0.62,0.94-0.62c0.65-0.01,1.29-0.01,1.94,0c0.25,0.01,0.36-0.08,0.42-0.32c0.17-0.6,0.36-1.18,0.55-1.77
		c0.15-0.48,0.48-0.75,0.89-0.75c0.4,0.01,0.71,0.27,0.86,0.73c0.2,0.6,0.4,1.2,0.57,1.81c0.07,0.22,0.17,0.3,0.4,0.3
		c0.63-0.01,1.27-0.01,1.9,0c0.51,0,0.87,0.23,0.99,0.61c0.13,0.41-0.02,0.74-0.47,1.06C51.38,21.81,50.82,22.22,50.24,22.64"/>
	<path class="st0" d="M23.26,24.48c-0.6,0.43-1.18,0.85-1.77,1.27c-0.42,0.3-0.8,0.32-1.16,0.06c-0.3-0.22-0.38-0.56-0.22-1.07
		c0.19-0.6,0.37-1.21,0.57-1.81c0.07-0.22,0.03-0.35-0.15-0.48c-0.55-0.39-1.09-0.78-1.63-1.18c-0.37-0.27-0.49-0.6-0.37-0.99
		c0.1-0.34,0.43-0.59,0.84-0.6c0.65-0.01,1.29-0.03,1.94,0c0.33,0.01,0.47-0.1,0.54-0.41c0.13-0.54,0.31-1.07,0.47-1.6
		c0.15-0.49,0.45-0.76,0.86-0.78c0.41-0.01,0.74,0.26,0.89,0.74c0.19,0.59,0.39,1.17,0.56,1.77c0.07,0.26,0.2,0.33,0.45,0.32
		c0.62-0.02,1.24-0.01,1.86,0c0.51,0,0.87,0.24,0.98,0.62c0.12,0.4-0.02,0.73-0.45,1.04c-0.56,0.41-1.13,0.81-1.74,1.25
		c0.22,0.68,0.45,1.37,0.65,2.07c0.06,0.21,0.11,0.46,0.05,0.66c-0.15,0.58-0.79,0.8-1.3,0.46C24.52,25.39,23.9,24.93,23.26,24.48"
		/>
	<path class="st1" d="M49.59,63.93H21.3c-8.37,0-15.16-6.79-15.16-15.16v-28.3c0-8.37,6.79-15.16,15.16-15.16h28.3
		c8.37,0,15.16,6.79,15.16,15.16v28.3C64.75,57.14,57.96,63.93,49.59,63.93z"/>
</g>
</svg>
