<?xml version="1.0" encoding="utf-8"?>
<!-- Generator: Adobe Illustrator 27.8.0, SVG Export Plug-In . SVG Version: 6.00 Build 0)  -->
<svg version="1.1" id="Layer_1" xmlns="http://www.w3.org/2000/svg" xmlns:xlink="http://www.w3.org/1999/xlink" x="0px" y="0px"
	 viewBox="0 0 70.89 69.23" style="enable-background:new 0 0 70.89 69.23;" xml:space="preserve">
<style type="text/css">
	.st0{fill:#7F5F51;}
	.st1{fill:none;stroke:#7F5F51;stroke-width:3;stroke-miterlimit:10;}
</style>
<g>
	<path class="st0" d="M23.93,14.14c0.48,1.86,0.96,3.73,1.44,5.62c-0.46,0.12-0.89,0.23-1.37,0.36c-0.48-1.88-0.96-3.74-1.44-5.6
		c0.39-0.13,0.76-0.25,1.13-0.38H23.93z"/>
	<path class="st0" d="M36.33,17.92c-0.07,0.06-0.14,0.11-0.21,0.17c-0.42,0.35-0.48,0.69-0.16,1.14c0.48,0.66,0.97,1.31,1.46,1.95
		c0.21,0.28,0.36,0.56,0.17,0.91c-0.2,0.37-0.54,0.4-0.9,0.35c-0.8-0.11-1.61-0.23-2.41-0.34c-0.56-0.08-0.85,0.12-0.93,0.66
		c-0.2,1.32-0.39,2.63-0.56,3.95c-0.08,0.6,0.15,0.86,0.75,0.94c0.79,0.11,1.58,0.22,2.37,0.33c0.35,0.05,0.65,0.18,0.75,0.56
		c0.1,0.38-0.1,0.64-0.38,0.85c-0.63,0.47-1.26,0.94-1.89,1.41c-0.55,0.42-0.6,0.74-0.2,1.28c0.76,1.03,1.53,2.05,2.3,3.07
		c0.38,0.5,0.72,0.54,1.22,0.17c0.64-0.48,1.28-0.95,1.92-1.44c0.29-0.22,0.58-0.34,0.92-0.14c0.33,0.19,0.38,0.5,0.33,0.83
		c-0.11,0.82-0.23,1.63-0.33,2.45c-0.08,0.62,0.1,0.86,0.72,0.95c1.28,0.19,2.55,0.37,3.83,0.55c0.17,0.02,0.34,0.02,0.54,0.03
		c-0.7,0.88-1.51,1.61-2.41,2.24c-0.66,0.46-1.31,0.91-1.74,1.62c-0.38,0.63-0.61,1.3-0.62,2.04c-0.01,0.88,0,1.76-0.01,2.64
		c-0.01,1.5-0.88,2.38-2.39,2.38c-1.71,0-3.41,0-5.12,0c-1.48,0-2.35-0.88-2.36-2.36c-0.01-0.93,0.02-1.87-0.02-2.8
		c-0.05-1.25-0.61-2.25-1.61-2.98c-1.07-0.78-2.13-1.55-2.99-2.57c-2.08-2.46-3.15-5.29-3.08-8.51c0.1-4.24,1.92-7.61,5.33-10.1
		C30.89,18.5,33.48,17.77,36.33,17.92 M36.61,43.81c-0.02-1.46-0.5-2.71-1.42-3.8c-0.71-0.85-1.66-1.35-2.65-1.8
		c-2.88-1.32-4.61-3.57-4.98-6.7c-0.39-3.28,0.83-5.94,3.5-7.92c0.11-0.08,0.22-0.17,0.35-0.27c-0.26-0.4-0.49-0.77-0.73-1.15
		c-0.13,0.08-0.24,0.14-0.33,0.21c-3.35,2.48-4.74,5.8-4.08,9.91c0.36,2.2,1.45,4.03,3.11,5.53c0.94,0.85,2.04,1.42,3.19,1.94
		c1.18,0.52,1.99,1.41,2.4,2.64c0.15,0.45,0.2,0.92,0.31,1.41H36.61z M35.26,47.33h1.35v-2.05h-1.35V47.33z"/>
	<path class="st0" d="M52.35,34.05c-0.76,0.57-1.49,1.12-2.25,1.69c-0.43-0.56-0.83-1.12-1.26-1.66c-0.83-1.02-2.22-1.11-3.14-0.22
		c-0.42,0.41-0.59,0.93-0.66,1.5c-0.07,0.57-0.16,1.13-0.25,1.74c-0.94-0.13-1.85-0.26-2.79-0.4c0.1-0.71,0.19-1.38,0.27-2.05
		c0.1-0.89-0.22-1.61-0.98-2.07c-0.77-0.47-1.58-0.42-2.33,0.09c-0.56,0.39-1.09,0.81-1.67,1.24c-0.56-0.74-1.12-1.48-1.69-2.25
		c0.61-0.47,1.22-0.89,1.78-1.38c1.02-0.88,0.91-2.47-0.18-3.26c-0.51-0.37-1.12-0.4-1.7-0.49c-0.4-0.07-0.81-0.12-1.24-0.18
		c0-0.09-0.01-0.15,0-0.22c0.12-0.84,0.25-1.68,0.38-2.57c0.54,0.08,1.07,0.14,1.58,0.22c0.79,0.13,1.54,0.11,2.17-0.48
		c0.73-0.68,0.91-1.77,0.37-2.62c-0.4-0.62-0.87-1.21-1.33-1.84c0.74-0.56,1.47-1.11,2.25-1.69c0.37,0.49,0.74,0.97,1.09,1.46
		c0.33,0.45,0.73,0.81,1.29,0.95c1.32,0.34,2.49-0.53,2.67-1.97c0.07-0.58,0.16-1.16,0.25-1.8c0.93,0.13,1.84,0.26,2.79,0.39
		c-0.09,0.7-0.19,1.37-0.27,2.04c-0.11,0.91,0.22,1.64,1,2.1c0.76,0.45,1.56,0.41,2.29-0.1c0.57-0.39,1.11-0.82,1.69-1.25
		c0.57,0.75,1.12,1.49,1.69,2.25c-0.55,0.41-1.1,0.81-1.62,1.23c-0.69,0.55-1.01,1.26-0.8,2.15c0.2,0.86,0.74,1.41,1.6,1.59
		c0.7,0.15,1.42,0.23,2.18,0.34c-0.13,0.93-0.26,1.84-0.4,2.78c-0.7-0.1-1.35-0.19-2.01-0.27c-0.91-0.12-1.64,0.2-2.11,0.98
		c-0.46,0.76-0.43,1.55,0.07,2.29C51.47,32.91,51.9,33.45,52.35,34.05 M44.89,30.66c2.29-0.01,4.19-1.9,4.21-4.2
		c0.01-2.29-1.93-4.24-4.22-4.23c-2.3,0.01-4.24,1.96-4.21,4.24C40.7,28.78,42.6,30.67,44.89,30.66"/>
	<path class="st0" d="M16.04,38.09c0.58-0.12,1.11-0.24,1.64-0.35c1.12-0.24,1.56-1.3,0.93-2.26c-0.3-0.46-0.63-0.92-0.98-1.42
		c0.4-0.38,0.77-0.76,1.17-1.11c0.07-0.06,0.25-0.06,0.33-0.01c0.36,0.22,0.71,0.47,1.06,0.72c1.11,0.76,2.09,0.39,2.42-0.9
		c0.02-0.08,0.04-0.15,0.08-0.31c0.19,0.8,0.37,1.53,0.55,2.3c-1.31,0.22-2.36,0.87-3.06,2.01c-0.49,0.79-0.65,1.67-0.59,2.6
		c0.11,1.61,1.35,3.12,3.01,3.61c1.44,0.43,3.64,0.09,4.93-2.1c0.76,0.66,1.73,1.05,2.27,1.97c0.03,0.06,0.07,0.11,0.11,0.17
		c0.23,0.35,0.21,0.62-0.13,0.91c-0.4,0.34-0.74,0.76-1.11,1.15c-0.52-0.35-0.96-0.66-1.42-0.96c-0.98-0.65-2.04-0.22-2.29,0.93
		c-0.09,0.42-0.19,0.83-0.25,1.25c-0.05,0.31-0.18,0.43-0.5,0.4c-0.29-0.03-0.59-0.02-0.88,0c-0.28,0.02-0.43-0.05-0.47-0.37
		c-0.06-0.46-0.18-0.91-0.29-1.36c-0.26-1.06-1.29-1.47-2.2-0.88c-0.48,0.31-0.94,0.64-1.4,0.96c-0.44-0.44-0.85-0.85-1.29-1.3
		c0.28-0.41,0.58-0.85,0.88-1.29c0.69-1.03,0.29-2.05-0.92-2.33c-0.45-0.1-0.91-0.19-1.36-0.31c-0.1-0.03-0.23-0.18-0.24-0.28
		C16.03,39.07,16.04,38.6,16.04,38.09"/>
	<path class="st0" d="M33.12,53h5.58c0.17,1.08-0.16,1.79-0.96,2.03c-0.15,0.05-0.31,0.06-0.47,0.06c-0.85,0.01-1.71,0-2.56,0
		c-1.04,0-1.58-0.54-1.59-1.57C33.12,53.36,33.12,53.19,33.12,53"/>
	<path class="st0" d="M22.28,21.47c-0.29,0.4-0.54,0.76-0.82,1.16c-1.64-1.17-3.27-2.33-4.93-3.52c0.27-0.38,0.53-0.75,0.82-1.16
		C18.99,19.12,20.62,20.28,22.28,21.47"/>
	<path class="st0" d="M15.71,27.66c-0.12-0.46-0.23-0.89-0.35-1.37c1.88-0.47,3.74-0.94,5.64-1.41c0.12,0.48,0.22,0.91,0.34,1.38
		C19.45,26.72,17.6,27.18,15.71,27.66"/>
	<rect x="33.15" y="50.19" class="st0" width="5.58" height="1.36"/>
	<path class="st0" d="M52.36,48.61c-1.41-1.17-2.8-2.33-4.22-3.52c0.3-0.36,0.58-0.7,0.9-1.09c1.41,1.17,2.8,2.33,4.23,3.52
		C52.96,47.89,52.67,48.24,52.36,48.61"/>
	<rect x="49.31" y="40.34" class="st0" width="4.9" height="1.37"/>
	<rect x="45.08" y="45.97" class="st0" width="1.38" height="4.88"/>
	<path class="st0" d="M46.08,37.9c0.13-0.89,0.26-1.78,0.4-2.67c0.06-0.35,0.3-0.53,0.63-0.57c0.45-0.06,0.7,0.26,0.5,0.66
		c-0.44,0.89-0.91,1.76-1.37,2.64C46.2,37.94,46.14,37.92,46.08,37.9"/>
	<path class="st0" d="M30.35,22.39c0.1-0.07,0.2-0.13,0.33-0.21c0.24,0.38,0.47,0.75,0.73,1.15c-0.13,0.1-0.24,0.18-0.35,0.26
		c-2.66,1.98-3.89,4.64-3.5,7.92c0.37,3.13,2.1,5.38,4.98,6.7c0.99,0.45,1.93,0.95,2.65,1.8c0.92,1.09,1.4,2.34,1.42,3.8h-1.32
		c-0.1-0.49-0.16-0.96-0.31-1.41c-0.41-1.22-1.22-2.11-2.4-2.64c-1.15-0.51-2.25-1.08-3.19-1.94c-1.66-1.5-2.76-3.33-3.11-5.53"/>
	<rect x="35.26" y="45.28" class="st0" width="1.35" height="2.05"/>
	<path class="st1" d="M49.59,63.93H21.3c-8.37,0-15.16-6.79-15.16-15.16v-28.3c0-8.37,6.79-15.16,15.16-15.16h28.3
		c8.37,0,15.16,6.79,15.16,15.16v28.3C64.75,57.14,57.96,63.93,49.59,63.93z"/>
</g>
</svg>
