<?xml version="1.0" standalone="no"?>
<!DOCTYPE svg PUBLIC "-//W3C//DTD SVG 1.1//EN" "http://www.w3.org/Graphics/SVG/1.1/DTD/svg11.dtd" >
<svg xmlns="http://www.w3.org/2000/svg" xmlns:xlink="http://www.w3.org/1999/xlink" version="1.1">
<metadata>
Created by FontForge 20201107 at Tue Sep  8 14:33:11 2020
 By 
Copyright 2019 The Commissioner Project Authors (https://github.com/kosbarts/Commissioner)
</metadata>
<defs>
<font id="Commissioner-Medium" horiz-adv-x="0" >
  <font-face 
    font-family="Commissioner Medium"
    font-weight="500"
    font-stretch="normal"
    units-per-em="2000"
    panose-1="0 0 0 0 0 0 0 0 0 0"
    ascent="1600"
    descent="-400"
    x-height="994"
    cap-height="1426"
    bbox="-276 -573 2697 2339"
    underline-thickness="50"
    underline-position="-125"
    unicode-range="U+000D-FB02"
  />
<missing-glyph horiz-adv-x="1246" 
d="M76 -384v2020h1094v-2020h-1094zM176 -284h894v1820h-894v-1820zM634 413q-100 0 -153 45t-53 118q0 80 51.5 131.5t115.5 97.5q38 27 72.5 56.5t57 65t22.5 79.5q0 58 -43.5 90t-120.5 32q-36 0 -75.5 -7.5t-80 -22t-81.5 -36.5l-8 150q31 13 73.5 27t95 24t112.5 10
q137 0 216 -58t79 -176q0 -77 -33 -133t-80.5 -96.5t-93.5 -75.5q-49 -36 -86.5 -71t-37.5 -78q0 -46 30 -64t69 -18q27 0 51 6.5t41 13.5l7 -87q-16 -5 -39 -10.5t-51 -9t-57 -3.5zM604 20q-56 0 -89.5 34t-33.5 86q0 54 33.5 87t89.5 33q58 0 91 -33t33 -87q0 -52 -33 -86
t-91 -34z" />
    <glyph glyph-name="fi" unicode="fi" horiz-adv-x="1330" 
d="M224 0v211v225v100v128.5v142v150.5v155q0 111 30 184.5t82.5 116t120.5 61t144 18.5q39 0 76 -3.5t67 -10.5t50 -14l-17 -180q-34 12 -70.5 19t-75.5 7q-104 0 -152.5 -50t-48.5 -152v-62v-52l8 -42v-516v-225v-211h-214zM44 829v165h708v-165h-190h-186h-91h-241z
M959 0v211v225v100v169v147v142l214 7v-144v-149v-172v-100v-225v-211h-214zM1062 1196q-64 0 -103.5 33.5t-39.5 105.5q0 67 39.5 102t105.5 35q67 0 105.5 -36t38.5 -101q0 -72 -39 -105.5t-107 -33.5z" />
    <glyph glyph-name="fl" unicode="fl" horiz-adv-x="1322" 
d="M224 0v211v225v100v128.5v142v151v154.5q0 111 30 184.5t82.5 116t120.5 61t144 18.5q36 0 69 -3.5t60.5 -8.5t46.5 -11v-185q-34 12 -70.5 19t-75.5 7q-104 0 -152.5 -50t-48.5 -152v-62v-52l8 -42v-516v-225v-211h-214zM44 830v164h708v-164h-190h-186h-91h-241zM955 0
v211v225v551v244v233l214 23v-242.5v-257.5v-551v-225v-211h-214z" />
    <glyph glyph-name="f_f" unicode="ff" horiz-adv-x="1554" 
d="M977 0v211v225v100v128.5v142v151v154.5q0 111 30 184.5t82.5 116t120.5 61t144 18.5q39 0 75.5 -3.5t67 -10.5t50.5 -14l-17 -180q-34 12 -71 19t-75 7q-104 0 -153 -50t-49 -152v-62v-52l8 -42v-516v-225v-211h-213zM797 829v165h707v-165h-189.5h-185.5h-91h-241z
M224 0v211v225v100v128.5v142v151v154.5q0 111 30 184.5t82.5 116t120.5 61t144 18.5q39 0 76 -3.5t67 -10.5t50 -14l-17 -180q-34 12 -70.5 19t-75.5 7q-104 0 -152.5 -50t-48.5 -152v-62v-52l8 -42v-516v-225v-211h-214zM44 829v165h708v-165h-190h-186h-91h-241z" />
    <glyph glyph-name="f_f_i" unicode="ffi" horiz-adv-x="2083" 
d="M977 0v211v225v100v128.5v142v151v154.5q0 111 30 184.5t82.5 116t120.5 61t144 18.5q39 0 75.5 -3.5t67 -10.5t50.5 -14l-17 -180q-34 12 -71 19t-75 7q-104 0 -153 -50t-49 -152v-62v-52l8 -42v-516v-225v-211h-213zM797 829v165h707v-165h-189.5h-185.5h-91h-241z
M224 0v211v225v100v128.5v142v151v154.5q0 111 30 184.5t82.5 116t120.5 61t144 18.5q39 0 76 -3.5t67 -10.5t50 -14l-17 -180q-34 12 -70.5 19t-75.5 7q-104 0 -152.5 -50t-48.5 -152v-62v-52l8 -42v-516v-225v-211h-214zM44 829v165h708v-165h-190h-186h-91h-241zM1712 0
v211v225v100v169v147v142l214 7v-144v-149v-172v-100v-225v-211h-214zM1815 1196q-64 0 -103.5 33.5t-39.5 105.5q0 67 39.5 102t105.5 35q67 0 105.5 -36t38.5 -101q0 -72 -39 -105.5t-107 -33.5z" />
    <glyph glyph-name="f_f_l" unicode="ffl" horiz-adv-x="2075" 
d="M224 0v211v225v100v128.5v142v151v154.5q0 111 30 184.5t82.5 116t120.5 61t144 18.5q39 0 76 -3.5t67 -10.5t50 -14l-17 -180q-34 12 -70.5 19t-75.5 7q-104 0 -152.5 -50t-48.5 -152v-62v-52l8 -42v-516v-225v-211h-214zM44 829v165h708v-165h-190h-186h-91h-241z
M977 0v211v225v100v128.5v142v151v154.5q0 111 30 184.5t82.5 116t120.5 61t144 18.5q36 0 69 -3.5t60.5 -8.5t46.5 -11v-185q-34 12 -71 19t-75 7q-104 0 -153 -50t-49 -152v-62v-52l8 -42v-516v-225v-211h-213zM797 829v165h707v-165h-189.5h-185.5h-91h-241zM1708 0v211
v225v551v244v233l214 23v-242.5v-257.5v-551v-225v-211h-214z" />
    <glyph glyph-name=".notdef" horiz-adv-x="1246" 
d="M76 -384v2020h1094v-2020h-1094zM176 -284h894v1820h-894v-1820zM634 413q-100 0 -153 45t-53 118q0 80 51.5 131.5t115.5 97.5q38 27 72.5 56.5t57 65t22.5 79.5q0 58 -43.5 90t-120.5 32q-36 0 -75.5 -7.5t-80 -22t-81.5 -36.5l-8 150q31 13 73.5 27t95 24t112.5 10
q137 0 216 -58t79 -176q0 -77 -33 -133t-80.5 -96.5t-93.5 -75.5q-49 -36 -86.5 -71t-37.5 -78q0 -46 30 -64t69 -18q27 0 51 6.5t41 13.5l7 -87q-16 -5 -39 -10.5t-51 -9t-57 -3.5zM604 20q-56 0 -89.5 34t-33.5 86q0 54 33.5 87t89.5 33q58 0 91 -33t33 -87q0 -52 -33 -86
t-91 -34z" />
    <glyph glyph-name=".null" 
 />
    <glyph glyph-name="nonmarkingreturn" horiz-adv-x="666" 
 />
    <glyph glyph-name="NULL" 
 />
    <glyph glyph-name="NULL" 
 />
    <glyph glyph-name="CR" unicode="&#xd;" horiz-adv-x="382" 
 />
    <glyph glyph-name="space" unicode=" " horiz-adv-x="382" 
 />
    <glyph glyph-name="exclam" unicode="!" horiz-adv-x="493" 
d="M161 507q-5 244 -15 482.5t-21 475.5l247 7q-11 -238 -21 -478.5t-15 -483.5zM246 -24q-47 0 -81 19.5t-52.5 53t-18.5 77.5q0 66 41.5 106t111.5 40q47 0 81 -18.5t52 -51.5t18 -76q0 -65 -40 -107.5t-112 -42.5z" />
    <glyph glyph-name="quotedbl" unicode="&#x22;" horiz-adv-x="790" 
d="M112 846q-4 162 -13.5 321t-20.5 317l227 5q-10 -158 -19.5 -318.5t-14.5 -322.5zM481 846q-4 162 -13.5 321t-20.5 317l227 5q-10 -158 -19.5 -318.5t-14.5 -322.5z" />
    <glyph glyph-name="numbersign" unicode="#" horiz-adv-x="1376" 
d="M32 292v161h188h170h488h170h188v-161h-188h-170h-488h-170h-188zM230 0q20 102 38.5 200t43.5 225l88 459q17 88 31 159.5t27 138.5t27 140h167q-14 -71 -27 -138t-26.5 -139.5t-31.5 -161.5l-89 -458q-24 -125 -42.5 -223t-39.5 -202h-166zM140 863v161h189h170h487
h170.5h187.5v-161h-187.5h-170.5h-487h-170h-189zM714 0q20 102 38.5 200t43.5 225l88 458q18 89 31.5 160.5t26.5 138.5t27 140h167q-14 -71 -27 -138t-26.5 -139.5t-31.5 -161.5l-89 -458q-24 -125 -42.5 -223t-39.5 -202h-166z" />
    <glyph glyph-name="dollar" unicode="$" horiz-adv-x="1133" 
d="M573 -23q-86 0 -173 15t-161 39t-121 49l19 193q65 -35 135.5 -60t144 -39t148.5 -14q84 0 150 22t104 69t38 125q0 65 -43 106t-123 71.5t-190 64.5q-128 40 -217.5 88t-137 120t-47.5 184q0 111 50.5 198t152 137t252.5 50q61 0 122.5 -8.5t118 -23t104 -32t81.5 -37.5
l-19 -196q-59 38 -124.5 62.5t-131 36.5t-122.5 12q-73 0 -137 -20.5t-103.5 -64.5t-39.5 -113q0 -59 34 -96t106.5 -66.5t187.5 -66.5q163 -51 256.5 -105t133 -125.5t39.5 -173.5q0 -117 -51.5 -207t-159 -142t-276.5 -52zM497 -274v172.5v164v160.5v161v564v161v160.5
v164.5v172h164v-172v-164.5v-160.5v-161v-564v-161.5v-161v-163.5v-172h-164z" />
    <glyph glyph-name="percent" unicode="%" horiz-adv-x="1804" 
d="M387 0q64 110 125.5 216.5t140.5 242.5l287 496q55 94 100 172t87 150.5t86 148.5h195q-44 -76 -86 -148.5t-87.5 -150.5t-99.5 -172l-288 -496q-79 -136 -140 -242.5t-125 -216.5h-195zM446 737q-113 0 -198.5 43.5t-134.5 124t-49 189.5q0 103 49 184t135 128t199 47
q112 0 198 -47t134 -128t48 -184q0 -109 -48 -189.5t-134.5 -124t-198.5 -43.5zM446 879q102 0 159.5 57t57.5 157q0 63 -26 112t-74.5 77t-115.5 28q-102 0 -160.5 -60.5t-58.5 -156.5q0 -100 58.5 -157t159.5 -57zM1350 -24q-112 0 -198 44t-134.5 124t-48.5 190
q0 102 48.5 183t135 128.5t199.5 47.5q112 0 197.5 -47.5t134 -128.5t48.5 -183q0 -110 -48.5 -190t-134.5 -124t-199 -44zM1350 118q103 0 160.5 57t57.5 157q0 64 -26 113t-74.5 77t-115.5 28q-102 0 -160.5 -60.5t-58.5 -157.5q0 -100 58.5 -157t158.5 -57z" />
    <glyph glyph-name="ampersand" unicode="&#x26;" horiz-adv-x="1490" 
d="M1197 0q-66 68 -132.5 136.5t-132.5 135.5l-453 466q-90 92 -142 180t-52 195q0 108 50.5 184t135.5 116t189 40q107 0 193.5 -37.5t137 -110t50.5 -174.5q0 -85 -31 -147t-82.5 -107t-111 -77t-116.5 -55l-92 130q72 28 124.5 62t81.5 80t29 109q0 71 -49 118.5
t-123 47.5q-76 0 -123 -49.5t-47 -128.5q0 -67 36 -129.5t117 -144.5l439 -455q93 -96 186.5 -192.5t185.5 -192.5h-268zM533 -21q-149 0 -247.5 52.5t-147.5 142t-49 198.5q0 122 51.5 210.5t134 150t172.5 101.5l93 -134q-72 -33 -126.5 -77t-85.5 -101t-31 -127
q0 -69 30.5 -122.5t89.5 -84t144 -30.5q57 0 111 23t106 68t101 113l120 -123l8 -36h-28q-59 -70 -124.5 -120.5t-144 -77t-177.5 -26.5zM1121 345l-129 125q59 92 114 179t112 175l179 -115q-69 -92 -137.5 -181.5t-138.5 -182.5z" />
    <glyph glyph-name="quotesingle" unicode="'" horiz-adv-x="421" 
d="M112 846q-4 162 -13.5 321t-20.5 317l227 5q-10 -158 -19.5 -318.5t-14.5 -322.5z" />
    <glyph glyph-name="parenleft" unicode="(" horiz-adv-x="790" 
d="M575 -250q-101 69 -186.5 158.5t-148.5 200.5t-97.5 245t-34.5 293q0 160 34.5 294.5t97.5 245t148.5 199.5t186.5 159l143 -68q-103 -85 -192.5 -199.5t-144.5 -270t-55 -360.5q0 -204 55 -359.5t144.5 -270.5t192.5 -200z" />
    <glyph glyph-name="parenright" unicode=")" horiz-adv-x="790" 
d="M215 -250l-143 67q103 85 192.5 200t144.5 270t55 360t-55 360t-144.5 270t-192.5 200l143 68q101 -70 186.5 -159.5t148 -200t97.5 -245t35 -293.5q0 -160 -35 -294t-97.5 -245t-148 -200t-186.5 -158z" />
    <glyph glyph-name="asterisk" unicode="*" horiz-adv-x="960" 
d="M833 734q-94 66 -187.5 130.5t-188.5 129.5q-101 54 -202.5 107.5t-202.5 106.5l75 127q95 -65 188.5 -130t188.5 -131q100 -53 201.5 -106.5t202.5 -106.5zM127 734l-75 127q101 54 202.5 107.5t202.5 106.5q95 66 188.5 130.5t187.5 129.5l75 -127
q-101 -53 -202.5 -106.5t-201.5 -105.5q-94 -65 -188 -130.5t-189 -131.5zM406 578q7 114 14 228.5t14 229.5q-7 113 -14 227.5t-14 228.5h148q-7 -114 -14 -228.5t-14 -227.5q7 -115 14 -229.5t14 -228.5h-148z" />
    <glyph glyph-name="plus" unicode="+" horiz-adv-x="1184" 
d="M496 113v188.5v170.5v259v170.5v187.5h192v-187.5v-170.5v-259v-170.5v-188.5h-192zM116 507v188h188h170h236h170h188v-188h-188h-170h-236h-170h-188z" />
    <glyph glyph-name="comma" unicode="," horiz-adv-x="474" 
d="M49 -314q38 56 61 113.5t33 121t10 136.5v105v109l103 8q65 -6 94 -49.5t29 -107.5q0 -65 -18.5 -128t-50.5 -120t-71 -104t-80 -81z" />
    <glyph glyph-name="hyphen" unicode="-" horiz-adv-x="848" 
d="M116 503v188h162h146h146.5h161.5v-188h-161.5h-146.5h-146h-162z" />
    <glyph glyph-name="period" unicode="." horiz-adv-x="493" 
d="M246 -24q-47 0 -81 19.5t-52.5 53t-18.5 77.5q0 66 41.5 106t111.5 40q47 0 81 -18.5t52 -51.5t18 -76q0 -65 -40 -107.5t-112 -42.5z" />
    <glyph glyph-name="slash" unicode="/" horiz-adv-x="897" 
d="M49 0q46 112 89 216t100 240l205 496q59 142 104 250.5t92 223.5h209q-32 -77 -62 -150t-63 -152t-73 -176l-203 -492q-57 -136 -100 -241t-89 -215h-209z" />
    <glyph glyph-name="zero" unicode="0" horiz-adv-x="1314" 
d="M662 -23q-147 0 -253 53.5t-174 150t-100.5 226t-32.5 281.5q0 212 61 372t184 250t309 90q142 0 246 -51.5t173 -146t103 -225t34 -288.5q0 -217 -62 -376.5t-184.5 -247.5t-303.5 -88zM658 165q118 0 189.5 68.5t104.5 186.5t33 269q0 159 -34.5 276t-107 181.5
t-185.5 64.5q-115 0 -187.5 -67t-106.5 -184.5t-34 -270.5t33 -271t105 -185.5t190 -67.5z" />
    <glyph glyph-name="one" unicode="1" horiz-adv-x="874" 
d="M108 942l-52 175q128 66 256 131.5t256 131.5l-7 -202q-113 -59 -226 -117.5t-227 -118.5zM456 0v211v225v420v211.5v211.5l112 101l108 -7v-234v-243v-460v-225v-211h-220z" />
    <glyph glyph-name="two" unicode="2" horiz-adv-x="1120" 
d="M93 0v153l118 102t118 101q138 119 237 223t151.5 200.5t52.5 193.5q0 118 -64.5 177.5t-195.5 59.5q-47 0 -97.5 -10t-102 -28t-102.5 -44t-100 -59l-22 214q46 24 100 45t114 37t123.5 25.5t126.5 9.5q144 0 243.5 -48.5t151.5 -138t52 -213.5q0 -111 -49 -220.5
t-147 -222t-243 -233.5l-214 -177l-30 44h268h219h219v-191h-927z" />
    <glyph glyph-name="three" unicode="3" horiz-adv-x="1150" 
d="M555 -23q-67 0 -132.5 8.5t-126.5 23t-114.5 34.5t-97.5 43l19 204q54 -29 109.5 -52t110.5 -39t108.5 -24t102.5 -8q157 0 226.5 61.5t69.5 157.5q0 114 -93 173.5t-261 59.5h-72h-71v179h65h66q114 0 185 28.5t104.5 78t33.5 113.5q0 97 -71.5 144t-183.5 47
q-47 0 -97 -9.5t-101 -27t-101.5 -42.5t-98.5 -58l-23 208q44 25 97 47t112 38t121 26t124 10q137 0 238 -42t155.5 -119t54.5 -182q0 -86 -35.5 -151t-94.5 -107.5t-130 -58.5v-19q54 -10 107.5 -35t98 -68.5t71 -104.5t26.5 -144q0 -112 -54.5 -201t-165.5 -140.5
t-281 -51.5z" />
    <glyph glyph-name="four" unicode="4" horiz-adv-x="1209" 
d="M703 0v184.5v203.5l7 36v427v210.5v210.5l162 46q-55 -79 -108 -154t-106 -151l-233 -329q-46 -66 -91.5 -131.5t-93.5 -131.5l-7 77h526h30h121.5h131.5h115v-191h-115h-131.5h-121.5h-733v149q41 59 91.5 130t101.5 143.5t95 133.5l173 245q47 66 94 132.5t93 132.5
h218v-243.5v-238.5v-503v-203.5v-184.5h-219z" />
    <glyph glyph-name="five" unicode="5" horiz-adv-x="1155" 
d="M549 -23q-66 0 -130.5 8.5t-124.5 23t-113 34.5t-97 43l19 204q54 -29 109.5 -52t110 -39t106.5 -24t101 -8q156 0 230.5 73t74.5 204q0 96 -38.5 155t-105.5 85.5t-151 26.5q-71 0 -138 -17.5t-140 -64.5l-96 7v220v269v248h818v-191h-240h-240h-201l77 72
q0 -85 -1 -169t-3 -168v-83h19q55 29 116.5 43.5t126.5 14.5q117 0 213 -48t153 -146t57 -245q0 -142 -57 -249t-171 -167t-284 -60z" />
    <glyph glyph-name="six" unicode="6" horiz-adv-x="1221" 
d="M640 -23q-175 0 -295 78t-181.5 231t-61.5 377q0 185 38.5 323.5t111 230t176 137.5t233.5 46q54 0 105.5 -7t100 -19.5t93.5 -29t85 -36.5l-22 -203q-40 26 -84 45.5t-88.5 32t-89 19t-86.5 6.5q-128 0 -206.5 -61.5t-114.5 -184t-36 -304.5q0 -167 36.5 -276
t106.5 -162t170 -53q96 0 157 40t90.5 105.5t29.5 139.5t-28.5 134t-88.5 95.5t-153 35.5q-38 0 -78 -7t-81 -24t-83 -47t-84 -75q-24 36 -31.5 63t0 55t29.5 68l31 -2q35 36 75.5 63.5t85.5 46.5t95 28.5t104 9.5q129 0 225 -54t148.5 -151t52.5 -226q0 -126 -53.5 -237.5
t-161.5 -181t-272 -69.5z" />
    <glyph glyph-name="seven" unicode="7" horiz-adv-x="1072" 
d="M205 0q60 132 120.5 264.5t118.5 261.5l185 405q35 74 68.5 148.5t67.5 148.5l43 -46h-272h-242.5h-243.5v191h948v-150q-54 -120 -106 -235.5t-108 -239.5l-122 -272q-53 -118 -106.5 -237t-107.5 -239h-243z" />
    <glyph glyph-name="eight" unicode="8" horiz-adv-x="1222" 
d="M612 -23q-177 0 -291.5 54t-170.5 146t-56 208q0 112 44.5 185t109.5 113t127 54v19q-63 16 -117 55.5t-87.5 100t-33.5 141.5q0 105 57.5 183t164 121.5t253.5 43.5q146 0 252 -43.5t163.5 -121.5t57.5 -183q0 -81 -33 -141.5t-87.5 -100t-117.5 -55.5v-19
q63 -14 128 -54.5t109 -113.5t44 -184q0 -116 -56 -208t-170 -146t-290 -54zM612 168q104 0 170 31.5t96.5 85t30.5 121.5q0 80 -39 133t-106.5 79t-153.5 26q-84 0 -151.5 -26t-106.5 -79t-39 -133q0 -68 31 -121.5t97 -85t171 -31.5zM612 816q123 0 191 58t68 148
q0 94 -71 143t-188 49q-118 0 -188.5 -49t-70.5 -143q0 -60 30 -107t88 -73t141 -26z" />
    <glyph glyph-name="nine" unicode="9" horiz-adv-x="1221" 
d="M560 -23q-54 0 -106 6.5t-100 19.5t-93 29.5t-86 36.5l23 203q41 -26 84.5 -45.5t88 -32.5t89 -19.5t86.5 -6.5q128 0 206 62t114.5 184t36.5 305q0 167 -37 276t-106.5 162t-169.5 53q-96 0 -157.5 -40.5t-90.5 -105.5t-29 -140q0 -74 28.5 -133.5t88 -95t153.5 -35.5
q38 0 78 7t81 24t83 46.5t84 75.5q24 -37 31.5 -63.5t0 -54.5t-29.5 -68l-31 2q-36 -36 -76.5 -63.5t-85 -46.5t-94.5 -29t-104 -10q-129 0 -225 54.5t-148.5 151.5t-52.5 226q0 126 53 237.5t161 181t273 69.5q175 0 295 -78.5t181.5 -231t61.5 -377.5q0 -184 -38.5 -322.5
t-111.5 -230.5t-176 -137.5t-233 -45.5z" />
    <glyph glyph-name="colon" unicode=":" horiz-adv-x="493" 
d="M246 723q-47 0 -81 19.5t-52.5 53t-18.5 77.5q0 66 41.5 106t111.5 40q47 0 81 -18.5t52 -51.5t18 -76q0 -65 -40 -107.5t-112 -42.5zM246 -24q-47 0 -81 19.5t-52.5 53t-18.5 77.5q0 66 41.5 106t111.5 40q47 0 81 -18.5t52 -51.5t18 -76q0 -65 -40 -107.5t-112 -42.5z
" />
    <glyph glyph-name="semicolon" unicode=";" horiz-adv-x="493" 
d="M246 723q-47 0 -81 19.5t-52.5 53t-18.5 77.5q0 66 41.5 106t111.5 40q47 0 81 -18.5t52 -51.5t18 -76q0 -65 -40 -107.5t-112 -42.5zM67 -314q38 56 61 113.5t33 121t10 136.5v105v109l103 8q65 -6 94 -49.5t29 -107.5q0 -65 -18.5 -128t-50.5 -120t-71 -104t-80 -81z
" />
    <glyph glyph-name="less" unicode="&#x3c;" horiz-adv-x="1144" 
d="M1028 132q-96 39 -188 76.5t-173 70.5l-194 80q-79 33 -170 70t-187 76v190q96 40 187.5 77t170.5 69l194 80q80 33 172 70.5t188 76.5v-200q-100 -41 -203 -83.5t-206 -84.5l-217 -90v-20l217 -90q102 -41 205.5 -84t203.5 -84v-200z" />
    <glyph glyph-name="equal" unicode="=" horiz-adv-x="1144" 
d="M124 277v188h188h170h180h170h188v-188h-188h-170h-180h-170h-188zM124 737v188h188h170h180h170h188v-188h-188h-170h-180h-170h-188z" />
    <glyph glyph-name="greater" unicode="&#x3e;" horiz-adv-x="1144" 
d="M116 132v200q100 41 203.5 84t205.5 85l217 89v20l-217 89q-102 43 -205.5 85.5t-203.5 83.5v200q97 -39 188 -76.5t172 -70.5l195 -80q78 -32 169.5 -69.5t187.5 -76.5v-190q-96 -39 -187.5 -76t-169.5 -70l-195 -80q-81 -33 -172 -70.5t-188 -76.5z" />
    <glyph glyph-name="question" unicode="?" horiz-adv-x="872" 
d="M440 450q-124 0 -188 54.5t-64 144.5q0 65 29 113.5t75 88t98 76.5q46 34 88 69.5t69 78t27 95.5q0 71 -51.5 108.5t-145.5 37.5q-45 0 -93 -8.5t-97.5 -26.5t-99.5 -44l-11 187q28 11 65 24t81 24.5t94 18.5t104 7q112 0 193 -31t125 -95t44 -160q0 -94 -39.5 -162.5
t-97.5 -119t-114 -90.5q-61 -44 -106 -86t-45 -94q0 -56 35.5 -77t82.5 -21q34 0 63 7.5t49 16.5l8 -107q-19 -7 -47.5 -13.5t-62 -11t-68.5 -4.5zM405 -24q-47 0 -80.5 19.5t-52.5 53t-19 77.5q0 66 41.5 106t111.5 40q47 0 80.5 -18.5t52 -51.5t18.5 -76
q0 -65 -40.5 -107.5t-111.5 -42.5z" />
    <glyph glyph-name="at" unicode="@" horiz-adv-x="1772" 
d="M948 -272q-238 0 -413 79.5t-282.5 216.5t-143.5 311.5t3 362.5q36 173 115.5 299t190.5 208t244.5 121.5t278.5 39.5q188 0 337 -68t247 -187.5t135.5 -276t3.5 -335.5q-20 -103 -62 -174.5t-95 -116t-108.5 -65t-102.5 -20.5q-78 0 -132 22t-87 56.5t-47 73.5h-15
q-49 -71 -119 -102.5t-134 -31.5q-115 0 -186.5 66.5t-96 173.5t0.5 230q22 107 73.5 189.5t126.5 129.5t168 47q55 0 101 -15.5t82.5 -43.5t61.5 -64h17l26 102l157 10q-23 -110 -48 -228t-50 -237l-9 -39q-21 -108 10.5 -153.5t93.5 -45.5q41 0 77.5 18.5t67.5 53t54 83.5
t35 109q30 151 2 279.5t-107 224.5t-200.5 148.5t-280.5 52.5q-178 0 -318.5 -64.5t-235 -190t-133.5 -307.5q-35 -162 -7 -307.5t116.5 -259t236 -178t351.5 -64.5q78 0 169 14t191.5 51t205.5 105v-153q-82 -52 -176 -85.5t-193 -49t-197 -15.5zM811 298q54 0 105 30.5
t88 95.5l64 305q-31 39 -75.5 63t-104.5 24q-96 0 -155 -66.5t-81 -167.5q-16 -77 -4 -141.5t52.5 -103.5t110.5 -39z" />
    <glyph glyph-name="A" unicode="A" horiz-adv-x="1401" 
d="M53 0q40 115 84 242t85 241l170 490q47 132 84 238.5t75 214.5h305q39 -111 75.5 -217t82.5 -237l169 -491q41 -118 84.5 -242.5t82.5 -238.5h-244q-39 121 -80 248.5t-78 241.5l-236 730h-20l-239 -723q-39 -118 -81 -247t-82 -250h-237zM346 336l22 180h692l18 -180
h-732z" />
    <glyph glyph-name="B" unicode="B" horiz-adv-x="1303" 
d="M633 0h-190.5h-157h-117.5v227v242v481v246v230h257h287q132 0 224 -23.5t148 -67t82 -105t26 -137.5q0 -91 -33.5 -159t-91 -112t-130.5 -65v-21q78 -16 144 -54.5t106 -108.5t40 -178q0 -86 -28.5 -158.5t-95.5 -125.5t-182 -82t-288 -29zM398 191h255q118 0 191 26.5
t106.5 76.5t33.5 120q0 113 -80.5 163.5t-226.5 50.5h-332v184h326q97 0 158.5 30.5t90.5 81t29 111.5q0 102 -64 151t-191 49h-296v-160v-177v-380v-171.5v-155.5z" />
    <glyph glyph-name="C" unicode="C" horiz-adv-x="1369" 
d="M830 -24q-171 0 -308 54.5t-233 153.5t-147 234t-51 296q0 215 88 382t248 262t377 95q70 0 137 -9.5t127.5 -26t112.5 -36t91 -41.5l-20 -222q-77 47 -150 76t-142 42.5t-134 13.5q-142 0 -253 -64.5t-174 -184.5t-63 -287q0 -111 32.5 -208.5t97.5 -172t163 -117
t227 -42.5q50 0 99.5 6.5t99 20.5t98 38t95.5 57l16 -220q-43 -25 -94 -44.5t-107 -31.5t-115 -18t-118 -6z" />
    <glyph glyph-name="D" unicode="D" horiz-adv-x="1471" 
d="M169 0v227v242v480v247v230h173.5h173.5h178q164 0 291.5 -47.5t215.5 -139t133.5 -222.5t45.5 -299q0 -151 -40.5 -281.5t-128 -228.5t-230.5 -153t-348 -55h-166h-149.5h-148.5zM404 192h230q185 0 295 69t158 189t48 272q0 116 -28 210.5t-87 162t-150 103.5t-217 36
h-249v-158.5v-175.5v-380v-172.5v-155.5z" />
    <glyph glyph-name="E" unicode="E" horiz-adv-x="1189" 
d="M168 0v227v242v481v246v230h908v-198h-208h-262h-339l131 162v-229.5v-246.5v-409v-241.5v-227.5l-117 162h344h239h217v-198h-913zM346 626v191h271h233.5h188.5v-191h-192.5h-230.5h-270z" />
    <glyph glyph-name="F" unicode="F" horiz-adv-x="1150" 
d="M169 0v227v242v480v247v230h892v-199h-208h-262h-289l97 163v-229.5v-246.5v-445v-242v-227h-230zM342 612v192h259h234h189v-192h-194.5h-229.5h-258z" />
    <glyph glyph-name="G" unicode="G" horiz-adv-x="1463" 
d="M854 -23q-185 0 -327 55.5t-239 155t-147 234t-50 293.5q0 216 89 382.5t252.5 261t387.5 94.5q75 0 146 -10t134 -26.5t116.5 -36.5t92.5 -40l-19 -222q-83 47 -161.5 76t-151.5 42.5t-140 13.5q-110 0 -201.5 -36t-159.5 -105t-105 -168.5t-37 -226.5q0 -113 32 -211.5
t98 -173.5t168 -117t241 -42q58 0 114 6t109.5 18.5t106 32t102.5 47.5l28 -215q-34 -15 -86 -29.5t-115.5 -26.5t-134 -19t-143.5 -7zM1111 55v189v162v168.5v149.5h222v-149.5v-168.5v-161.5v-185.5z" />
    <glyph glyph-name="H" unicode="H" horiz-adv-x="1500" 
d="M1096 0v227v242v480v247v230h235v-230v-247v-480v-242v-227h-235zM169 0v227v242v480v247v230h235v-230v-247v-480v-242v-227h-235zM331 621v199h844v-199h-844z" />
    <glyph glyph-name="I" unicode="I" horiz-adv-x="585" 
d="M173 0v227v242v480v247v230h239v-230v-247v-480v-242v-227h-239z" />
    <glyph glyph-name="J" unicode="J" horiz-adv-x="603" 
d="M21 -314q56 67 94.5 135.5t58.5 146.5t21 176v435v370v247v230h235v-230v-247v-333v-251.5v-238.5q0 -82 -14 -148.5t-39 -119.5t-57 -95t-68 -77h-231z" />
    <glyph glyph-name="K" unicode="K" horiz-adv-x="1362" 
d="M1021 0q-85 100 -159 188t-145 172l-241 285h-95v188h93l211 236q75 83 147.5 165.5t169.5 191.5h278q-104 -113 -202.5 -221.5t-197.5 -218.5l-250 -276l-4 104l278 -332q65 -76 138.5 -164t144 -171.5t123.5 -146.5h-289zM169 0v227v242v480v247v230h234v-230v-247
v-480v-242v-227h-234z" />
    <glyph glyph-name="L" unicode="L" horiz-adv-x="1150" 
d="M169 0v227v242v480v247v230h235v-230v-247v-443v-242.5v-226.5l-85 170h268h194.5h156.5h148v-207h-917z" />
    <glyph glyph-name="M" unicode="M" horiz-adv-x="1920" 
d="M122 0q14 114 28 227t30 245l60 473q16 131 30 244.5t30 236.5h236q58 -141 110.5 -271.5t104.5 -260.5l206 -510h17l202 510q51 130 102.5 259t107.5 273h235q15 -122 29 -235.5t31 -245.5l59 -477q16 -129 30 -240t28 -228h-224q-21 175 -40 333t-36 295l-48 394h-17
l-160 -424q-59 -155 -117.5 -309t-108.5 -289h-158q-33 86 -73 186t-81.5 205t-81.5 205l-169 426h-17l-47 -392q-17 -138 -36 -296.5t-41 -333.5h-221z" />
    <glyph glyph-name="N" unicode="N" horiz-adv-x="1505" 
d="M169 0v227v242v480v247v230h208q118 -168 225.5 -321t212.5 -304l281 -399h19v547v247v230h221v-230v-247v-480v-242v-227h-205q-97 139 -204.5 291.5t-235.5 334.5l-283 403h-18v-560v-242v-227h-221z" />
    <glyph glyph-name="O" unicode="O" horiz-adv-x="1632" 
d="M823 -24q-186 0 -323.5 59t-228 162t-135.5 236t-45 281q0 207 83.5 374.5t245 266t396.5 98.5q178 0 313.5 -57t227 -158.5t137.5 -235.5t46 -288q0 -211 -84 -378t-244.5 -263.5t-388.5 -96.5zM818 174q123 0 213 44t149 120t87.5 173t28.5 203q0 114 -31 212
t-91.5 172t-149.5 115.5t-206 41.5q-121 0 -211 -43t-150.5 -119t-90.5 -173t-30 -206q0 -108 29 -205t88.5 -172.5t150.5 -119t214 -43.5z" />
    <glyph glyph-name="P" unicode="P" horiz-adv-x="1271" 
d="M168 0v227v242v481v246v230h219h310q167 0 277 -43t165 -136t55 -244q0 -134 -49 -238t-162 -163t-305 -59h-105.5h-110.5h-93v191h260q113 0 185 27t106.5 86t34.5 154q0 78 -25 124.5t-65.5 70t-89 31.5t-94.5 8h-395l114 155v-229.5v-246.5v-445v-242v-227h-232z" />
    <glyph glyph-name="Q" unicode="Q" horiz-adv-x="1632" 
d="M1262 -341q-62 54 -124 106t-122 104l-158 134l128 132l205 -161q67 -53 133.5 -105t145.5 -115zM823 -24q-186 0 -323.5 59t-228 162t-135.5 236t-45 281q0 207 83.5 374.5t245 266t396.5 98.5q178 0 313.5 -57t227 -158.5t137.5 -235.5t46 -288q0 -211 -84 -378
t-244.5 -263.5t-388.5 -96.5zM818 174q123 0 213 44t149 120t87.5 173t28.5 203q0 114 -31 212t-91.5 172t-149.5 115.5t-206 41.5q-121 0 -211 -43t-150.5 -119t-90.5 -173t-30 -206q0 -108 29 -205t88.5 -172.5t150.5 -119t214 -43.5z" />
    <glyph glyph-name="R" unicode="R" horiz-adv-x="1356" 
d="M168 0v227v242v481v246v230h140h172.5h193.5q167 0 280 -38.5t170 -125t57 -232.5q0 -119 -46.5 -217t-152.5 -157.5t-285 -60.5l83 99l214 -283q50 -66 106 -140t109.5 -145t94.5 -126h-271q-64 88 -123.5 169.5t-116.5 159.5l-249 342l142 -122h-329v191h259
q109 0 180.5 25.5t107 83.5t35.5 155q0 79 -25 125t-65.5 69t-88.5 30t-94 7h-431l163 155v-234v-242v-445v-242v-227h-230z" />
    <glyph glyph-name="S" unicode="S" horiz-adv-x="1183" 
d="M597 -23q-89 0 -180.5 15.5t-170 39.5t-126.5 48l19 219q69 -39 142.5 -66.5t149 -43t150.5 -15.5q82 0 146 21.5t100.5 67t36.5 117.5q0 69 -40.5 114t-117.5 78.5t-184 65.5q-134 41 -229 91.5t-144.5 126.5t-49.5 196q0 116 53.5 207t160 142.5t266.5 51.5
q64 0 128.5 -9t124 -23.5t108.5 -33.5t85 -39l-21 -218q-61 41 -129.5 68.5t-135 42t-123.5 14.5q-73 0 -134 -21t-98 -63.5t-37 -108.5q0 -60 32 -101t101 -73t178 -66q171 -54 270 -109.5t140.5 -130.5t41.5 -188q0 -121 -53.5 -215t-167 -148t-292.5 -54z" />
    <glyph glyph-name="T" unicode="T" horiz-adv-x="1285" 
d="M526 0v227v242v445v246.5v229.5l91 -171h-177h-209h-173v207h1169v-207h-172h-210h-177l92 171v-229.5v-246.5v-445v-242v-227h-234z" />
    <glyph glyph-name="U" unicode="U" horiz-adv-x="1459" 
d="M731 -24q-206 0 -333.5 69.5t-186.5 195.5t-59 296v106v145.5v160.5v247v230h234v-230v-247v-394q0 -120 34.5 -205t110 -130.5t199.5 -45.5q126 0 201 45.5t108 130.5t33 206v393v247v230h234v-230v-247v-161v-146.5v-105.5q0 -170 -60.5 -295.5t-187.5 -195t-327 -69.5
z" />
    <glyph glyph-name="V" unicode="V" horiz-adv-x="1390" 
d="M537 0q-36 107 -77.5 228t-76.5 224l-153 447q-26 77 -56.5 166.5t-62 182.5t-60.5 178h260q47 -147 99.5 -313.5t98.5 -312.5l177 -559h20l180 562q48 149 99.5 310t100.5 313h252q-29 -86 -60 -177.5t-61.5 -181t-56.5 -166.5l-153 -450q-35 -104 -75.5 -223.5
t-77.5 -227.5h-317z" />
    <glyph glyph-name="W" unicode="W" horiz-adv-x="2060" 
d="M449 0q-29 106 -63 227t-63 224l-125 447q-33 119 -73 261t-75 267h263q36 -145 76 -305t75 -305l134 -538h20l132 545q23 93 48 197t50.5 208t48.5 198h261q36 -145 75 -302t76 -303l135 -543h20l135 546q35 141 74.5 301t74.5 301h262q-35 -127 -74.5 -267t-73.5 -258
l-127 -450q-31 -107 -64.5 -227.5t-63.5 -223.5h-293q-36 137 -75.5 288.5t-74.5 285.5l-135 519h-20l-132 -519q-34 -134 -73 -286.5t-74 -287.5h-281z" />
    <glyph glyph-name="X" unicode="X" horiz-adv-x="1380" 
d="M66 0q57 98 117 199t125 211l208 354v-62l-183 293q-63 102 -128 205.5t-141 225.5h270q55 -92 108 -179.5t101 -167.5l124 -205h20l120 207q47 80 98.5 168t102.5 177h262q-69 -115 -131.5 -219.5t-114.5 -193.5l-198 -331v68l204 -311q75 -115 143.5 -220.5
t142.5 -218.5h-278q-56 90 -106.5 170t-97.5 154l-153 244h-20l-143 -245q-46 -78 -91.5 -156t-97.5 -167h-263z" />
    <glyph glyph-name="Y" unicode="Y" horiz-adv-x="1325" 
d="M553 538l-305 538q-49 86 -94 166.5t-104 183.5h268q48 -91 82.5 -156.5t65 -124t67.5 -129.5l121 -230h22l118 223q40 74 72 135t67.5 127t83.5 155h261q-50 -89 -99.5 -177t-97.5 -172l-304 -539h-224zM548 0v227v242v265h235v-265v-242v-227h-235z" />
    <glyph glyph-name="Z" unicode="Z" horiz-adv-x="1354" 
d="M90 0v129q54 71 121.5 158.5t136 177t126.5 164.5l520 677l41 -78h-390h-256.5h-280.5v198h1141v-164q-89 -114 -174.5 -224.5t-171.5 -221.5l-546 -705l-27 87h355h190h205h178v-198h-1168z" />
    <glyph glyph-name="bracketleft" unicode="[" horiz-adv-x="770" 
d="M177 -238v226.5v241.5v832v246.5v229.5h553v-174h-136h-172h-140l92 139v-230v-247v-759v-241.5v-227.5l-80 138h140h156h143v-174h-556z" />
    <glyph glyph-name="backslash" unicode="\" horiz-adv-x="897" 
d="M639 0q-46 112 -89.5 216t-99.5 240l-203 492q-40 97 -73 176t-63 152t-62 150h209q48 -115 93 -223.5t103 -250.5l205 -496q57 -136 100 -240t89 -216h-209z" />
    <glyph glyph-name="bracketright" unicode="]" horiz-adv-x="770" 
d="M40 -238v174h136.5h171.5h140l-92 -139v231v246v759v242.5v226.5l80 -138h-140h-155.5h-143.5v174h556v-226v-242v-832v-245.5v-230.5h-553z" />
    <glyph glyph-name="asciicircum" unicode="^" horiz-adv-x="1234" 
d="M924 744q-74 112 -148.5 223.5t-148.5 222.5h-20q-73 -109 -147.5 -219.5t-147.5 -219.5h-200q94 156 187.5 311t187.5 311h260q94 -156 188.5 -313t186.5 -313z" />
    <glyph glyph-name="underscore" unicode="_" horiz-adv-x="824" 
d="M-20 -272v176h188h170h148h170h188v-176h-188h-170h-148h-170h-188z" />
    <glyph glyph-name="grave" unicode="`" horiz-adv-x="1200" 
d="M599 1146q-53 66 -107.5 133t-109 135t-110.5 136l229 6q66 -102 132 -203t132 -205z" />
    <glyph glyph-name="a" unicode="a" horiz-adv-x="1053" 
d="M390 -21q-85 0 -152 34.5t-105.5 100t-38.5 159.5q0 83 28.5 139.5t75.5 92.5t105 56t117 29l295 46q4 83 -24.5 127t-80 60t-116.5 16q-34 0 -73.5 -5t-83 -16.5t-91 -28t-97.5 -39.5l-12 190q37 15 83 29t99.5 25.5t110.5 17.5t116 6q118 0 202 -35t129 -111.5
t45 -198.5v-119v-132v-120v-144v-158h-193l-12 132h-19q-29 -37 -72.5 -72t-103 -58t-132.5 -23zM460 149q48 0 94.5 21.5t86.5 61.5t69 97v176q-15 -9 -38.5 -17t-70.5 -18t-132 -25q-49 -8 -84 -29t-54.5 -54.5t-19.5 -79.5q0 -73 44.5 -103t104.5 -30z" />
    <glyph glyph-name="b" unicode="b" horiz-adv-x="1184" 
d="M678 -24q-69 0 -125.5 18.5t-103 52.5t-84.5 83h-18l-21 -130h-172v211v225v551v244v233l214 23v-242.5v-257.5v-100h20q27 37 69.5 67.5t97 47.5t119.5 17q135 0 228.5 -68t142 -186t48.5 -265q0 -139 -45.5 -258.5t-137.5 -192.5t-232 -73zM605 163q93 0 153 47.5
t88 124t28 163.5q0 91 -29.5 166.5t-89.5 120.5t-153 45q-46 0 -89.5 -13.5t-80.5 -40t-64 -66.5v-404q26 -44 60 -76t78 -49.5t99 -17.5z" />
    <glyph glyph-name="c" unicode="c" horiz-adv-x="982" 
d="M602 -20q-164 0 -278.5 67.5t-174.5 184.5t-60 265q0 149 56.5 267t167 186t271.5 68q58 0 115.5 -9.5t108.5 -26t90 -38.5l-18 -190q-56 32 -104.5 49t-89.5 23.5t-75 6.5q-138 0 -221 -89.5t-83 -241.5q0 -98 38 -175t113.5 -122t187.5 -45q41 0 82 7.5t80.5 23
t76.5 39.5l15 -191q-34 -16 -78 -29.5t-99 -21.5t-121 -8z" />
    <glyph glyph-name="d" unicode="d" horiz-adv-x="1161" 
d="M506 -24q-140 0 -232.5 73t-138 192.5t-45.5 258.5q0 147 48.5 265t142.5 186t228 68q65 0 120 -17t97 -47t70 -68h20v100v243.5v233.5l214 23v-242.5v-257.5v-551v-225v-211h-184l-12 134h-18q-38 -51 -84.5 -86t-102.5 -53.5t-123 -18.5zM579 163q54 0 98 17.5
t78.5 49.5t60.5 76v404q-27 40 -64 66.5t-81 40t-90 13.5q-92 0 -152 -45t-90 -120.5t-30 -166.5q0 -87 28.5 -163.5t88 -124t153.5 -47.5z" />
    <glyph glyph-name="e" unicode="e" horiz-adv-x="1054" 
d="M621 -23q-183 0 -301 68t-174.5 186t-56.5 271q0 151 54.5 268t159.5 182.5t254 65.5q129 0 222 -48.5t143 -144.5t50 -238q0 -38 -1.5 -68.5t-6.5 -60.5l-187 82q2 15 3 29.5t1 27.5q0 123 -61.5 190.5t-160.5 67.5q-77 0 -134 -42t-88.5 -115t-31.5 -168v-32
q0 -106 36.5 -182t112 -117t190.5 -41q44 0 96.5 7.5t105.5 23.5t100 41l8 -186q-38 -20 -89 -35t-112.5 -23.5t-131.5 -8.5zM175 458v146l661 8l128 -53v-101h-789z" />
    <glyph glyph-name="f" unicode="f" horiz-adv-x="801" 
d="M224 0v211v225v100v128.5v142v150.5v155q0 111 30 184.5t82.5 116t120.5 61t144 18.5q39 0 76 -3.5t67 -10.5t50 -14l-17 -180q-34 12 -70.5 19t-75.5 7q-104 0 -152.5 -50t-48.5 -152v-62v-52l8 -42v-516v-225v-211h-214zM44 829v165h708v-165h-190h-186h-91h-241z" />
    <glyph glyph-name="g" unicode="g" horiz-adv-x="1089" 
d="M485 -407q-111 0 -186 19.5t-119.5 53t-63 75t-18.5 84.5q0 67 32 111.5t75 69.5t74 35v17q-16 5 -39.5 21.5t-42.5 47t-19 76.5q0 34 12.5 64t39 54.5t68.5 42.5v17q-25 10 -61 33t-70.5 60t-58 91t-23.5 127q0 95 47 169t137 115.5t218 41.5q50 0 88 -5t79 -10.5
t101 -5.5h295v-154h-186.5h-184.5l59 98q79 -42 115 -109t36 -153q0 -100 -41.5 -168.5t-114.5 -110.5t-168 -63q-97 -23 -143.5 -40.5t-46.5 -51.5q0 -24 20 -37t62 -19t110 -6h42q134 0 223 -21.5t133.5 -73.5t44.5 -142q0 -92 -46.5 -159t-124.5 -110t-170 -63.5
t-184 -20.5zM507 -240q101 0 168 26.5t100 62t33 62.5q0 32 -20 54t-75 33.5t-159 11.5h-35q-53 -2 -105 -19.5t-86.5 -47t-34.5 -67.5q0 -22 11.5 -43t37 -37.5t66.5 -26t99 -9.5zM478 486q31 5 68 15.5t70 30.5t54 52t21 79q0 63 -32 102.5t-79.5 58.5t-95.5 19
q-51 0 -96.5 -19t-75 -57t-29.5 -93q0 -54 28 -93t72.5 -63t94.5 -32z" />
    <glyph glyph-name="h" unicode="h" horiz-adv-x="1150" 
d="M154 0v211v225v551v243.5v233.5l214 23v-242v-258v-148h20q30 42 76 83.5t108 69t142 27.5q155 0 229.5 -90t74.5 -264v-117.5v-111.5v-223.5v-212.5h-214v211.5v213.5v178q0 108 -37 163t-136 55q-58 0 -106 -23.5t-87 -63t-70 -87.5v-222v-215.5v-209.5h-214z" />
    <glyph glyph-name="i" unicode="i" horiz-adv-x="530" 
d="M158 0v211v225v100v169v147v142l214 7v-144v-149v-172v-100v-225v-211h-214zM262 1196q-64 0 -103.5 33.5t-39.5 105.5q0 67 39.5 102t105.5 35q67 0 105.5 -36t38.5 -101q0 -72 -39 -105.5t-107 -33.5z" />
    <glyph glyph-name="j" unicode="j" horiz-adv-x="526" 
d="M0 -391q56 64 91 131.5t51 147t16 178.5v370v100v169v147v142l214 7v-144v-149v-172v-195.5v-157.5v-143q0 -75 -10.5 -138t-30.5 -115.5t-48.5 -95t-64.5 -75.5zM263 1196q-64 0 -103.5 33.5t-39.5 105.5q0 67 39.5 102t105.5 35q67 0 105.5 -36t38.5 -101
q0 -72 -39 -105.5t-107 -33.5z" />
    <glyph glyph-name="k" unicode="k" horiz-adv-x="1108" 
d="M805 0q-59 66 -118.5 131.5t-118.5 129.5l-150 165h-72v148h80l128 148q59 68 118 136.5t117 135.5h256q-81 -88 -161 -176t-159 -176l-159 -173l-8 99l188 -213q82 -89 165 -178t164 -177h-270zM154 0v211v225v551v243.5v233.5l214 23v-242v-258v-589v-202v-196h-214z
" />
    <glyph glyph-name="l" unicode="l" horiz-adv-x="522" 
d="M154 0v211v225v551v244v233l214 23v-242.5v-257.5v-551v-225v-211h-214z" />
    <glyph glyph-name="m" unicode="m" horiz-adv-x="1745" 
d="M154 0v211v225v100v226.5v231.5l183 12l8 -179h21q32 46 79 90t110.5 73t144.5 29q120 0 184.5 -59.5t84.5 -170.5l14 -5q5 -27 7.5 -56.5t2.5 -62.5v-117.5v-111.5v-223.5v-212.5h-213v211.5v213.5v178q0 108 -35.5 163t-128.5 55q-55 0 -100 -24t-82 -63.5t-66 -86.5
v-222v-215.5v-209.5h-214zM1399 0v211.5v213.5v178q0 108 -35.5 163t-127.5 55q-55 0 -100.5 -23.5t-82.5 -63t-67 -87.5l-31 177h21q35 47 83.5 92t113.5 74t147 29q153 0 223 -92t70 -262v-117.5v-111.5v-223.5v-212.5h-214z" />
    <glyph glyph-name="n" unicode="n" horiz-adv-x="1150" 
d="M154 0v211v225v100v226.5v231.5l183 12l8 -180h21q32 46 81.5 90.5t115.5 73.5t151 29q155 0 229.5 -90t74.5 -264v-117.5v-111.5v-223.5v-212.5h-214v211.5v213.5v178q0 108 -37 163t-136 55q-58 0 -106 -23.5t-87 -63t-70 -87.5v-222v-215.5v-209.5h-214z" />
    <glyph glyph-name="o" unicode="o" horiz-adv-x="1195" 
d="M602 -24q-128 0 -224 43t-160.5 116.5t-96.5 168t-32 198.5q0 149 60 265.5t174 184t275 67.5q123 0 218 -39t159.5 -109.5t97.5 -164.5t33 -204q0 -149 -60 -268t-173.5 -188.5t-270.5 -69.5zM601 156q96 0 160 49.5t95.5 128.5t31.5 168q0 103 -35.5 178.5t-100 117
t-152.5 41.5q-95 0 -160.5 -44.5t-99 -121t-33.5 -171.5q0 -89 32.5 -168t98 -128.5t163.5 -49.5z" />
    <glyph glyph-name="p" unicode="p" horiz-adv-x="1184" 
d="M154 -391v214.5v228.5v484v226.5v231.5l192 12l6 -132h20q29 42 74 75t102.5 51.5t125.5 18.5q135 0 228.5 -68t142 -186t48.5 -265q0 -139 -45.5 -258.5t-137.5 -192.5t-232 -73q-65 0 -118.5 17t-97 49t-78.5 77h-16v-78v-215.5v-209.5zM605 163q93 0 153 47.5t88 124
t28 163.5q0 91 -29.5 166.5t-89.5 120.5t-153 45q-46 0 -89.5 -13.5t-80.5 -40t-64 -66.5v-404q26 -44 60 -76t78 -49.5t99 -17.5z" />
    <glyph glyph-name="q" unicode="q" horiz-adv-x="1172" 
d="M816 -391v213v219v79h-16q-36 -45 -80 -77t-97 -49.5t-117 -17.5q-140 0 -232.5 73t-138 192.5t-45.5 258.5q0 147 48.5 265t142.5 186t228 68q69 0 126.5 -18.5t102 -51.5t74.5 -75h20l6 120l192 12v-233.5v-236.5v-484v-225v-211zM579 163q54 0 98 17.5t78.5 49.5
t60.5 76v404q-27 40 -64 66.5t-81 40t-90 13.5q-92 0 -152 -45t-90 -120.5t-30 -166.5q0 -87 28.5 -163.5t88 -124t153.5 -47.5z" />
    <glyph glyph-name="r" unicode="r" horiz-adv-x="808" 
d="M154 0v211v225v100v226.5v231.5l183 12l8 -196h20q40 88 91 133t104 60.5t99 15.5q26 0 54 -4t53 -13l-19 -212q-35 6 -63 9t-64 3q-28 0 -62 -7.5t-68.5 -30.5t-66 -68.5t-55.5 -119.5v-151v-215.5v-209.5h-214z" />
    <glyph glyph-name="s" unicode="s" horiz-adv-x="918" 
d="M449 -23q-65 0 -128.5 9t-119 25.5t-97.5 36.5l16 194q45 -26 98 -45.5t110.5 -30t115.5 -10.5q48 0 88.5 9.5t65 36.5t24.5 80q0 35 -23 58t-75 41.5t-142 43.5q-83 22 -144.5 55t-95.5 88t-34 145q0 145 93 225t249 80q66 0 128 -10.5t113.5 -27t87.5 -34.5l-17 -194
q-46 29 -99.5 48.5t-102.5 29t-83 9.5q-39 0 -73.5 -10.5t-55.5 -36t-21 -68.5q0 -34 16 -58t58.5 -44t123.5 -42q101 -29 171.5 -61t106.5 -84t36 -144t-40 -163t-126 -111t-224 -40z" />
    <glyph glyph-name="t" unicode="t" horiz-adv-x="829" 
d="M548 -24q-103 0 -175.5 34t-110 106t-37.5 186v158.5v159v158.5v158v196v185l211 42v-141v-132.5v-149.5v-575q0 -102 41 -153.5t128 -51.5q36 0 77.5 12.5t76.5 38.5l15 -180q-23 -15 -58.5 -26.5t-79 -18t-88.5 -6.5zM44 829v165h722v-165h-197h-193h-91h-241z" />
    <glyph glyph-name="u" unicode="u" horiz-adv-x="1126" 
d="M436 -24q-155 0 -229.5 90.5t-74.5 264.5v115v98v167v143v140l214 8v-214v-220v-180q0 -107 37.5 -162t135.5 -55q55 0 102 23.5t85.5 63t69.5 87.5v223v216.5v209.5h214v-212.5v-237.5v-108v-225v-211h-183l-8 170h-21q-32 -47 -81 -91.5t-114 -73.5t-147 -29z" />
    <glyph glyph-name="v" unicode="v" horiz-adv-x="1048" 
d="M406 0q-34 93 -68.5 189t-68.5 187l-65 176q-40 110 -81 221.5t-81 220.5l230 8q38 -118 74.5 -235t74.5 -236l95 -299h20l95 300q38 121 75 235.5t72 226.5h228q-40 -110 -81 -221.5t-81 -222.5l-65 -178q-34 -94 -67.5 -186t-68.5 -186h-237z" />
    <glyph glyph-name="w" unicode="w" horiz-adv-x="1623" 
d="M361 0l-60 188t-61 190l-57 177q-36 111 -70.5 219.5t-70.5 219.5l227 8q32 -116 68 -243t68 -243l82 -291h18l79 297q32 118 63.5 235t63.5 237h203q32 -114 64.5 -233.5t63.5 -236.5l82 -299h18l83 304q31 114 65 238t62 227h229q-35 -110 -70.5 -219.5t-70.5 -219.5
l-56 -175q-31 -96 -61.5 -192t-60.5 -188h-246q-30 106 -63 219.5t-63 217.5l-77 265h-19l-75 -269q-29 -102 -60.5 -214.5t-61.5 -218.5h-236z" />
    <glyph glyph-name="x" unicode="x" horiz-adv-x="1090" 
d="M51 0q43 68 75 118.5t60.5 95.5t61.5 96l144 227l1 -54l-142 213q-33 51 -63 95t-62 92.5t-74 110.5l240 8q42 -66 74.5 -120.5t69.5 -115.5l93 -152h17l93 152q35 60 66.5 112.5t70.5 115.5h243q-44 -65 -75.5 -111.5t-60 -88t-63.5 -91.5l-146 -215l-10 51l163 -231
q51 -73 99 -141t117 -167h-257q-39 61 -70.5 111t-70.5 111l-106 168h-17l-95 -160q-38 -63 -68.5 -114.5t-69.5 -115.5h-238z" />
    <glyph glyph-name="y" unicode="y" horiz-adv-x="1058" 
d="M253 -391q40 100 81 202t81 201v-47q-37 103 -75 207.5l-74 203.5l-65 181q-39 107 -79.5 219t-79.5 218l230 8q38 -122 74 -238t73 -237l92 -301h20l101 302q40 118 78.5 233.5t78.5 232.5h227q-31 -80 -60.5 -154.5t-64.5 -164.5t-84 -215l-110 -280
q-74 -190 -126 -323t-95 -241z" />
    <glyph glyph-name="z" unicode="z" horiz-adv-x="1007" 
d="M72 0v105q81 106 158.5 207.5t146.5 191.5l301 394l28 -70h-210h-122h-149h-147v166h831v-123q-37 -49 -86 -112.5t-101 -131t-100 -129.5l-295 -385l-22 54h230h122.5h144.5h138v-167h-868z" />
    <glyph glyph-name="braceleft" unicode="{" horiz-adv-x="838" 
d="M618 -238q-107 0 -184 34.5t-118.5 101.5t-41.5 163v64v63.5v63.5v63.5v64.5q0 68 -24.5 110t-64.5 61.5t-87 19.5h-70v157h70q47 0 87 19.5t64.5 61.5t24.5 110v64v64v64v64v64q0 144 92 221.5t252 77.5h180v-174h-85.5h-64.5q-87 0 -131.5 -40.5t-44.5 -119.5v-279
q0 -78 -20 -128.5t-58.5 -82t-92.5 -54.5v-20q54 -23 92.5 -55.5t58.5 -82.5t20 -128v-278q0 -78 44.5 -119t131.5 -41h64.5h89.5v-174h-184z" />
    <glyph glyph-name="bar" unicode="|" horiz-adv-x="542" 
d="M177 -316v172.5v164v160.5v161v564v161v160.5v164.5v172h188v-172v-164.5v-160.5v-161v-564v-161v-160.5v-164v-172.5h-188z" />
    <glyph glyph-name="braceright" unicode="}" horiz-adv-x="838" 
d="M40 -238v174h86h65q86 0 131 41t45 119v279q0 78 20 128.5t58 82t92 54.5v20q-54 23 -92 55.5t-58 82.5t-20 128v278q0 79 -45 119.5t-131 40.5h-64.5h-90.5v174h184q107 0 184 -34.5t118.5 -101.5t41.5 -163v-64v-63.5v-63.5v-63.5v-64.5q0 -68 24.5 -110t64.5 -61.5
t87 -19.5h70v-157h-70q-47 0 -87 -19.5t-64.5 -61.5t-24.5 -110v-64v-64v-64v-64v-64q0 -144 -91.5 -221.5t-252.5 -77.5h-180z" />
    <glyph glyph-name="asciitilde" unicode="~" horiz-adv-x="1144" 
d="M799 431q-69 0 -128 23.5t-110 54.5t-96.5 54t-89.5 23q-52 0 -86.5 -30.5t-37.5 -91.5h-135q0 146 66 228t171 82q68 0 125.5 -23.5t108 -54.5t96.5 -54.5t91 -23.5q52 0 84 31t35 92h135q0 -147 -64 -228.5t-165 -81.5z" />
    <glyph glyph-name="uni00A0" unicode="&#xa0;" horiz-adv-x="382" 
 />
    <glyph glyph-name="exclamdown" unicode="&#xa1;" horiz-adv-x="493" 
d="M121 -396q11 238 21 479t15 483l175 3q5 -243 15 -482t21 -475zM246 804q-47 0 -81 19.5t-52.5 53t-18.5 76.5q0 66 41.5 106.5t111.5 40.5q47 0 81 -18.5t52 -51.5t18 -77q0 -65 -40 -107t-112 -42z" />
    <glyph glyph-name="cent" unicode="&#xa2;" horiz-adv-x="982" 
d="M488 -274v172.5v164v160.5v161v208v161v160.5v164.5v172h155v-172v-164.5v-160.5v-161v-208v-161.5v-161.5v-164v-171h-155zM602 -20q-164 0 -278.5 67.5t-174.5 184.5t-60 265q0 149 56.5 267t167 186t271.5 68q58 0 115.5 -9.5t108.5 -26t90 -38.5l-18 -190
q-56 32 -104.5 49t-89.5 23.5t-75 6.5q-138 0 -221 -89.5t-83 -241.5q0 -98 38 -175t113.5 -122t187.5 -45q41 0 81.5 7.5t80.5 23t77 39.5l15 -191q-34 -16 -78 -29.5t-99 -21.5t-121 -8z" />
    <glyph glyph-name="sterling" unicode="&#xa3;" horiz-adv-x="1193" 
d="M118 0v121q62 53 95 110.5t44.5 117t11.5 118.5v214.5v213.5q0 251 125 378t363 127q59 0 117 -9.5t109 -26t90 -38.5l-21 -194q-58 31 -108.5 47.5t-92.5 22t-77 5.5q-138 0 -209 -78t-71 -244v-358q0 -70 -15.5 -133.5t-57.5 -124t-123 -120.5l-18 47h279h223h179h166
v-196h-1009zM114 668v154h188h170h71h171h188v-154h-188h-171h-71h-170h-188z" />
    <glyph glyph-name="currency" unicode="&#xa4;" horiz-adv-x="1267" 
d="M630 218q-94 0 -173 28t-137 82.5t-90 133.5t-32 180q0 125 56 220t154.5 148.5t225.5 53.5q94 0 173.5 -31t137.5 -87.5t90 -133.5t32 -170q0 -135 -56.5 -230t-155 -144.5t-225.5 -49.5zM215 87l-136 135q69 70 133.5 134t119.5 120l136 -136l-120 -120zM631 397
q103 0 172.5 60t69.5 184q0 75 -31.5 130t-85.5 84.5t-122 29.5q-69 0 -123.5 -29t-86.5 -84t-32 -131q0 -83 31.5 -137t86 -80.5t121.5 -26.5zM334 808q-56 57 -120 121l-133 133l132 132q69 -68 133.5 -132.5t119.5 -120.5zM1054 88q-68 70 -132.5 134t-120.5 120l132 132
q57 -56 121 -120t132 -133zM935 807l-136 135l121 121t132 133l136 -136l-132.5 -132.5z" />
    <glyph glyph-name="yen" unicode="&#xa5;" horiz-adv-x="1267" 
d="M528 522l-290 516q-27 49 -52 93.5t-57 101t-79 140.5h256q46 -88 78 -150t61 -118t65 -124l114 -222h22l117 224q35 67 64.5 123.5t62.5 119t78 147.5h249q-45 -81 -93 -167.5t-94 -167.5l-288 -516h-214zM523 0v218v232v254h225v-254v-232v-218h-225zM153 267v138
h188.5h170.5h247h170.5h187.5v-138h-187.5h-170.5h-247h-170.5h-188.5zM153 566v138h188.5h170.5h247h170.5h187.5v-138h-187.5h-170.5h-247h-170.5h-188.5z" />
    <glyph glyph-name="brokenbar" unicode="&#xa6;" horiz-adv-x="542" 
d="M177 724v182v161v160.5v164.5v172h188v-172v-164.5v-160.5v-161v-182h-188zM177 -316v172.5v164v160.5v161v182h188v-182v-161v-160.5v-164v-172.5h-188z" />
    <glyph glyph-name="section" unicode="&#xa7;" horiz-adv-x="1117" 
d="M493 -254q-79 0 -155.5 11.5t-143 32t-115.5 47.5l16 190q55 -33 118.5 -56.5t130 -37t130.5 -13.5q68 0 123 15.5t87.5 54t32.5 106.5q0 52 -28.5 84t-95 58t-178.5 61q-105 32 -178 75.5t-112 105.5t-39 149q0 75 30.5 140.5t89.5 114t145 72.5l113 -128
q-40 -7 -76 -31.5t-59 -62.5t-23 -89q0 -54 25.5 -90.5t80 -64t144.5 -53.5q122 -36 206.5 -76t128 -103t43.5 -165q0 -99 -45.5 -177.5t-143 -124t-252.5 -45.5zM799 253l-120 116q67 18 109 69.5t42 123.5q0 56 -28.5 93t-94.5 65.5t-179 60.5q-96 27 -170.5 68.5
t-117 106.5t-42.5 160q0 153 105 245t290 92q76 0 147 -12t131 -32.5t105 -43.5l-16 -190q-60 40 -119 62.5t-112 32t-94 9.5q-33 0 -70.5 -7t-70.5 -25t-54 -51t-21 -84q0 -45 25.5 -78.5t80.5 -60.5t144 -53q123 -35 207 -78t128 -104t44 -153q0 -111 -60 -198t-189 -134z
" />
    <glyph glyph-name="dieresis" unicode="&#xa8;" horiz-adv-x="1200" 
d="M814 1184q-57 0 -91.5 33t-34.5 99q0 62 35 97t93 35q59 0 92.5 -36.5t33.5 -95.5q0 -66 -33.5 -99t-94.5 -33zM379 1184q-57 0 -91.5 33t-34.5 99q0 62 35 97t93 35q59 0 92.5 -36.5t33.5 -95.5q0 -66 -34 -99t-94 -33z" />
    <glyph glyph-name="copyright" unicode="&#xa9;" horiz-adv-x="1624" 
d="M819 -24q-184 0 -320.5 57t-227 156t-135.5 227.5t-45 271.5q0 200 83.5 361.5t244.5 256t393 94.5q235 0 396 -95.5t243 -257t82 -358.5q0 -205 -84.5 -365.5t-244 -254t-385.5 -93.5zM839 311q-120 0 -203.5 49.5t-127 134.5t-43.5 193q0 107 41.5 192.5t122 135.5
t196.5 50q42 0 84 -6.5t79.5 -19t65.5 -28.5l-13 -147q-61 37 -110.5 48t-86.5 11q-93 0 -152.5 -60.5t-59.5 -171.5q0 -110 61.5 -176t176.5 -66q46 0 89 12.5t84 38.5l12 -146q-24 -12 -56.5 -22t-72.5 -16t-87 -6zM818 105q181 0 311 73t199.5 204t69.5 307
q0 173 -68.5 304.5t-199.5 204.5t-317 73q-185 0 -316 -73.5t-201 -205t-70 -304.5q0 -172 68 -303t200 -205.5t324 -74.5z" />
    <glyph glyph-name="ordfeminine" unicode="&#xaa;" horiz-adv-x="798" 
d="M293 663q-106 0 -162 59.5t-56 148.5q0 64 22.5 109.5t58 75t77 46.5t79.5 24l235 47q3 55 -17.5 85.5t-59.5 42.5t-91 12q-33 0 -73.5 -6.5t-88 -22t-99.5 -41.5l-9 152q29 12 64 22t76 18.5t84 13t87 4.5q127 0 201.5 -62t74.5 -202v-89v-99v-81v-113v-128h-138l-9 118
h-14q-23 -37 -59.5 -67.5t-83 -48.5t-99.5 -18zM357 796q34 0 68.5 13t65 39.5t52.5 68.5l1 166q-12 -7 -29 -14t-49.5 -15.5t-89.5 -21.5q-36 -7 -69 -21.5t-54.5 -40t-21.5 -65.5q0 -58 36.5 -83.5t89.5 -25.5z" />
    <glyph glyph-name="guillemotleft" unicode="&#xab;" horiz-adv-x="1192" 
d="M907 -4q-92 127 -183 254t-183 254q92 128 183 255t183 254l213 -13q-88 -122 -175.5 -244t-175.5 -244v-20q88 -121 175.5 -242t175.5 -243zM420 -4q-92 127 -183 254t-183 254q92 128 183 255t183 254l213 -13q-88 -122 -175.5 -244t-175.5 -244v-20
q88 -121 175.5 -242t175.5 -243z" />
    <glyph glyph-name="logicalnot" unicode="&#xac;" horiz-adv-x="1144" 
d="M835 307v188.5v170.5v168l157 -133h-169h-153h-196h-170h-188v188h188h170h196h170h188v-223v-170.5v-188.5h-193z" />
    <glyph glyph-name="uni00AD" unicode="&#xad;" horiz-adv-x="848" 
d="M116 503v188h162h146h146.5h161.5v-188h-161.5h-146.5h-146h-162z" />
    <glyph glyph-name="registered" unicode="&#xae;" horiz-adv-x="1145" 
d="M577 499q-174 0 -286.5 69.5t-167.5 182.5t-55 245q0 139 57 251.5t169 178.5t277 66q167 0 279.5 -67t169.5 -179.5t57 -249.5q0 -142 -58.5 -254.5t-170.5 -177.5t-271 -65zM369 725v92v96v192v97.5v92.5l104 -16v-89v-93v-184v-96v-92h-104zM576 582q133 0 224.5 53
t139 146t47.5 215q0 120 -46 213t-138.5 147t-230.5 54q-137 0 -229.5 -53.5t-139 -147t-46.5 -213.5q0 -88 25.5 -163.5t77 -131.5t131 -87.5t185.5 -31.5zM709 725q-26 38 -50 72t-47 67l-90 129l64 -40h-133v74h97q56 0 90.5 21t34.5 77q0 40 -18 58t-42.5 22t-43.5 4
h-131l-71 86h88h118q98 0 153.5 -37t55.5 -123q0 -71 -43.5 -121t-150.5 -50l40 40l83 -114q31 -42 63.5 -87t55.5 -78h-123z" />
    <glyph glyph-name="macron" unicode="&#xaf;" horiz-adv-x="1200" 
d="M276 1230v162h154.5h169.5h170h154v-162h-154h-170h-169.5h-154.5z" />
    <glyph glyph-name="degree" unicode="&#xb0;" horiz-adv-x="979" 
d="M489 618q-122 0 -216.5 47.5t-147.5 135.5t-53 208q0 111 53.5 199.5t148 140t217.5 51.5t216.5 -51.5t146.5 -140t53 -199.5q0 -120 -53 -208t-147 -135.5t-218 -47.5zM489 775q110 0 173 62t63 170q0 67 -28.5 120.5t-81 85t-124.5 31.5q-109 0 -173 -67t-64 -170
q0 -72 28.5 -124t81.5 -80t125 -28z" />
    <glyph glyph-name="plusminus" unicode="&#xb1;" horiz-adv-x="1144" 
d="M116 0v188h188h170h196h170h188v-188h-188h-170h-196h-170h-188zM116 723v188h188h170h196h170h188v-188h-188h-170h-196h-170h-188zM476 345v188v170v227v171v188h192v-188v-171v-227v-170v-188h-192z" />
    <glyph glyph-name="uni00B2" unicode="&#xb2;" horiz-adv-x="816" 
d="M68 602v116q41 33 82.5 66.5t82.5 66.5q97 78 166 143.5t105 126.5t36 124q0 74 -43.5 111.5t-134.5 37.5q-44 0 -91.5 -11.5t-96 -33t-95.5 -51.5l-16 168q32 16 71 30t82.5 24.5t89.5 17t92 6.5q103 0 175.5 -33.5t110 -94.5t37.5 -146q0 -73 -33.5 -144.5t-102 -144.5
t-171.5 -151l-150 -113l-25 37h147h176h174v-152h-668z" />
    <glyph glyph-name="uni00B3" unicode="&#xb3;" horiz-adv-x="839" 
d="M404 583q-48 0 -95 5t-91.5 15t-83 23.5t-69.5 28.5l15 157q38 -20 77.5 -35.5t78 -26t76 -16t72.5 -5.5q109 0 155 40t46 103q0 72 -62.5 109.5t-177.5 37.5h-52h-51v115h46.5h47.5q113 0 166.5 39.5t53.5 102.5q0 62 -47.5 92t-126.5 30q-46 0 -93.5 -11.5t-95 -32
t-93.5 -48.5l-15 160q31 16 69 29.5t80 24.5t87 17.5t90 6.5q100 0 173 -28.5t112.5 -81.5t39.5 -124q0 -85 -54 -138.5t-128 -69.5v-14q51 -9 99.5 -37t80.5 -77t32 -122q0 -116 -89 -192.5t-273 -76.5z" />
    <glyph glyph-name="acute" unicode="&#xb4;" horiz-adv-x="1200" 
d="M435 1146q66 101 132 202.5t131 201.5l230 6q-56 -70 -111 -138.5t-108.5 -135.5t-107.5 -134z" />
    <glyph glyph-name="uni00B5" unicode="&#xb5;" horiz-adv-x="1154" 
d="M154 -391v214.5v228.5v492v167v143v140l214 8v-143.5v-142.5v-148v-180q0 -107 37.5 -162t135.5 -55q55 0 102 23.5t85.5 63t69.5 87.5v223v216.5v209.5h214v-142v-145v-163v-212v-155.5v-176.5h-182q-3 42 -6 85.5t-6 85.5h-21q-28 -47 -72 -91.5t-102.5 -74
t-132.5 -29.5q-73 0 -124.5 25.5t-83.5 78.5h86v-39v-215.5v-209.5z" />
    <glyph glyph-name="paragraph" unicode="&#xb6;" horiz-adv-x="1118" 
d="M440 587q-123 0 -208 59t-128.5 156t-43.5 211q0 120 46.5 213.5t132 146.5t201.5 53h41v-839h-41zM447 -350v336.5v321.5v460v321.5v336.5h140v-336.5v-321.5v-460v-321.5v-336.5h-140zM755 -350v336.5v321.5v460v321.5v336.5h140v-336.5v-321.5v-460v-321.5v-336.5
h-140zM512 1294v132h195h171h188v-132h-188h-171h-195z" />
    <glyph glyph-name="periodcentered" unicode="&#xb7;" horiz-adv-x="493" 
d="M246 482q-47 0 -81 19.5t-52.5 53t-18.5 77.5q0 66 41.5 106t111.5 40q47 0 81 -18.5t52 -51.5t18 -76q0 -65 -40 -107.5t-112 -42.5z" />
    <glyph glyph-name="cedilla" unicode="&#xb8;" horiz-adv-x="1200" 
d="M548 -434q-23 0 -47 2t-45 5.5t-36 8.5v128q13 -5 39.5 -9.5t58.5 -4.5q65 0 91.5 21.5t26.5 54.5q0 19 -13 37t-47 32.5t-98 22.5l76 179h118v-43l-48 -109q71 -11 111 -34.5t56 -55t16 -67.5q0 -47 -25 -85t-82 -60.5t-152 -22.5z" />
    <glyph glyph-name="uni00B9" unicode="&#xb9;" horiz-adv-x="649" 
d="M82 1212l-40 137q96 46 188 90l184 88l-6 -158q-73 -35 -154 -74t-172 -83zM323 602v141.5v151.5v272v142.5v140.5l91 77l83 -5v-159v-163v-305v-151.5v-141.5h-174z" />
    <glyph glyph-name="ordmasculine" unicode="&#xba;" horiz-adv-x="914" 
d="M460 661q-129 0 -216 56t-130.5 147t-43.5 197q0 113 46 201.5t132 139.5t208 51q126 0 212.5 -52t131 -140.5t44.5 -199.5q0 -113 -46 -203.5t-132 -143.5t-206 -53zM459 800q73 0 121 37.5t72 97t24 126.5q0 115 -59 184t-158 69q-72 0 -121.5 -33.5t-75 -91
t-25.5 -128.5q0 -67 25 -127t74 -97t123 -37z" />
    <glyph glyph-name="guillemotright" unicode="&#xbb;" horiz-adv-x="1192" 
d="M772 -4l-213 13l176 244l176 244v20q-88 121 -176 242.5t-176 242.5l213 11q92 -127 183.5 -254t182.5 -255q-91 -127 -182.5 -254t-183.5 -254zM285 -4l-213 13q88 122 175.5 244t176.5 244v20q-89 121 -176.5 242.5t-175.5 242.5l213 11q92 -127 183 -254t183 -255
q-92 -127 -183 -254t-183 -254z" />
    <glyph glyph-name="onequarter" unicode="&#xbc;" horiz-adv-x="1928" 
d="M82 1116l-40 137q96 46 188 90l184 88l-6 -158q-73 -35 -154 -74t-172 -83zM323 506v141.5v151.5v272v142.5v140.5l91 77l83 -5v-159v-163v-305v-151.5v-141.5h-174zM457 0q60 110 116.5 216t129.5 243l267 495q51 94 93 172.5t81 151t80 148.5h210q-41 -76 -80 -148.5
t-81 -151t-92 -172.5l-267 -495q-73 -137 -130 -243t-117 -216h-210zM1550 0v123v137l17 26v278v139.5v139.5l117 61q-38 -51 -75.5 -101t-75.5 -101l-165 -218q-34 -46 -66.5 -88.5t-65.5 -86.5l-5 22h366l21 16h137.5h130.5v-151h-130.5h-137.5h-524v115q27 35 63 82.5
t73.5 98t69.5 91.5l120 161q34 44 68 88.5t66 87.5h170v-164.5v-160.5v-335v-137v-123h-174z" />
    <glyph glyph-name="onehalf" unicode="&#xbd;" horiz-adv-x="2058" 
d="M82 1116l-40 137q96 46 188 90l184 88l-6 -158q-73 -35 -154 -74t-172 -83zM323 506v141.5v151.5v272v142.5v140.5l91 77l83 -5v-159v-163v-305v-151.5v-141.5h-174zM457 0q60 110 116.5 216t129.5 243l267 495q51 94 93 172.5t81 151t80 148.5h210q-41 -76 -80 -148.5
t-81 -151t-92 -172.5l-267 -495q-73 -137 -130 -243t-117 -216h-210zM1310 0v116q41 33 82.5 66.5t82.5 66.5q97 78 166 143.5t105 126.5t36 124q0 74 -43.5 111.5t-134.5 37.5q-44 0 -91.5 -11.5t-96 -33t-95.5 -51.5l-16 168q32 16 71 30t82.5 24.5t89.5 17t92 6.5
q103 0 175.5 -33.5t110 -94.5t37.5 -146q0 -73 -33.5 -144.5t-102 -144.5t-171.5 -151l-150 -113l-25 37h147h176h174v-152h-668z" />
    <glyph glyph-name="threequarters" unicode="&#xbe;" horiz-adv-x="2042" 
d="M404 487q-48 0 -95 5t-91.5 15t-83 23.5t-69.5 28.5l15 157q38 -20 77.5 -35.5t78 -26t76 -16t72.5 -5.5q109 0 155 40t46 103q0 72 -62.5 109.5t-177.5 37.5h-52h-51v115h46.5h47.5q113 0 166.5 39.5t53.5 102.5q0 62 -47.5 92t-126.5 30q-46 0 -93.5 -11.5t-95 -32
t-93.5 -48.5l-15 160q31 16 69 29.5t80 24.5t87 17.5t90 6.5q100 0 173 -28.5t112.5 -81.5t39.5 -124q0 -85 -54 -138.5t-128 -69.5v-14q51 -9 99.5 -37t80.5 -77t32 -122q0 -116 -89 -192.5t-273 -76.5zM571 0q60 110 116.5 216t129.5 243l267 495q51 94 93 172.5t81 151
t80 148.5h210q-41 -76 -80 -148.5t-81 -151t-92 -172.5l-267 -495q-73 -137 -130 -243t-117 -216h-210zM1664 0v123v137l17 26v278v139.5v139.5l117 61q-38 -51 -75.5 -101t-75.5 -101l-165 -218q-34 -46 -66.5 -88.5t-65.5 -86.5l-5 22h366l21 16h137.5h130.5v-151h-130.5
h-137.5h-524v115q27 35 63 82.5t73.5 98t69.5 91.5l120 161q34 44 68 88.5t66 87.5h170v-164.5v-160.5v-335v-137v-123h-174z" />
    <glyph glyph-name="questiondown" unicode="&#xbf;" horiz-adv-x="812" 
d="M452 -422q-112 0 -193 31.5t-125 95t-44 159.5q0 95 39.5 163t97.5 118.5t114 91.5q61 44 106 86t45 93q0 56 -35.5 77.5t-82.5 21.5q-33 0 -62 -7.5t-50 -17.5l-8 107q19 7 47.5 13.5t62 11t68.5 4.5q125 0 188.5 -54t63.5 -144q0 -65 -29 -113.5t-75 -88t-98 -76.5
q-46 -34 -88 -69.5t-69 -78t-27 -96.5q0 -70 52 -108t145 -38q45 0 93 9t97.5 26.5t99.5 43.5l11 -186q-28 -11 -65 -24t-81 -24.5t-94 -19t-104 -7.5zM466 804q-46 0 -80 19.5t-52.5 53t-18.5 76.5q0 66 41 106.5t111 40.5q47 0 81 -18.5t52.5 -51.5t18.5 -77
q0 -65 -40.5 -107t-112.5 -42z" />
    <glyph glyph-name="Agrave" unicode="&#xc0;" horiz-adv-x="1401" 
d="M53 0q40 115 84 242t85 241l170 490q47 132 84 238.5t75 214.5h305q39 -111 75.5 -217t82.5 -237l169 -491q41 -118 84.5 -242.5t82.5 -238.5h-244q-39 121 -80 248.5t-78 241.5l-236 730h-20l-239 -723q-39 -118 -81 -247t-82 -250h-237zM346 336l22 180h692l18 -180
h-732zM700 1565q-53 61 -107 121t-108.5 122t-111.5 126l229 4q66 -93 132 -185t132 -185z" />
    <glyph glyph-name="Aacute" unicode="&#xc1;" horiz-adv-x="1401" 
d="M53 0q40 115 84 242t85 241l170 490q47 132 84 238.5t75 214.5h305q39 -111 75.5 -217t82.5 -237l169 -491q41 -118 84.5 -242.5t82.5 -238.5h-244q-39 121 -80 248.5t-78 241.5l-236 730h-20l-239 -723q-39 -118 -81 -247t-82 -250h-237zM346 336l22 180h692l18 -180
h-732zM536 1565q67 93 132.5 185t130.5 184l230 4q-56 -64 -110.5 -126t-109 -123t-107.5 -121z" />
    <glyph glyph-name="Acircumflex" unicode="&#xc2;" horiz-adv-x="1401" 
d="M53 0q40 115 84 242t85 241l170 490q47 132 84 238.5t75 214.5h305q39 -111 75.5 -217t82.5 -237l169 -491q41 -118 84.5 -242.5t82.5 -238.5h-244q-39 121 -80 248.5t-78 241.5l-236 730h-20l-239 -723q-39 -118 -81 -247t-82 -250h-237zM346 336l22 180h692l18 -180
h-732zM911 1563q-60 72 -120 142.5t-121 143.5h58q-61 -72 -120 -141.5t-119 -140.5h-166q65 91 131 183t132 185h227q65 -93 131 -185.5t131 -183.5z" />
    <glyph glyph-name="Atilde" unicode="&#xc3;" horiz-adv-x="1401" 
d="M53 0q40 115 84 242t85 241l170 490q47 132 84 238.5t75 214.5h305q39 -111 75.5 -217t82.5 -237l169 -491q41 -118 84.5 -242.5t82.5 -238.5h-244q-39 121 -80 248.5t-78 241.5l-236 730h-20l-239 -723q-39 -118 -81 -247t-82 -250h-237zM346 336l22 180h692l18 -180
h-732zM873 1556q-61 0 -105.5 25t-80 58t-66.5 58t-64 25q-54 0 -76 -36t-26 -97h-121q0 141 54.5 216t147.5 75q60 0 103.5 -25t78 -58t66 -58t65.5 -25q53 0 74 37t24 97h121q0 -141 -52.5 -216.5t-142.5 -75.5z" />
    <glyph glyph-name="Adieresis" unicode="&#xc4;" horiz-adv-x="1401" 
d="M53 0q40 115 84 242t85 241l170 490q47 132 84 238.5t75 214.5h305q39 -111 75.5 -217t82.5 -237l169 -491q41 -118 84.5 -242.5t82.5 -238.5h-244q-39 121 -80 248.5t-78 241.5l-236 730h-20l-239 -723q-39 -118 -81 -247t-82 -250h-237zM346 336l22 180h692l18 -180
h-732zM917 1604q-57 0 -91.5 33t-34.5 99q0 62 35 96.5t93 34.5q59 0 92.5 -36t33.5 -95q0 -66 -33.5 -99t-94.5 -33zM482 1604q-57 0 -91.5 33t-34.5 99q0 62 35 96.5t93 34.5q59 0 92.5 -36t33.5 -95q0 -66 -34 -99t-94 -33z" />
    <glyph glyph-name="Aring" unicode="&#xc5;" horiz-adv-x="1401" 
d="M53 0q40 115 84 242t85 241l170 490q47 132 84 238.5t75 214.5h305q39 -111 75.5 -217t82.5 -237l169 -491q41 -118 84.5 -242.5t82.5 -238.5h-244q-39 121 -80 248.5t-78 241.5l-236 730h-20l-239 -723q-39 -118 -81 -247t-82 -250h-237zM346 336l22 180h692l18 -180
h-732zM699 1549q-72 0 -126 25t-85 74.5t-31 120.5q0 99 67.5 158t176.5 59q72 0 126.5 -27.5t85 -76.5t30.5 -113q0 -72 -31 -121t-85.5 -74t-127.5 -25zM699 1650q56 0 91 30t35 88q0 52 -34.5 85t-89.5 33q-56 0 -91 -32.5t-35 -85.5q0 -58 35 -88t89 -30z" />
    <glyph glyph-name="AE" unicode="&#xc6;" horiz-adv-x="1960" 
d="M28 0l126 241.5t125 241.5l255 492q67 129 123 235.5t112 215.5h1078v-198h-135.5h-152.5h-182h-285l77 162v-229.5v-246.5v-409v-241.5v-227.5l-71 162h297h162.5h151.5h143v-198h-913v227v242v481v243.5v213.5l115 -172h-157l-375 -738q-60 -120 -125.5 -248
t-127.5 -249h-241zM387 336l22 181h613l19 -181h-654zM1117 626v191h271h233.5h188.5v-191h-95.5h-98h-107h-122.5h-270z" />
    <glyph glyph-name="Ccedilla" unicode="&#xc7;" horiz-adv-x="1369" 
d="M830 -24q-171 0 -308 54.5t-233 153.5t-147 234t-51 296q0 215 88 382t248 262t377 95q70 0 137 -9.5t127.5 -26t112.5 -36t91 -41.5l-20 -222q-77 47 -150 76t-142 42.5t-134 13.5q-142 0 -253 -64.5t-174 -184.5t-63 -287q0 -111 32.5 -208.5t97.5 -172t163 -117
t227 -42.5q50 0 99.5 6.5t99 20.5t98 38t95.5 57l16 -220q-43 -25 -94 -44.5t-107 -31.5t-115 -18t-118 -6zM745 -434q-23 0 -47 2t-45 5.5t-36 8.5v128q13 -5 39.5 -9.5t58.5 -4.5q65 0 91.5 21.5t26.5 54.5q0 19 -13 37t-47 32.5t-98 22.5l76 179h118v-43l-48 -109
q71 -11 111 -34.5t56 -55t16 -67.5q0 -47 -25 -85t-82 -60.5t-152 -22.5z" />
    <glyph glyph-name="Egrave" unicode="&#xc8;" horiz-adv-x="1189" 
d="M168 0v227v242v481v246v230h908v-198h-208h-262h-339l131 162v-229.5v-246.5v-409v-241.5v-227.5l-117 162h344h239h217v-198h-913zM346 626v191h271h233.5h188.5v-191h-192.5h-230.5h-270zM625 1565q-53 61 -107 121t-108.5 122t-111.5 126l229 4q66 -93 132 -185
t132 -185z" />
    <glyph glyph-name="Eacute" unicode="&#xc9;" horiz-adv-x="1189" 
d="M168 0v227v242v481v246v230h908v-198h-208h-262h-339l131 162v-229.5v-246.5v-409v-241.5v-227.5l-117 162h344h239h217v-198h-913zM346 626v191h271h233.5h188.5v-191h-192.5h-230.5h-270zM461 1565q67 93 132.5 185t130.5 184l230 4q-56 -64 -110.5 -126t-109 -123
t-107.5 -121z" />
    <glyph glyph-name="Ecircumflex" unicode="&#xca;" horiz-adv-x="1189" 
d="M168 0v227v242v481v246v230h908v-198h-208h-262h-339l131 162v-229.5v-246.5v-409v-241.5v-227.5l-117 162h344h239h217v-198h-913zM346 626v191h271h233.5h188.5v-191h-192.5h-230.5h-270zM836 1563q-60 72 -120 142.5t-121 143.5h58q-61 -72 -120 -141.5t-119 -140.5
h-166q65 91 131 183t132 185h227q65 -93 131 -185.5t131 -183.5z" />
    <glyph glyph-name="Edieresis" unicode="&#xcb;" horiz-adv-x="1189" 
d="M168 0v227v242v481v246v230h908v-198h-208h-262h-339l131 162v-229.5v-246.5v-409v-241.5v-227.5l-117 162h344h239h217v-198h-913zM346 626v191h271h233.5h188.5v-191h-192.5h-230.5h-270zM842 1604q-57 0 -91.5 33t-34.5 99q0 62 35 96.5t93 34.5q59 0 92.5 -36
t33.5 -95q0 -66 -33.5 -99t-94.5 -33zM407 1604q-57 0 -91.5 33t-34.5 99q0 62 35 96.5t93 34.5q59 0 92.5 -36t33.5 -95q0 -66 -34 -99t-94 -33z" />
    <glyph glyph-name="Igrave" unicode="&#xcc;" horiz-adv-x="585" 
d="M173 0v227v242v480v247v230h239v-230v-247v-480v-242v-227h-239zM288 1565q-53 61 -107 121t-108.5 122t-111.5 126l229 4q66 -93 132 -185t132 -185z" />
    <glyph glyph-name="Iacute" unicode="&#xcd;" horiz-adv-x="585" 
d="M173 0v227v242v480v247v230h239v-230v-247v-480v-242v-227h-239zM124 1565q67 93 132.5 185t130.5 184l230 4q-56 -64 -110.5 -126t-109 -123t-107.5 -121z" />
    <glyph glyph-name="Icircumflex" unicode="&#xce;" horiz-adv-x="585" 
d="M173 0v227v242v480v247v230h239v-230v-247v-480v-242v-227h-239zM499 1563q-60 72 -120 142.5t-121 143.5h58q-61 -72 -120 -141.5t-119 -140.5h-166q65 91 131 183t132 185h227q65 -93 131 -185.5t131 -183.5z" />
    <glyph glyph-name="Idieresis" unicode="&#xcf;" horiz-adv-x="585" 
d="M173 0v227v242v480v247v230h239v-230v-247v-480v-242v-227h-239zM505 1604q-57 0 -91.5 33t-34.5 99q0 62 35 96.5t93 34.5q59 0 92.5 -36t33.5 -95q0 -66 -33.5 -99t-94.5 -33zM70 1604q-57 0 -91.5 33t-34.5 99q0 62 35 96.5t93 34.5q59 0 92.5 -36t33.5 -95
q0 -66 -34 -99t-94 -33z" />
    <glyph glyph-name="Eth" unicode="&#xd0;" horiz-adv-x="1471" 
d="M-25 618v165h179.5h161.5h94h162.5h178.5v-165h-178.5h-162.5h-94h-161.5h-179.5zM169 0v227v242v480v247v230h173.5h173.5h178q164 0 291.5 -47.5t215.5 -139t133.5 -222.5t45.5 -299q0 -151 -40.5 -281.5t-128 -228.5t-230.5 -153t-348 -55h-166h-149.5h-148.5z
M404 192h230q185 0 295 69t158 189t48 272q0 116 -28 210.5t-87 162t-150 103.5t-217 36h-249v-158.5v-175.5v-380v-172.5v-155.5z" />
    <glyph glyph-name="Ntilde" unicode="&#xd1;" horiz-adv-x="1505" 
d="M169 0v227v242v480v247v230h208q118 -168 225.5 -321t212.5 -304l281 -399h19v547v247v230h221v-230v-247v-480v-242v-227h-205q-97 139 -204.5 291.5t-235.5 334.5l-283 403h-18v-560v-242v-227h-221zM926 1556q-61 0 -105.5 25t-80 58t-66.5 58t-64 25q-54 0 -76 -36
t-26 -97h-121q0 141 54.5 216t147.5 75q60 0 103.5 -25t78 -58t66 -58t65.5 -25q53 0 74 37t24 97h121q0 -141 -52.5 -216.5t-142.5 -75.5z" />
    <glyph glyph-name="Ograve" unicode="&#xd2;" horiz-adv-x="1632" 
d="M823 -24q-186 0 -323.5 59t-228 162t-135.5 236t-45 281q0 207 83.5 374.5t245 266t396.5 98.5q178 0 313.5 -57t227 -158.5t137.5 -235.5t46 -288q0 -211 -84 -378t-244.5 -263.5t-388.5 -96.5zM818 174q123 0 213 44t149 120t87.5 173t28.5 203q0 114 -31 212
t-91.5 172t-149.5 115.5t-206 41.5q-121 0 -211 -43t-150.5 -119t-90.5 -173t-30 -206q0 -108 29 -205t88.5 -172.5t150.5 -119t214 -43.5zM815 1565q-53 61 -107 121t-108.5 122t-111.5 126l229 4q66 -93 132 -185t132 -185z" />
    <glyph glyph-name="Oacute" unicode="&#xd3;" horiz-adv-x="1632" 
d="M823 -24q-186 0 -323.5 59t-228 162t-135.5 236t-45 281q0 207 83.5 374.5t245 266t396.5 98.5q178 0 313.5 -57t227 -158.5t137.5 -235.5t46 -288q0 -211 -84 -378t-244.5 -263.5t-388.5 -96.5zM818 174q123 0 213 44t149 120t87.5 173t28.5 203q0 114 -31 212
t-91.5 172t-149.5 115.5t-206 41.5q-121 0 -211 -43t-150.5 -119t-90.5 -173t-30 -206q0 -108 29 -205t88.5 -172.5t150.5 -119t214 -43.5zM651 1565q67 93 132.5 185t130.5 184l230 4q-56 -64 -110.5 -126t-109 -123t-107.5 -121z" />
    <glyph glyph-name="Ocircumflex" unicode="&#xd4;" horiz-adv-x="1632" 
d="M823 -24q-186 0 -323.5 59t-228 162t-135.5 236t-45 281q0 207 83.5 374.5t245 266t396.5 98.5q178 0 313.5 -57t227 -158.5t137.5 -235.5t46 -288q0 -211 -84 -378t-244.5 -263.5t-388.5 -96.5zM818 174q123 0 213 44t149 120t87.5 173t28.5 203q0 114 -31 212
t-91.5 172t-149.5 115.5t-206 41.5q-121 0 -211 -43t-150.5 -119t-90.5 -173t-30 -206q0 -108 29 -205t88.5 -172.5t150.5 -119t214 -43.5zM1026 1563q-60 72 -120 142.5t-121 143.5h58q-61 -72 -120 -141.5t-119 -140.5h-166q65 91 131 183t132 185h227q65 -93 131 -185.5
t131 -183.5z" />
    <glyph glyph-name="Otilde" unicode="&#xd5;" horiz-adv-x="1632" 
d="M823 -24q-186 0 -323.5 59t-228 162t-135.5 236t-45 281q0 207 83.5 374.5t245 266t396.5 98.5q178 0 313.5 -57t227 -158.5t137.5 -235.5t46 -288q0 -211 -84 -378t-244.5 -263.5t-388.5 -96.5zM818 174q123 0 213 44t149 120t87.5 173t28.5 203q0 114 -31 212
t-91.5 172t-149.5 115.5t-206 41.5q-121 0 -211 -43t-150.5 -119t-90.5 -173t-30 -206q0 -108 29 -205t88.5 -172.5t150.5 -119t214 -43.5zM988 1556q-61 0 -105.5 25t-80 58t-66.5 58t-64 25q-54 0 -76 -36t-26 -97h-121q0 141 54.5 216t147.5 75q60 0 103.5 -25t78 -58
t66 -58t65.5 -25q53 0 74 37t24 97h121q0 -141 -52.5 -216.5t-142.5 -75.5z" />
    <glyph glyph-name="Odieresis" unicode="&#xd6;" horiz-adv-x="1632" 
d="M823 -24q-186 0 -323.5 59t-228 162t-135.5 236t-45 281q0 207 83.5 374.5t245 266t396.5 98.5q178 0 313.5 -57t227 -158.5t137.5 -235.5t46 -288q0 -211 -84 -378t-244.5 -263.5t-388.5 -96.5zM818 174q123 0 213 44t149 120t87.5 173t28.5 203q0 114 -31 212
t-91.5 172t-149.5 115.5t-206 41.5q-121 0 -211 -43t-150.5 -119t-90.5 -173t-30 -206q0 -108 29 -205t88.5 -172.5t150.5 -119t214 -43.5zM1032 1604q-57 0 -91.5 33t-34.5 99q0 62 35 96.5t93 34.5q59 0 92.5 -36t33.5 -95q0 -66 -33.5 -99t-94.5 -33zM597 1604
q-57 0 -91.5 33t-34.5 99q0 62 35 96.5t93 34.5q59 0 92.5 -36t33.5 -95q0 -66 -34 -99t-94 -33z" />
    <glyph glyph-name="multiply" unicode="&#xd7;" horiz-adv-x="1143" 
d="M895 144q-68 69 -133.5 134t-121.5 120l-273 273q-56 57 -120 121t-133 132l134 135q70 -68 134 -133t121 -122l272 -272q57 -57 121.5 -121t132.5 -133zM248 144l-134 134l90 90l85 85l79 79l273 273l121.5 121.5l132.5 132.5l134 -135q-68 -68 -132.5 -132t-121.5 -121
l-272 -273q-55 -55 -120.5 -120t-134.5 -134z" />
    <glyph glyph-name="Oslash" unicode="&#xd8;" horiz-adv-x="1632" 
d="M823 -24q-186 0 -323.5 59t-228 162t-135.5 236t-45 281q0 207 83.5 374.5t245 266t396.5 98.5q178 0 313.5 -57t227 -158.5t137.5 -235.5t46 -288q0 -211 -84 -378t-244.5 -263.5t-388.5 -96.5zM818 174q123 0 213 44t149 120t87.5 173t28.5 203q0 114 -31 212
t-91.5 172t-149.5 115.5t-206 41.5q-121 0 -211 -43t-150.5 -119t-90.5 -173t-30 -206q0 -108 29 -205t88.5 -172.5t150.5 -119t214 -43.5zM272 -138l-113 95q105 137 197.5 257.5t199.5 260.5l393 515q110 143 205.5 267.5t195.5 255.5l117 -88q-102 -133 -196 -256.5
t-204 -265.5l-397 -520q-108 -142 -203.5 -266.5t-194.5 -254.5z" />
    <glyph glyph-name="Ugrave" unicode="&#xd9;" horiz-adv-x="1459" 
d="M731 -24q-206 0 -333.5 69.5t-186.5 195.5t-59 296v106v145.5v160.5v247v230h234v-230v-247v-394q0 -120 34.5 -205t110 -130.5t199.5 -45.5q126 0 201 45.5t108 130.5t33 206v393v247v230h234v-230v-247v-161v-146.5v-105.5q0 -170 -60.5 -295.5t-187.5 -195t-327 -69.5
zM731 1565q-53 61 -107 121t-108.5 122t-111.5 126l229 4q66 -93 132 -185t132 -185z" />
    <glyph glyph-name="Uacute" unicode="&#xda;" horiz-adv-x="1459" 
d="M731 -24q-206 0 -333.5 69.5t-186.5 195.5t-59 296v106v145.5v160.5v247v230h234v-230v-247v-394q0 -120 34.5 -205t110 -130.5t199.5 -45.5q126 0 201 45.5t108 130.5t33 206v393v247v230h234v-230v-247v-161v-146.5v-105.5q0 -170 -60.5 -295.5t-187.5 -195t-327 -69.5
zM567 1565q67 93 132.5 185t130.5 184l230 4q-56 -64 -110.5 -126t-109 -123t-107.5 -121z" />
    <glyph glyph-name="Ucircumflex" unicode="&#xdb;" horiz-adv-x="1459" 
d="M731 -24q-206 0 -333.5 69.5t-186.5 195.5t-59 296v106v145.5v160.5v247v230h234v-230v-247v-394q0 -120 34.5 -205t110 -130.5t199.5 -45.5q126 0 201 45.5t108 130.5t33 206v393v247v230h234v-230v-247v-161v-146.5v-105.5q0 -170 -60.5 -295.5t-187.5 -195t-327 -69.5
zM942 1563q-60 72 -120 142.5t-121 143.5h58q-61 -72 -120 -141.5t-119 -140.5h-166q65 91 131 183t132 185h227q65 -93 131 -185.5t131 -183.5z" />
    <glyph glyph-name="Udieresis" unicode="&#xdc;" horiz-adv-x="1459" 
d="M731 -24q-206 0 -333.5 69.5t-186.5 195.5t-59 296v106v145.5v160.5v247v230h234v-230v-247v-394q0 -120 34.5 -205t110 -130.5t199.5 -45.5q126 0 201 45.5t108 130.5t33 206v393v247v230h234v-230v-247v-161v-146.5v-105.5q0 -170 -60.5 -295.5t-187.5 -195t-327 -69.5
zM948 1604q-57 0 -91.5 33t-34.5 99q0 62 35 96.5t93 34.5q59 0 92.5 -36t33.5 -95q0 -66 -33.5 -99t-94.5 -33zM513 1604q-57 0 -91.5 33t-34.5 99q0 62 35 96.5t93 34.5q59 0 92.5 -36t33.5 -95q0 -66 -34 -99t-94 -33z" />
    <glyph glyph-name="Yacute" unicode="&#xdd;" horiz-adv-x="1325" 
d="M553 538l-305 538q-49 86 -94 166.5t-104 183.5h268q48 -91 82.5 -156.5t65 -124t67.5 -129.5l121 -230h22l118 223q40 74 72 135t67.5 127t83.5 155h261q-50 -89 -99.5 -177t-97.5 -172l-304 -539h-224zM548 0v227v242v265h235v-265v-242v-227h-235zM500 1565
q67 93 132.5 185t130.5 184l230 4q-56 -64 -110.5 -126t-109 -123t-107.5 -121z" />
    <glyph glyph-name="Thorn" unicode="&#xde;" horiz-adv-x="1270" 
d="M168 0v227v242v481v246v230h232v-230v-246v-481v-242v-227h-232zM678 302h-105h-109.5h-92.5v191h258q113 0 185 27t106.5 86t34.5 153q0 78 -25 124.5t-65.5 70t-89 31.5t-94.5 8h-310v191h142.5h183.5q167 0 277 -43t165 -136t55 -244q0 -134 -49 -237.5t-162 -162.5
t-305 -59z" />
    <glyph glyph-name="germandbls" unicode="&#xdf;" horiz-adv-x="1217" 
d="M702 -10q-30 0 -62 3t-57 8v158q14 -2 32.5 -4t39.5 -2q126 0 189.5 74.5t63.5 190.5q0 91 -39 153t-106.5 92.5t-153.5 30.5v164q63 0 117 28.5t86.5 81.5t32.5 126q0 97 -56 156.5t-155 59.5q-107 0 -165.5 -67t-58.5 -207v-600v-225v-211h-214v211v225v100v246.5
v247.5q0 224 118 343t326 119q124 0 215.5 -42.5t142 -122t50.5 -188.5q0 -87 -28.5 -149t-74 -103t-93.5 -63v-19q47 -17 96 -47t89.5 -76.5t65 -113t24.5 -156.5q0 -188 -113.5 -305t-311.5 -117zM44 830v164h213v-164h-213z" />
    <glyph glyph-name="agrave" unicode="&#xe0;" horiz-adv-x="1039" 
d="M390 -21q-85 0 -152 34.5t-105.5 100t-38.5 159.5q0 83 28.5 139.5t75.5 92.5t105 56t117 29l295 46q4 83 -24.5 127t-80 60t-116.5 16q-34 0 -73.5 -5t-83 -16.5t-91 -28t-97.5 -39.5l-12 190q37 15 83 29t99.5 25.5t110.5 17.5t116 6q118 0 202 -35t129 -111.5
t45 -198.5v-119v-132v-120v-144v-158h-193l-12 132h-19q-29 -37 -72.5 -72t-103 -58t-132.5 -23zM460 149q48 0 94.5 21.5t86.5 61.5t69 97v176q-15 -9 -38.5 -17t-70.5 -18t-132 -25q-49 -8 -84 -29t-54.5 -54.5t-19.5 -79.5q0 -73 44.5 -103t104.5 -30zM529 1146
q-53 66 -107.5 133t-109 135t-110.5 136l229 6q66 -102 132 -203t132 -205z" />
    <glyph glyph-name="aacute" unicode="&#xe1;" horiz-adv-x="1039" 
d="M390 -21q-85 0 -152 34.5t-105.5 100t-38.5 159.5q0 83 28.5 139.5t75.5 92.5t105 56t117 29l295 46q4 83 -24.5 127t-80 60t-116.5 16q-34 0 -73.5 -5t-83 -16.5t-91 -28t-97.5 -39.5l-12 190q37 15 83 29t99.5 25.5t110.5 17.5t116 6q118 0 202 -35t129 -111.5
t45 -198.5v-119v-132v-120v-144v-158h-193l-12 132h-19q-29 -37 -72.5 -72t-103 -58t-132.5 -23zM460 149q48 0 94.5 21.5t86.5 61.5t69 97v176q-15 -9 -38.5 -17t-70.5 -18t-132 -25q-49 -8 -84 -29t-54.5 -54.5t-19.5 -79.5q0 -73 44.5 -103t104.5 -30zM365 1146
q66 101 132 202.5t131 201.5l230 6q-56 -70 -111 -138.5t-108.5 -135.5t-107.5 -134z" />
    <glyph glyph-name="acircumflex" unicode="&#xe2;" horiz-adv-x="1039" 
d="M390 -21q-85 0 -152 34.5t-105.5 100t-38.5 159.5q0 83 28.5 139.5t75.5 92.5t105 56t117 29l295 46q4 83 -24.5 127t-80 60t-116.5 16q-34 0 -73.5 -5t-83 -16.5t-91 -28t-97.5 -39.5l-12 190q37 15 83 29t99.5 25.5t110.5 17.5t116 6q118 0 202 -35t129 -111.5
t45 -198.5v-119v-132v-120v-144v-158h-193l-12 132h-19q-29 -37 -72.5 -72t-103 -58t-132.5 -23zM460 149q48 0 94.5 21.5t86.5 61.5t69 97v176q-15 -9 -38.5 -17t-70.5 -18t-132 -25q-49 -8 -84 -29t-54.5 -54.5t-19.5 -79.5q0 -73 44.5 -103t104.5 -30zM740 1144
q-60 78 -118.5 155t-119.5 155h53q-60 -78 -118.5 -154t-118.5 -152h-166q65 100 131 201t132 203h227q66 -102 131.5 -203.5t130.5 -202.5z" />
    <glyph glyph-name="atilde" unicode="&#xe3;" horiz-adv-x="1039" 
d="M390 -21q-85 0 -152 34.5t-105.5 100t-38.5 159.5q0 83 28.5 139.5t75.5 92.5t105 56t117 29l295 46q4 83 -24.5 127t-80 60t-116.5 16q-34 0 -73.5 -5t-83 -16.5t-91 -28t-97.5 -39.5l-12 190q37 15 83 29t99.5 25.5t110.5 17.5t116 6q118 0 202 -35t129 -111.5
t45 -198.5v-119v-132v-120v-144v-158h-193l-12 132h-19q-29 -37 -72.5 -72t-103 -58t-132.5 -23zM460 149q48 0 94.5 21.5t86.5 61.5t69 97v176q-15 -9 -38.5 -17t-70.5 -18t-132 -25q-49 -8 -84 -29t-54.5 -54.5t-19.5 -79.5q0 -73 44.5 -103t104.5 -30zM702 1137
q-61 0 -105.5 25t-80 58t-66.5 58t-64 25q-54 0 -76 -36.5t-26 -97.5h-121q0 141 54.5 216.5t147.5 75.5q60 0 103.5 -25t78 -58t66 -58t65.5 -25q53 0 74 36.5t24 96.5h121q0 -140 -52.5 -215.5t-142.5 -75.5z" />
    <glyph glyph-name="adieresis" unicode="&#xe4;" horiz-adv-x="1039" 
d="M390 -21q-85 0 -152 34.5t-105.5 100t-38.5 159.5q0 83 28.5 139.5t75.5 92.5t105 56t117 29l295 46q4 83 -24.5 127t-80 60t-116.5 16q-34 0 -73.5 -5t-83 -16.5t-91 -28t-97.5 -39.5l-12 190q37 15 83 29t99.5 25.5t110.5 17.5t116 6q118 0 202 -35t129 -111.5
t45 -198.5v-119v-132v-120v-144v-158h-193l-12 132h-19q-29 -37 -72.5 -72t-103 -58t-132.5 -23zM460 149q48 0 94.5 21.5t86.5 61.5t69 97v176q-15 -9 -38.5 -17t-70.5 -18t-132 -25q-49 -8 -84 -29t-54.5 -54.5t-19.5 -79.5q0 -73 44.5 -103t104.5 -30zM746 1184
q-57 0 -91.5 33t-34.5 99q0 62 35 97t93 35q59 0 92.5 -36.5t33.5 -95.5q0 -66 -33.5 -99t-94.5 -33zM311 1184q-57 0 -91.5 33t-34.5 99q0 62 35 97t93 35q59 0 92.5 -36.5t33.5 -95.5q0 -66 -34 -99t-94 -33z" />
    <glyph glyph-name="aring" unicode="&#xe5;" horiz-adv-x="1039" 
d="M390 -21q-85 0 -152 34.5t-105.5 100t-38.5 159.5q0 83 28.5 139.5t75.5 92.5t105 56t117 29l295 46q4 83 -24.5 127t-80 60t-116.5 16q-34 0 -73.5 -5t-83 -16.5t-91 -28t-97.5 -39.5l-12 190q37 15 83 29t99.5 25.5t110.5 17.5t116 6q118 0 202 -35t129 -111.5
t45 -198.5v-119v-132v-120v-144v-158h-193l-12 132h-19q-29 -37 -72.5 -72t-103 -58t-132.5 -23zM460 149q48 0 94.5 21.5t86.5 61.5t69 97v176q-15 -9 -38.5 -17t-70.5 -18t-132 -25q-49 -8 -84 -29t-54.5 -54.5t-19.5 -79.5q0 -73 44.5 -103t104.5 -30zM528 1117
q-72 0 -126 25t-85 74.5t-31 120.5q0 99 67.5 158t176.5 59q72 0 126.5 -27.5t85 -76.5t30.5 -113q0 -72 -31 -121t-85.5 -74t-127.5 -25zM528 1218q56 0 91 30t35 88q0 52 -34.5 85t-89.5 33q-56 0 -91 -32.5t-35 -85.5q0 -58 35 -88t89 -30z" />
    <glyph glyph-name="ae" unicode="&#xe6;" horiz-adv-x="1622" 
d="M1206 -23q-173 0 -283.5 68t-163.5 186t-53 271q0 151 51.5 268t149.5 182.5t238 65.5q128 0 220 -48.5t142 -144.5t50 -238q0 -38 -1.5 -68.5t-6.5 -60.5l-187 82q2 15 3 29.5t1 27.5q0 123 -63 190.5t-159 67.5q-77 0 -133.5 -42t-87.5 -115t-31 -168v-32
q0 -158 82 -249t255 -91q44 0 96.5 7.5t105.5 23.5t100 41l8 -186q-38 -20 -89.5 -35t-112.5 -23.5t-131 -8.5zM442 149q48 0 94.5 21.5t86.5 61.5t69 97v176q-14 -9 -38 -17t-71 -18t-132 -25q-49 -8 -84 -29t-54.5 -54.5t-19.5 -79.5q0 -73 44.5 -103t104.5 -30zM388 -21
q-94 0 -164 34.5t-109 100t-39 159.5q0 83 28.5 139.5t75.5 92.5t105 56t117 29l296 46q3 83 -25.5 127t-80 60t-116.5 16q-34 0 -73.5 -5t-83 -16.5t-90.5 -28t-98 -39.5l-11 190q35 15 79.5 29t95.5 25.5t106 17.5t111 6q167 0 257.5 -81t90.5 -264l-36 -168l5 -248
q-52 -98 -120.5 -159.5t-150 -90t-170.5 -28.5zM763 458v146l658 8l128 -52v-102h-786z" />
    <glyph glyph-name="ccedilla" unicode="&#xe7;" horiz-adv-x="982" 
d="M602 -20q-164 0 -278.5 67.5t-174.5 184.5t-60 265q0 149 56.5 267t167 186t271.5 68q58 0 115.5 -9.5t108.5 -26t90 -38.5l-18 -190q-56 32 -104.5 49t-89.5 23.5t-75 6.5q-138 0 -221 -89.5t-83 -241.5q0 -98 38 -175t113.5 -122t187.5 -45q41 0 82 7.5t80.5 23
t76.5 39.5l15 -191q-34 -16 -78 -29.5t-99 -21.5t-121 -8zM516 -434q-23 0 -47 2t-45 5.5t-36 8.5v128q13 -5 39.5 -9.5t58.5 -4.5q65 0 91.5 21.5t26.5 54.5q0 19 -13 37t-47 32.5t-98 22.5l76 179h118v-43l-48 -109q71 -11 111 -34.5t56 -55t16 -67.5q0 -47 -25 -85
t-82 -60.5t-152 -22.5z" />
    <glyph glyph-name="egrave" unicode="&#xe8;" horiz-adv-x="1054" 
d="M621 -23q-183 0 -301 68t-174.5 186t-56.5 271q0 151 54.5 268t159.5 182.5t254 65.5q129 0 222 -48.5t143 -144.5t50 -238q0 -38 -1.5 -68.5t-6.5 -60.5l-187 82q2 15 3 29.5t1 27.5q0 123 -61.5 190.5t-160.5 67.5q-77 0 -134 -42t-88.5 -115t-31.5 -168v-32
q0 -106 36.5 -182t112 -117t190.5 -41q44 0 96.5 7.5t105.5 23.5t100 41l8 -186q-38 -20 -89 -35t-112.5 -23.5t-131.5 -8.5zM175 458v146l661 8l128 -53v-101h-789zM553 1146q-53 66 -107.5 133t-109 135t-110.5 136l229 6q66 -102 132 -203t132 -205z" />
    <glyph glyph-name="eacute" unicode="&#xe9;" horiz-adv-x="1054" 
d="M621 -23q-183 0 -301 68t-174.5 186t-56.5 271q0 151 54.5 268t159.5 182.5t254 65.5q129 0 222 -48.5t143 -144.5t50 -238q0 -38 -1.5 -68.5t-6.5 -60.5l-187 82q2 15 3 29.5t1 27.5q0 123 -61.5 190.5t-160.5 67.5q-77 0 -134 -42t-88.5 -115t-31.5 -168v-32
q0 -106 36.5 -182t112 -117t190.5 -41q44 0 96.5 7.5t105.5 23.5t100 41l8 -186q-38 -20 -89 -35t-112.5 -23.5t-131.5 -8.5zM175 458v146l661 8l128 -53v-101h-789zM389 1146q66 101 132 202.5t131 201.5l230 6q-56 -70 -111 -138.5t-108.5 -135.5t-107.5 -134z" />
    <glyph glyph-name="ecircumflex" unicode="&#xea;" horiz-adv-x="1054" 
d="M621 -23q-183 0 -301 68t-174.5 186t-56.5 271q0 151 54.5 268t159.5 182.5t254 65.5q129 0 222 -48.5t143 -144.5t50 -238q0 -38 -1.5 -68.5t-6.5 -60.5l-187 82q2 15 3 29.5t1 27.5q0 123 -61.5 190.5t-160.5 67.5q-77 0 -134 -42t-88.5 -115t-31.5 -168v-32
q0 -106 36.5 -182t112 -117t190.5 -41q44 0 96.5 7.5t105.5 23.5t100 41l8 -186q-38 -20 -89 -35t-112.5 -23.5t-131.5 -8.5zM175 458v146l661 8l128 -53v-101h-789zM764 1144q-60 78 -118.5 155t-119.5 155h53q-60 -78 -118.5 -154t-118.5 -152h-166q65 100 131 201
t132 203h227q66 -102 131.5 -203.5t130.5 -202.5z" />
    <glyph glyph-name="edieresis" unicode="&#xeb;" horiz-adv-x="1054" 
d="M621 -23q-183 0 -301 68t-174.5 186t-56.5 271q0 151 54.5 268t159.5 182.5t254 65.5q129 0 222 -48.5t143 -144.5t50 -238q0 -38 -1.5 -68.5t-6.5 -60.5l-187 82q2 15 3 29.5t1 27.5q0 123 -61.5 190.5t-160.5 67.5q-77 0 -134 -42t-88.5 -115t-31.5 -168v-32
q0 -106 36.5 -182t112 -117t190.5 -41q44 0 96.5 7.5t105.5 23.5t100 41l8 -186q-38 -20 -89 -35t-112.5 -23.5t-131.5 -8.5zM175 458v146l661 8l128 -53v-101h-789zM770 1184q-57 0 -91.5 33t-34.5 99q0 62 35 97t93 35q59 0 92.5 -36.5t33.5 -95.5q0 -66 -33.5 -99
t-94.5 -33zM335 1184q-57 0 -91.5 33t-34.5 99q0 62 35 97t93 35q59 0 92.5 -36.5t33.5 -95.5q0 -66 -34 -99t-94 -33z" />
    <glyph glyph-name="igrave" unicode="&#xec;" horiz-adv-x="530" 
d="M158 0v211v225v100v169v147v142l214 7v-144v-149v-172v-100v-225v-211h-214zM264 1146q-53 66 -107.5 133t-109 135t-110.5 136l229 6q66 -102 132 -203t132 -205z" />
    <glyph glyph-name="iacute" unicode="&#xed;" horiz-adv-x="530" 
d="M158 0v211v225v100v169v147v142l214 7v-144v-149v-172v-100v-225v-211h-214zM100 1146q66 101 132 202.5t131 201.5l230 6q-56 -70 -111 -138.5t-108.5 -135.5t-107.5 -134z" />
    <glyph glyph-name="icircumflex" unicode="&#xee;" horiz-adv-x="530" 
d="M158 0v211v225v100v169v147v142l214 7v-144v-149v-172v-100v-225v-211h-214zM441 1144q-41 67 -83.5 134.5t-84.5 136t-86 137.5h178q57 -102 114.5 -202.5t115.5 -203.5zM-69 1148q59 101 116 201t116 203h176q-43 -69 -85 -136.5t-84 -134.5t-83 -133h-156z" />
    <glyph glyph-name="idieresis" unicode="&#xef;" horiz-adv-x="530" 
d="M158 0v211v225v100v169v147v142l214 7v-144v-149v-172v-100v-225v-211h-214zM447 1184q-55 0 -87.5 33t-32.5 99q0 62 33 97t89 35t88 -36.5t32 -95.5q0 -44 -14.5 -73t-42 -44t-65.5 -15zM81 1184q-56 0 -88.5 33t-32.5 99q0 62 33 97t90 35q56 0 88 -36.5t32 -95.5
q0 -44 -15 -73t-42 -44t-65 -15z" />
    <glyph glyph-name="eth" unicode="&#xf0;" horiz-adv-x="1185" 
d="M597 -23q-168 0 -281 71t-170 187t-57 250q0 136 53 243t147.5 169.5t219.5 62.5q53 0 109.5 -12.5t111 -38t100.5 -66.5l42 18q33 -54 41 -118.5t-20 -118.5q-56 69 -112.5 102.5t-105.5 44t-84 10.5q-95 0 -158 -43t-94.5 -113t-31.5 -149q0 -81 32 -154t96.5 -119.5
t159.5 -46.5q143 0 212 121t69 348q0 174 -61 321.5t-179 272.5q-53 59 -120 113t-145 104l174 69q74 -43 141 -94.5t125 -111.5q132 -135 208.5 -305.5t76.5 -389.5q0 -191 -53.5 -332t-164 -218t-281.5 -77zM333 1066l-45 138q91 29 173 55.5t154 49.5l94 31
q70 22 152 48.5t173 55.5l45 -138q-89 -28 -171.5 -55t-155.5 -50l-92 -30q-71 -23 -155 -50t-172 -55z" />
    <glyph glyph-name="ntilde" unicode="&#xf1;" horiz-adv-x="1150" 
d="M154 0v211v225v100v226.5v231.5l183 12l8 -180h21q32 46 81.5 90.5t115.5 73.5t151 29q155 0 229.5 -90t74.5 -264v-117.5v-111.5v-223.5v-212.5h-214v211.5v213.5v178q0 108 -37 163t-136 55q-58 0 -106 -23.5t-87 -63t-70 -87.5v-222v-215.5v-209.5h-214zM759 1137
q-61 0 -105.5 25t-80 58t-66.5 58t-64 25q-54 0 -76 -36.5t-26 -97.5h-121q0 141 54.5 216.5t147.5 75.5q60 0 103.5 -25t78 -58t66 -58t65.5 -25q53 0 74 36.5t24 96.5h121q0 -140 -52.5 -215.5t-142.5 -75.5z" />
    <glyph glyph-name="ograve" unicode="&#xf2;" horiz-adv-x="1195" 
d="M602 -24q-128 0 -224 43t-160.5 116.5t-96.5 168t-32 198.5q0 149 60 265.5t174 184t275 67.5q123 0 218 -39t159.5 -109.5t97.5 -164.5t33 -204q0 -149 -60 -268t-173.5 -188.5t-270.5 -69.5zM601 156q96 0 160 49.5t95.5 128.5t31.5 168q0 103 -35.5 178.5t-100 117
t-152.5 41.5q-95 0 -160.5 -44.5t-99 -121t-33.5 -171.5q0 -89 32.5 -168t98 -128.5t163.5 -49.5zM596 1146q-53 66 -107.5 133t-109 135t-110.5 136l229 6q66 -102 132 -203t132 -205z" />
    <glyph glyph-name="oacute" unicode="&#xf3;" horiz-adv-x="1195" 
d="M602 -24q-128 0 -224 43t-160.5 116.5t-96.5 168t-32 198.5q0 149 60 265.5t174 184t275 67.5q123 0 218 -39t159.5 -109.5t97.5 -164.5t33 -204q0 -149 -60 -268t-173.5 -188.5t-270.5 -69.5zM601 156q96 0 160 49.5t95.5 128.5t31.5 168q0 103 -35.5 178.5t-100 117
t-152.5 41.5q-95 0 -160.5 -44.5t-99 -121t-33.5 -171.5q0 -89 32.5 -168t98 -128.5t163.5 -49.5zM432 1146q66 101 132 202.5t131 201.5l230 6q-56 -70 -111 -138.5t-108.5 -135.5t-107.5 -134z" />
    <glyph glyph-name="ocircumflex" unicode="&#xf4;" horiz-adv-x="1195" 
d="M602 -24q-128 0 -224 43t-160.5 116.5t-96.5 168t-32 198.5q0 149 60 265.5t174 184t275 67.5q123 0 218 -39t159.5 -109.5t97.5 -164.5t33 -204q0 -149 -60 -268t-173.5 -188.5t-270.5 -69.5zM601 156q96 0 160 49.5t95.5 128.5t31.5 168q0 103 -35.5 178.5t-100 117
t-152.5 41.5q-95 0 -160.5 -44.5t-99 -121t-33.5 -171.5q0 -89 32.5 -168t98 -128.5t163.5 -49.5zM807 1144q-60 78 -118.5 155t-119.5 155h53q-60 -78 -118.5 -154t-118.5 -152h-166q65 100 131 201t132 203h227q66 -102 131.5 -203.5t130.5 -202.5z" />
    <glyph glyph-name="otilde" unicode="&#xf5;" horiz-adv-x="1195" 
d="M602 -24q-128 0 -224 43t-160.5 116.5t-96.5 168t-32 198.5q0 149 60 265.5t174 184t275 67.5q123 0 218 -39t159.5 -109.5t97.5 -164.5t33 -204q0 -149 -60 -268t-173.5 -188.5t-270.5 -69.5zM601 156q96 0 160 49.5t95.5 128.5t31.5 168q0 103 -35.5 178.5t-100 117
t-152.5 41.5q-95 0 -160.5 -44.5t-99 -121t-33.5 -171.5q0 -89 32.5 -168t98 -128.5t163.5 -49.5zM769 1137q-61 0 -105.5 25t-80 58t-66.5 58t-64 25q-54 0 -76 -36.5t-26 -97.5h-121q0 141 54.5 216.5t147.5 75.5q60 0 103.5 -25t78 -58t66 -58t65.5 -25q53 0 74 36.5
t24 96.5h121q0 -140 -52.5 -215.5t-142.5 -75.5z" />
    <glyph glyph-name="odieresis" unicode="&#xf6;" horiz-adv-x="1195" 
d="M602 -24q-128 0 -224 43t-160.5 116.5t-96.5 168t-32 198.5q0 149 60 265.5t174 184t275 67.5q123 0 218 -39t159.5 -109.5t97.5 -164.5t33 -204q0 -149 -60 -268t-173.5 -188.5t-270.5 -69.5zM601 156q96 0 160 49.5t95.5 128.5t31.5 168q0 103 -35.5 178.5t-100 117
t-152.5 41.5q-95 0 -160.5 -44.5t-99 -121t-33.5 -171.5q0 -89 32.5 -168t98 -128.5t163.5 -49.5zM813 1184q-57 0 -91.5 33t-34.5 99q0 62 35 97t93 35q59 0 92.5 -36.5t33.5 -95.5q0 -66 -33.5 -99t-94.5 -33zM378 1184q-57 0 -91.5 33t-34.5 99q0 62 35 97t93 35
q59 0 92.5 -36.5t33.5 -95.5q0 -66 -34 -99t-94 -33z" />
    <glyph glyph-name="divide" unicode="&#xf7;" horiz-adv-x="1144" 
d="M116 507v188h188h170h196h170h188v-188h-188h-170h-196h-170h-188zM569 91q-61 0 -98 37.5t-37 96.5q0 60 37 96t99 36q64 0 100 -36t36 -96q0 -59 -36 -96.5t-101 -37.5zM570 843q-63 0 -99.5 38t-36.5 96q0 60 37 96t99 36q64 0 100 -36t36 -96q0 -58 -36 -96t-100 -38
z" />
    <glyph glyph-name="oslash" unicode="&#xf8;" horiz-adv-x="1194" 
d="M602 -23q-128 0 -224 42.5t-160 115.5t-96.5 168t-32.5 199q0 149 60 265.5t174 183.5t275 67q123 0 218 -39t159.5 -109.5t98 -164t33.5 -203.5q0 -148 -61 -267t-174 -188.5t-270 -69.5zM600 156q97 0 161 49.5t95 128.5t31 168q0 103 -35.5 179t-99.5 117t-152 41
q-96 0 -161.5 -45t-98.5 -121.5t-33 -170.5q0 -89 32.5 -168t98 -128.5t162.5 -49.5zM205 -136l-102 81q78 102 146.5 191.5t146.5 191.5l288 377q83 109 153 200t143 186l105 -77q-74 -97 -145 -190t-152 -199l-292 -381q-80 -104 -148.5 -194t-142.5 -186z" />
    <glyph glyph-name="ugrave" unicode="&#xf9;" horiz-adv-x="1126" 
d="M436 -24q-155 0 -229.5 90.5t-74.5 264.5v115v98v167v143v140l214 8v-214v-220v-180q0 -107 37.5 -162t135.5 -55q55 0 102 23.5t85.5 63t69.5 87.5v223v216.5v209.5h214v-212.5v-237.5v-108v-225v-211h-183l-8 170h-21q-32 -47 -81 -91.5t-114 -73.5t-147 -29zM561 1146
q-53 66 -107.5 133t-109 135t-110.5 136l229 6q66 -102 132 -203t132 -205z" />
    <glyph glyph-name="uacute" unicode="&#xfa;" horiz-adv-x="1126" 
d="M436 -24q-155 0 -229.5 90.5t-74.5 264.5v115v98v167v143v140l214 8v-214v-220v-180q0 -107 37.5 -162t135.5 -55q55 0 102 23.5t85.5 63t69.5 87.5v223v216.5v209.5h214v-212.5v-237.5v-108v-225v-211h-183l-8 170h-21q-32 -47 -81 -91.5t-114 -73.5t-147 -29zM397 1146
q66 101 132 202.5t131 201.5l230 6q-56 -70 -111 -138.5t-108.5 -135.5t-107.5 -134z" />
    <glyph glyph-name="ucircumflex" unicode="&#xfb;" horiz-adv-x="1126" 
d="M436 -24q-155 0 -229.5 90.5t-74.5 264.5v115v98v167v143v140l214 8v-214v-220v-180q0 -107 37.5 -162t135.5 -55q55 0 102 23.5t85.5 63t69.5 87.5v223v216.5v209.5h214v-212.5v-237.5v-108v-225v-211h-183l-8 170h-21q-32 -47 -81 -91.5t-114 -73.5t-147 -29zM772 1144
q-60 78 -118.5 155t-119.5 155h53q-60 -78 -118.5 -154t-118.5 -152h-166q65 100 131 201t132 203h227q66 -102 131.5 -203.5t130.5 -202.5z" />
    <glyph glyph-name="udieresis" unicode="&#xfc;" horiz-adv-x="1126" 
d="M436 -24q-155 0 -229.5 90.5t-74.5 264.5v115v98v167v143v140l214 8v-214v-220v-180q0 -107 37.5 -162t135.5 -55q55 0 102 23.5t85.5 63t69.5 87.5v223v216.5v209.5h214v-212.5v-237.5v-108v-225v-211h-183l-8 170h-21q-32 -47 -81 -91.5t-114 -73.5t-147 -29zM778 1184
q-57 0 -91.5 33t-34.5 99q0 62 35 97t93 35q59 0 92.5 -36.5t33.5 -95.5q0 -66 -33.5 -99t-94.5 -33zM343 1184q-57 0 -91.5 33t-34.5 99q0 62 35 97t93 35q59 0 92.5 -36.5t33.5 -95.5q0 -66 -34 -99t-94 -33z" />
    <glyph glyph-name="yacute" unicode="&#xfd;" horiz-adv-x="1058" 
d="M253 -391q40 100 81 202t81 201v-47q-37 103 -75 207.5l-74 203.5l-65 181q-39 107 -79.5 219t-79.5 218l230 8q38 -122 74 -238t73 -237l92 -301h20l101 302q40 118 78.5 233.5t78.5 232.5h227q-31 -80 -60.5 -154.5t-64.5 -164.5t-84 -215l-110 -280
q-74 -190 -126 -323t-95 -241zM364 1146q66 101 132 202.5t131 201.5l230 6q-56 -70 -111 -138.5t-108.5 -135.5t-107.5 -134z" />
    <glyph glyph-name="thorn" unicode="&#xfe;" horiz-adv-x="1184" 
d="M154 -391v214.5v228.5v935v243.5v233.5l214 23v-242v-258v-107h20q28 37 70.5 69t98.5 51t124 19q131 0 223.5 -68t140.5 -186t48 -265q0 -139 -45.5 -258.5t-137.5 -192.5t-232 -73q-65 0 -118.5 17t-97 49t-78.5 77h-16v-78v-215.5v-209.5zM605 163q93 0 153 47.5
t88 124t28 163.5q0 91 -29.5 166.5t-89.5 120.5t-153 45q-46 0 -89.5 -13.5t-80.5 -40t-64 -66.5v-404q26 -44 60 -76t78 -49.5t99 -17.5z" />
    <glyph glyph-name="ydieresis" unicode="&#xff;" horiz-adv-x="1058" 
d="M253 -391q40 100 81 202t81 201v-47q-37 103 -75 207.5l-74 203.5l-65 181q-39 107 -79.5 219t-79.5 218l230 8q38 -122 74 -238t73 -237l92 -301h20l101 302q40 118 78.5 233.5t78.5 232.5h227q-31 -80 -60.5 -154.5t-64.5 -164.5t-84 -215l-110 -280
q-74 -190 -126 -323t-95 -241zM745 1184q-57 0 -91.5 33t-34.5 99q0 62 35 97t93 35q59 0 92.5 -36.5t33.5 -95.5q0 -66 -33.5 -99t-94.5 -33zM310 1184q-57 0 -91.5 33t-34.5 99q0 62 35 97t93 35q59 0 92.5 -36.5t33.5 -95.5q0 -66 -34 -99t-94 -33z" />
    <glyph glyph-name="Amacron" unicode="&#x100;" horiz-adv-x="1401" 
d="M53 0q40 115 84 242t85 241l170 490q47 132 84 238.5t75 214.5h305q39 -111 75.5 -217t82.5 -237l169 -491q41 -118 84.5 -242.5t82.5 -238.5h-244q-39 121 -80 248.5t-78 241.5l-236 730h-20l-239 -723q-39 -118 -81 -247t-82 -250h-237zM346 336l22 180h692l18 -180
h-732zM377 1650v162h154.5h169.5h170h154v-162h-154h-170h-169.5h-154.5z" />
    <glyph glyph-name="amacron" unicode="&#x101;" horiz-adv-x="1039" 
d="M390 -21q-85 0 -152 34.5t-105.5 100t-38.5 159.5q0 83 28.5 139.5t75.5 92.5t105 56t117 29l295 46q4 83 -24.5 127t-80 60t-116.5 16q-34 0 -73.5 -5t-83 -16.5t-91 -28t-97.5 -39.5l-12 190q37 15 83 29t99.5 25.5t110.5 17.5t116 6q118 0 202 -35t129 -111.5
t45 -198.5v-119v-132v-120v-144v-158h-193l-12 132h-19q-29 -37 -72.5 -72t-103 -58t-132.5 -23zM460 149q48 0 94.5 21.5t86.5 61.5t69 97v176q-15 -9 -38.5 -17t-70.5 -18t-132 -25q-49 -8 -84 -29t-54.5 -54.5t-19.5 -79.5q0 -73 44.5 -103t104.5 -30zM206 1230v162
h154.5h169.5h170h154v-162h-154h-170h-169.5h-154.5z" />
    <glyph glyph-name="Abreve" unicode="&#x102;" horiz-adv-x="1401" 
d="M53 0q40 115 84 242t85 241l170 490q47 132 84 238.5t75 214.5h305q39 -111 75.5 -217t82.5 -237l169 -491q41 -118 84.5 -242.5t82.5 -238.5h-244q-39 121 -80 248.5t-78 241.5l-236 730h-20l-239 -723q-39 -118 -81 -247t-82 -250h-237zM346 336l22 180h692l18 -180
h-732zM698 1552q-166 0 -252.5 96.5t-86.5 289.5l152 7q0 -124 47.5 -183t139.5 -59q93 0 141 58t48 177h152q0 -129 -38 -215t-114 -128.5t-189 -42.5z" />
    <glyph glyph-name="abreve" unicode="&#x103;" horiz-adv-x="1039" 
d="M390 -21q-85 0 -152 34.5t-105.5 100t-38.5 159.5q0 83 28.5 139.5t75.5 92.5t105 56t117 29l295 46q4 83 -24.5 127t-80 60t-116.5 16q-34 0 -73.5 -5t-83 -16.5t-91 -28t-97.5 -39.5l-12 190q37 15 83 29t99.5 25.5t110.5 17.5t116 6q118 0 202 -35t129 -111.5
t45 -198.5v-119v-132v-120v-144v-158h-193l-12 132h-19q-29 -37 -72.5 -72t-103 -58t-132.5 -23zM460 149q48 0 94.5 21.5t86.5 61.5t69 97v176q-15 -9 -38.5 -17t-70.5 -18t-132 -25q-49 -8 -84 -29t-54.5 -54.5t-19.5 -79.5q0 -73 44.5 -103t104.5 -30zM527 1132
q-166 0 -252.5 96.5t-86.5 289.5l152 7q0 -123 47.5 -182.5t139.5 -59.5q93 0 141 58.5t48 176.5h152q0 -128 -38 -214t-114 -129t-189 -43z" />
    <glyph glyph-name="Aogonek" unicode="&#x104;" horiz-adv-x="1401" 
d="M53 0q40 115 84 242t85 241l170 490q47 132 84 238.5t75 214.5h305q39 -111 75.5 -217t82.5 -237l169 -491q41 -118 84.5 -242.5t82.5 -238.5h-244q-39 121 -80 248.5t-78 241.5l-236 730h-20l-239 -723q-39 -118 -81 -247t-82 -250h-237zM346 336l22 180h692l18 -180
h-732zM1234 -423q-80 0 -133 21.5t-79 60t-26 87.5q0 50 23.5 95t67.5 85t105 75v44l112 10l45 -55q-80 -38 -134.5 -91.5t-54.5 -110.5q0 -41 28.5 -61.5t76.5 -20.5q33 0 56 5t36 9v-135q-22 -7 -55 -12.5t-68 -5.5z" />
    <glyph glyph-name="aogonek" unicode="&#x105;" horiz-adv-x="1053" 
d="M390 -21q-85 0 -152 34.5t-105.5 100t-38.5 159.5q0 83 28.5 139.5t75.5 92.5t105 56t117 29l295 46q4 83 -24.5 127t-80 60t-116.5 16q-34 0 -73.5 -5t-83 -16.5t-91 -28t-97.5 -39.5l-12 190q37 15 83 29t99.5 25.5t110.5 17.5t116 6q118 0 202 -35t129 -111.5
t45 -198.5v-119v-132v-120v-144v-158h-193l-12 132h-19q-29 -37 -72.5 -72t-103 -58t-132.5 -23zM460 149q48 0 94.5 21.5t86.5 61.5t69 97v176q-15 -9 -38.5 -17t-70.5 -18t-132 -25q-49 -8 -84 -29t-54.5 -54.5t-19.5 -79.5q0 -73 44.5 -103t104.5 -30zM807 -423
q-80 0 -133 21.5t-79 60t-26 87.5q0 50 23.5 95t67.5 85t105 75v46l100 11l57 -58q-80 -38 -134.5 -91.5t-54.5 -110.5q0 -41 28.5 -61.5t76.5 -20.5q33 0 56 5t36 9v-135q-22 -7 -55 -12.5t-68 -5.5z" />
    <glyph glyph-name="Cacute" unicode="&#x106;" horiz-adv-x="1369" 
d="M830 -24q-171 0 -308 54.5t-233 153.5t-147 234t-51 296q0 215 88 382t248 262t377 95q70 0 137 -9.5t127.5 -26t112.5 -36t91 -41.5l-20 -222q-77 47 -150 76t-142 42.5t-134 13.5q-142 0 -253 -64.5t-174 -184.5t-63 -287q0 -111 32.5 -208.5t97.5 -172t163 -117
t227 -42.5q50 0 99.5 6.5t99 20.5t98 38t95.5 57l16 -220q-43 -25 -94 -44.5t-107 -31.5t-115 -18t-118 -6zM619 1565q67 93 132.5 185t130.5 184l230 4q-56 -64 -110.5 -126t-109 -123t-107.5 -121z" />
    <glyph glyph-name="cacute" unicode="&#x107;" horiz-adv-x="982" 
d="M602 -20q-164 0 -278.5 67.5t-174.5 184.5t-60 265q0 149 56.5 267t167 186t271.5 68q58 0 115.5 -9.5t108.5 -26t90 -38.5l-18 -190q-56 32 -104.5 49t-89.5 23.5t-75 6.5q-138 0 -221 -89.5t-83 -241.5q0 -98 38 -175t113.5 -122t187.5 -45q41 0 82 7.5t80.5 23
t76.5 39.5l15 -191q-34 -16 -78 -29.5t-99 -21.5t-121 -8zM391 1146q66 101 132 202.5t131 201.5l230 6q-56 -70 -111 -138.5t-108.5 -135.5t-107.5 -134z" />
    <glyph glyph-name="Ccircumflex" unicode="&#x108;" horiz-adv-x="1369" 
d="M830 -24q-171 0 -308 54.5t-233 153.5t-147 234t-51 296q0 215 88 382t248 262t377 95q70 0 137 -9.5t127.5 -26t112.5 -36t91 -41.5l-20 -222q-77 47 -150 76t-142 42.5t-134 13.5q-142 0 -253 -64.5t-174 -184.5t-63 -287q0 -111 32.5 -208.5t97.5 -172t163 -117
t227 -42.5q50 0 99.5 6.5t99 20.5t98 38t95.5 57l16 -220q-43 -25 -94 -44.5t-107 -31.5t-115 -18t-118 -6zM994 1563q-60 72 -120 142.5t-121 143.5h58q-61 -72 -120 -141.5t-119 -140.5h-166q65 91 131 183t132 185h227q65 -93 131 -185.5t131 -183.5z" />
    <glyph glyph-name="ccircumflex" unicode="&#x109;" horiz-adv-x="982" 
d="M602 -20q-164 0 -278.5 67.5t-174.5 184.5t-60 265q0 149 56.5 267t167 186t271.5 68q58 0 115.5 -9.5t108.5 -26t90 -38.5l-18 -190q-56 32 -104.5 49t-89.5 23.5t-75 6.5q-138 0 -221 -89.5t-83 -241.5q0 -98 38 -175t113.5 -122t187.5 -45q41 0 82 7.5t80.5 23
t76.5 39.5l15 -191q-34 -16 -78 -29.5t-99 -21.5t-121 -8zM766 1144q-60 78 -118.5 155t-119.5 155h53q-60 -78 -118.5 -154t-118.5 -152h-166q65 100 131 201t132 203h227q66 -102 131.5 -203.5t130.5 -202.5z" />
    <glyph glyph-name="Cdotaccent" unicode="&#x10a;" horiz-adv-x="1369" 
d="M830 -24q-171 0 -308 54.5t-233 153.5t-147 234t-51 296q0 215 88 382t248 262t377 95q70 0 137 -9.5t127.5 -26t112.5 -36t91 -41.5l-20 -222q-77 47 -150 76t-142 42.5t-134 13.5q-142 0 -253 -64.5t-174 -184.5t-63 -287q0 -111 32.5 -208.5t97.5 -172t163 -117
t227 -42.5q50 0 99.5 6.5t99 20.5t98 38t95.5 57l16 -220q-43 -25 -94 -44.5t-107 -31.5t-115 -18t-118 -6zM780 1604q-64 0 -103.5 33t-39.5 105q0 68 39.5 103t105.5 35q67 0 105.5 -36.5t38.5 -101.5q0 -72 -39 -105t-107 -33z" />
    <glyph glyph-name="cdotaccent" unicode="&#x10b;" horiz-adv-x="982" 
d="M602 -20q-164 0 -278.5 67.5t-174.5 184.5t-60 265q0 149 56.5 267t167 186t271.5 68q58 0 115.5 -9.5t108.5 -26t90 -38.5l-18 -190q-56 32 -104.5 49t-89.5 23.5t-75 6.5q-138 0 -221 -89.5t-83 -241.5q0 -98 38 -175t113.5 -122t187.5 -45q41 0 82 7.5t80.5 23
t76.5 39.5l15 -191q-34 -16 -78 -29.5t-99 -21.5t-121 -8zM553 1196q-64 0 -103.5 33.5t-39.5 105.5q0 67 39.5 102t105.5 35q67 0 105.5 -36t38.5 -101q0 -72 -39 -105.5t-107 -33.5z" />
    <glyph glyph-name="Ccaron" unicode="&#x10c;" horiz-adv-x="1369" 
d="M830 -24q-171 0 -308 54.5t-233 153.5t-147 234t-51 296q0 215 88 382t248 262t377 95q70 0 137 -9.5t127.5 -26t112.5 -36t91 -41.5l-20 -222q-77 47 -150 76t-142 42.5t-134 13.5q-142 0 -253 -64.5t-174 -184.5t-63 -287q0 -111 32.5 -208.5t97.5 -172t163 -117
t227 -42.5q50 0 99.5 6.5t99 20.5t98 38t95.5 57l16 -220q-43 -25 -94 -44.5t-107 -31.5t-115 -18t-118 -6zM670 1564q-65 93 -131 185.5t-131 183.5l164 3q61 -72 120.5 -142.5t120.5 -143.5h-58q61 72 120.5 142t118.5 140h166q-65 -90 -130.5 -182.5t-132.5 -185.5h-227z
" />
    <glyph glyph-name="ccaron" unicode="&#x10d;" horiz-adv-x="982" 
d="M602 -20q-164 0 -278.5 67.5t-174.5 184.5t-60 265q0 149 56.5 267t167 186t271.5 68q58 0 115.5 -9.5t108.5 -26t90 -38.5l-18 -190q-56 32 -104.5 49t-89.5 23.5t-75 6.5q-138 0 -221 -89.5t-83 -241.5q0 -98 38 -175t113.5 -122t187.5 -45q41 0 82 7.5t80.5 23
t76.5 39.5l15 -191q-34 -16 -78 -29.5t-99 -21.5t-121 -8zM442 1136q-66 103 -131.5 204t-130.5 202l164 2q60 -77 119 -154t119 -156h-53q60 78 119 154l118 152h166q-65 -99 -131 -200t-132 -204h-227z" />
    <glyph glyph-name="Dcaron" unicode="&#x10e;" horiz-adv-x="1471" 
d="M169 0v227v242v480v247v230h173.5h173.5h178q164 0 291.5 -47.5t215.5 -139t133.5 -222.5t45.5 -299q0 -151 -40.5 -281.5t-128 -228.5t-230.5 -153t-348 -55h-166h-149.5h-148.5zM404 192h230q185 0 295 69t158 189t48 272q0 116 -28 210.5t-87 162t-150 103.5t-217 36
h-249v-158.5v-175.5v-380v-172.5v-155.5zM590 1564q-65 93 -131 185.5t-131 183.5l164 3q61 -72 120.5 -142.5t120.5 -143.5h-58q61 72 120.5 142t118.5 140h166q-65 -90 -130.5 -182.5t-132.5 -185.5h-227z" />
    <glyph glyph-name="dcaron" unicode="&#x10f;" horiz-adv-x="1193" 
d="M506 -24q-140 0 -232.5 73t-138 192.5t-45.5 258.5q0 147 48.5 265t142.5 186t228 68q65 0 120 -17t97 -47t70 -68h20v100v243.5v233.5l214 23v-242.5v-257.5v-551v-225v-211h-184l-12 134h-18q-38 -51 -84.5 -86t-102.5 -53.5t-123 -18.5zM579 163q54 0 98 17.5
t78.5 49.5t60.5 76v404q-27 40 -64 66.5t-81 40t-90 13.5q-92 0 -152 -45t-90 -120.5t-30 -166.5q0 -87 28.5 -163.5t88 -124t153.5 -47.5zM1177 1089q20 49 32.5 102.5t18.5 103.5t6 90v85v84l94 8q40 -3 63.5 -30.5t23.5 -75.5q0 -50 -12 -101t-31.5 -99.5t-44 -90.5
t-49.5 -73z" />
    <glyph glyph-name="Dcroat" unicode="&#x110;" horiz-adv-x="1471" 
d="M-25 618v165h179.5h161.5h94h162.5h178.5v-165h-178.5h-162.5h-94h-161.5h-179.5zM169 0v227v242v480v247v230h173.5h173.5h178q164 0 291.5 -47.5t215.5 -139t133.5 -222.5t45.5 -299q0 -151 -40.5 -281.5t-128 -228.5t-230.5 -153t-348 -55h-166h-149.5h-148.5z
M404 192h230q185 0 295 69t158 189t48 272q0 116 -28 210.5t-87 162t-150 103.5t-217 36h-249v-158.5v-175.5v-380v-172.5v-155.5z" />
    <glyph glyph-name="dcroat" unicode="&#x111;" horiz-adv-x="1161" 
d="M479 1174v147h168.5h150.5h89h152h168v-147h-168h-152h-89h-150.5h-168.5zM506 -24q-140 0 -232.5 73t-138 192.5t-45.5 258.5q0 147 48.5 265t142.5 186t228 68q65 0 120 -17t97 -47t70 -68h20v100v243.5v233.5l214 23v-242.5v-257.5v-551v-225v-211h-184l-12 134h-18
q-38 -51 -84.5 -86t-102.5 -53.5t-123 -18.5zM579 163q54 0 98 17.5t78.5 49.5t60.5 76v404q-27 40 -64 66.5t-81 40t-90 13.5q-92 0 -152 -45t-90 -120.5t-30 -166.5q0 -87 28.5 -163.5t88 -124t153.5 -47.5z" />
    <glyph glyph-name="Emacron" unicode="&#x112;" horiz-adv-x="1189" 
d="M168 0v227v242v481v246v230h908v-198h-208h-262h-339l131 162v-229.5v-246.5v-409v-241.5v-227.5l-117 162h344h239h217v-198h-913zM346 626v191h271h233.5h188.5v-191h-192.5h-230.5h-270zM302 1650v162h154.5h169.5h170h154v-162h-154h-170h-169.5h-154.5z" />
    <glyph glyph-name="emacron" unicode="&#x113;" horiz-adv-x="1054" 
d="M621 -23q-183 0 -301 68t-174.5 186t-56.5 271q0 151 54.5 268t159.5 182.5t254 65.5q129 0 222 -48.5t143 -144.5t50 -238q0 -38 -1.5 -68.5t-6.5 -60.5l-187 82q2 15 3 29.5t1 27.5q0 123 -61.5 190.5t-160.5 67.5q-77 0 -134 -42t-88.5 -115t-31.5 -168v-32
q0 -106 36.5 -182t112 -117t190.5 -41q44 0 96.5 7.5t105.5 23.5t100 41l8 -186q-38 -20 -89 -35t-112.5 -23.5t-131.5 -8.5zM175 458v146l661 8l128 -53v-101h-789zM230 1230v162h154.5h169.5h170h154v-162h-154h-170h-169.5h-154.5z" />
    <glyph glyph-name="Ebreve" unicode="&#x114;" horiz-adv-x="1189" 
d="M168 0v227v242v481v246v230h908v-198h-208h-262h-339l131 162v-229.5v-246.5v-409v-241.5v-227.5l-117 162h344h239h217v-198h-913zM346 626v191h271h233.5h188.5v-191h-192.5h-230.5h-270zM623 1552q-166 0 -252.5 96.5t-86.5 289.5l152 7q0 -124 47.5 -183t139.5 -59
q93 0 141 58t48 177h152q0 -129 -38 -215t-114 -128.5t-189 -42.5z" />
    <glyph glyph-name="ebreve" unicode="&#x115;" horiz-adv-x="1054" 
d="M621 -23q-183 0 -301 68t-174.5 186t-56.5 271q0 151 54.5 268t159.5 182.5t254 65.5q129 0 222 -48.5t143 -144.5t50 -238q0 -38 -1.5 -68.5t-6.5 -60.5l-187 82q2 15 3 29.5t1 27.5q0 123 -61.5 190.5t-160.5 67.5q-77 0 -134 -42t-88.5 -115t-31.5 -168v-32
q0 -106 36.5 -182t112 -117t190.5 -41q44 0 96.5 7.5t105.5 23.5t100 41l8 -186q-38 -20 -89 -35t-112.5 -23.5t-131.5 -8.5zM175 458v146l661 8l128 -53v-101h-789zM551 1132q-166 0 -252.5 96.5t-86.5 289.5l152 7q0 -123 47.5 -182.5t139.5 -59.5q93 0 141 58.5t48 176.5
h152q0 -128 -38 -214t-114 -129t-189 -43z" />
    <glyph glyph-name="Edotaccent" unicode="&#x116;" horiz-adv-x="1189" 
d="M168 0v227v242v481v246v230h908v-198h-208h-262h-339l131 162v-229.5v-246.5v-409v-241.5v-227.5l-117 162h344h239h217v-198h-913zM346 626v191h271h233.5h188.5v-191h-192.5h-230.5h-270zM623 1604q-64 0 -103.5 33t-39.5 105q0 68 39.5 103t105.5 35q67 0 105.5 -36.5
t38.5 -101.5q0 -72 -39 -105t-107 -33z" />
    <glyph glyph-name="edotaccent" unicode="&#x117;" horiz-adv-x="1054" 
d="M621 -23q-183 0 -301 68t-174.5 186t-56.5 271q0 151 54.5 268t159.5 182.5t254 65.5q129 0 222 -48.5t143 -144.5t50 -238q0 -38 -1.5 -68.5t-6.5 -60.5l-187 82q2 15 3 29.5t1 27.5q0 123 -61.5 190.5t-160.5 67.5q-77 0 -134 -42t-88.5 -115t-31.5 -168v-32
q0 -106 36.5 -182t112 -117t190.5 -41q44 0 96.5 7.5t105.5 23.5t100 41l8 -186q-38 -20 -89 -35t-112.5 -23.5t-131.5 -8.5zM175 458v146l661 8l128 -53v-101h-789zM551 1196q-64 0 -103.5 33.5t-39.5 105.5q0 67 39.5 102t105.5 35q67 0 105.5 -36t38.5 -101
q0 -72 -39 -105.5t-107 -33.5z" />
    <glyph glyph-name="Eogonek" unicode="&#x118;" horiz-adv-x="1189" 
d="M168 0v227v242v481v246v230h908v-198h-208h-262h-339l131 162v-229.5v-246.5v-409v-241.5v-227.5l-117 162h344h239h217v-198h-913zM346 626v191h271h233.5h188.5v-191h-192.5h-230.5h-270zM965 -423q-80 0 -133 21.5t-79 60t-26 87.5q0 50 23.5 95t67.5 85t105 75v44
l112 10l45 -55q-80 -38 -134.5 -91.5t-54.5 -110.5q0 -41 28.5 -61.5t76.5 -20.5q33 0 56 5t36 9v-135q-22 -7 -55 -12.5t-68 -5.5z" />
    <glyph glyph-name="eogonek" unicode="&#x119;" horiz-adv-x="1054" 
d="M621 -23q-183 0 -301 68t-174.5 186t-56.5 271q0 151 54.5 268t159.5 182.5t254 65.5q129 0 222 -48.5t143 -144.5t50 -238q0 -38 -1.5 -68.5t-6.5 -60.5l-187 82q2 15 3 29.5t1 27.5q0 123 -61.5 190.5t-160.5 67.5q-77 0 -134 -42t-88.5 -115t-31.5 -168v-32
q0 -106 36.5 -182t112 -117t190.5 -41q44 0 96.5 7.5t105.5 23.5t100 41l8 -186q-38 -20 -89 -35t-112.5 -23.5t-131.5 -8.5zM175 458v146l661 8l128 -53v-101h-789zM681 -423q-80 0 -133 21.5t-79 60t-26 87.5q0 50 23.5 95t67.5 85t105 75v44l112 10l45 -55
q-80 -38 -134.5 -91.5t-54.5 -110.5q0 -41 28.5 -61.5t76.5 -20.5q33 0 56 5t36 9v-135q-22 -7 -55 -12.5t-68 -5.5z" />
    <glyph glyph-name="Ecaron" unicode="&#x11a;" horiz-adv-x="1189" 
d="M168 0v227v242v481v246v230h908v-198h-208h-262h-339l131 162v-229.5v-246.5v-409v-241.5v-227.5l-117 162h344h239h217v-198h-913zM346 626v191h271h233.5h188.5v-191h-192.5h-230.5h-270zM512 1564q-65 93 -131 185.5t-131 183.5l164 3q61 -72 120.5 -142.5
t120.5 -143.5h-58q61 72 120.5 142t118.5 140h166q-65 -90 -130.5 -182.5t-132.5 -185.5h-227z" />
    <glyph glyph-name="ecaron" unicode="&#x11b;" horiz-adv-x="1054" 
d="M621 -23q-183 0 -301 68t-174.5 186t-56.5 271q0 151 54.5 268t159.5 182.5t254 65.5q129 0 222 -48.5t143 -144.5t50 -238q0 -38 -1.5 -68.5t-6.5 -60.5l-187 82q2 15 3 29.5t1 27.5q0 123 -61.5 190.5t-160.5 67.5q-77 0 -134 -42t-88.5 -115t-31.5 -168v-32
q0 -106 36.5 -182t112 -117t190.5 -41q44 0 96.5 7.5t105.5 23.5t100 41l8 -186q-38 -20 -89 -35t-112.5 -23.5t-131.5 -8.5zM175 458v146l661 8l128 -53v-101h-789zM440 1136q-66 103 -131.5 204t-130.5 202l164 2q60 -77 119 -154t119 -156h-53q60 78 119 154l118 152h166
q-65 -99 -131 -200t-132 -204h-227z" />
    <glyph glyph-name="Gcircumflex" unicode="&#x11c;" horiz-adv-x="1463" 
d="M854 -23q-185 0 -327 55.5t-239 155t-147 234t-50 293.5q0 216 89 382.5t252.5 261t387.5 94.5q75 0 146 -10t134 -26.5t116.5 -36.5t92.5 -40l-19 -222q-83 47 -161.5 76t-151.5 42.5t-140 13.5q-110 0 -201.5 -36t-159.5 -105t-105 -168.5t-37 -226.5q0 -113 32 -211.5
t98 -173.5t168 -117t241 -42q58 0 114 6t109.5 18.5t106 32t102.5 47.5l28 -215q-34 -15 -86 -29.5t-115.5 -26.5t-134 -19t-143.5 -7zM1111 55v189v162v168.5v149.5h222v-149.5v-168.5v-161.5v-185.5zM1006 1563q-60 72 -120 142.5t-121 143.5h58q-61 -72 -120 -141.5
t-119 -140.5h-166q65 91 131 183t132 185h227q65 -93 131 -185.5t131 -183.5z" />
    <glyph glyph-name="gcircumflex" unicode="&#x11d;" horiz-adv-x="1090" 
d="M485 -407q-111 0 -186 19.5t-119.5 53t-63 75t-18.5 84.5q0 67 32 111.5t75 69.5t74 35v17q-16 5 -39.5 21.5t-42.5 47t-19 76.5q0 34 12.5 64t39 54.5t68.5 42.5v17q-25 10 -61 33t-70.5 60t-58 91t-23.5 127q0 95 47 169t137 115.5t218 41.5q50 0 88 -5t79 -10.5
t101 -5.5h295v-154h-186.5h-184.5l59 98q79 -42 115 -109t36 -153q0 -100 -41.5 -168.5t-114.5 -110.5t-168 -63q-97 -23 -143.5 -40.5t-46.5 -51.5q0 -24 20 -37t62 -19t110 -6h42q134 0 223 -21.5t133.5 -73.5t44.5 -142q0 -92 -46.5 -159t-124.5 -110t-170 -63.5
t-184 -20.5zM507 -240q101 0 168 26.5t100 62t33 62.5q0 32 -20 54t-75 33.5t-159 11.5h-35q-53 -2 -105 -19.5t-86.5 -47t-34.5 -67.5q0 -22 11.5 -43t37 -37.5t66.5 -26t99 -9.5zM478 486q31 5 68 15.5t70 30.5t54 52t21 79q0 63 -32 102.5t-79.5 58.5t-95.5 19
q-51 0 -96.5 -19t-75 -57t-29.5 -93q0 -54 28 -93t72.5 -63t94.5 -32zM733 1144q-60 78 -118.5 155t-119.5 155h53q-60 -78 -118.5 -154t-118.5 -152h-166q65 100 131 201t132 203h227q66 -102 131.5 -203.5t130.5 -202.5z" />
    <glyph glyph-name="Gbreve" unicode="&#x11e;" horiz-adv-x="1463" 
d="M854 -23q-185 0 -327 55.5t-239 155t-147 234t-50 293.5q0 216 89 382.5t252.5 261t387.5 94.5q75 0 146 -10t134 -26.5t116.5 -36.5t92.5 -40l-19 -222q-83 47 -161.5 76t-151.5 42.5t-140 13.5q-110 0 -201.5 -36t-159.5 -105t-105 -168.5t-37 -226.5q0 -113 32 -211.5
t98 -173.5t168 -117t241 -42q58 0 114 6t109.5 18.5t106 32t102.5 47.5l28 -215q-34 -15 -86 -29.5t-115.5 -26.5t-134 -19t-143.5 -7zM1111 55v189v162v168.5v149.5h222v-149.5v-168.5v-161.5v-185.5zM793 1552q-166 0 -252.5 96.5t-86.5 289.5l152 7q0 -124 47.5 -183
t139.5 -59q93 0 141 58t48 177h152q0 -129 -38 -215t-114 -128.5t-189 -42.5z" />
    <glyph glyph-name="gbreve" unicode="&#x11f;" horiz-adv-x="1090" 
d="M485 -407q-111 0 -186 19.5t-119.5 53t-63 75t-18.5 84.5q0 67 32 111.5t75 69.5t74 35v17q-16 5 -39.5 21.5t-42.5 47t-19 76.5q0 34 12.5 64t39 54.5t68.5 42.5v17q-25 10 -61 33t-70.5 60t-58 91t-23.5 127q0 95 47 169t137 115.5t218 41.5q50 0 88 -5t79 -10.5
t101 -5.5h295v-154h-186.5h-184.5l59 98q79 -42 115 -109t36 -153q0 -100 -41.5 -168.5t-114.5 -110.5t-168 -63q-97 -23 -143.5 -40.5t-46.5 -51.5q0 -24 20 -37t62 -19t110 -6h42q134 0 223 -21.5t133.5 -73.5t44.5 -142q0 -92 -46.5 -159t-124.5 -110t-170 -63.5
t-184 -20.5zM507 -240q101 0 168 26.5t100 62t33 62.5q0 32 -20 54t-75 33.5t-159 11.5h-35q-53 -2 -105 -19.5t-86.5 -47t-34.5 -67.5q0 -22 11.5 -43t37 -37.5t66.5 -26t99 -9.5zM478 486q31 5 68 15.5t70 30.5t54 52t21 79q0 63 -32 102.5t-79.5 58.5t-95.5 19
q-51 0 -96.5 -19t-75 -57t-29.5 -93q0 -54 28 -93t72.5 -63t94.5 -32zM520 1132q-166 0 -252.5 96.5t-86.5 289.5l152 7q0 -123 47.5 -182.5t139.5 -59.5q93 0 141 58.5t48 176.5h152q0 -128 -38 -214t-114 -129t-189 -43z" />
    <glyph glyph-name="Gdotaccent" unicode="&#x120;" horiz-adv-x="1463" 
d="M854 -23q-185 0 -327 55.5t-239 155t-147 234t-50 293.5q0 216 89 382.5t252.5 261t387.5 94.5q75 0 146 -10t134 -26.5t116.5 -36.5t92.5 -40l-19 -222q-83 47 -161.5 76t-151.5 42.5t-140 13.5q-110 0 -201.5 -36t-159.5 -105t-105 -168.5t-37 -226.5q0 -113 32 -211.5
t98 -173.5t168 -117t241 -42q58 0 114 6t109.5 18.5t106 32t102.5 47.5l28 -215q-34 -15 -86 -29.5t-115.5 -26.5t-134 -19t-143.5 -7zM1111 55v189v162v168.5v149.5h222v-149.5v-168.5v-161.5v-185.5zM792 1604q-64 0 -103.5 33t-39.5 105q0 68 39.5 103t105.5 35
q67 0 105.5 -36.5t38.5 -101.5q0 -72 -39 -105t-107 -33z" />
    <glyph glyph-name="gdotaccent" unicode="&#x121;" horiz-adv-x="1090" 
d="M485 -407q-111 0 -186 19.5t-119.5 53t-63 75t-18.5 84.5q0 67 32 111.5t75 69.5t74 35v17q-16 5 -39.5 21.5t-42.5 47t-19 76.5q0 34 12.5 64t39 54.5t68.5 42.5v17q-25 10 -61 33t-70.5 60t-58 91t-23.5 127q0 95 47 169t137 115.5t218 41.5q50 0 88 -5t79 -10.5
t101 -5.5h295v-154h-186.5h-184.5l59 98q79 -42 115 -109t36 -153q0 -100 -41.5 -168.5t-114.5 -110.5t-168 -63q-97 -23 -143.5 -40.5t-46.5 -51.5q0 -24 20 -37t62 -19t110 -6h42q134 0 223 -21.5t133.5 -73.5t44.5 -142q0 -92 -46.5 -159t-124.5 -110t-170 -63.5
t-184 -20.5zM507 -240q101 0 168 26.5t100 62t33 62.5q0 32 -20 54t-75 33.5t-159 11.5h-35q-53 -2 -105 -19.5t-86.5 -47t-34.5 -67.5q0 -22 11.5 -43t37 -37.5t66.5 -26t99 -9.5zM478 486q31 5 68 15.5t70 30.5t54 52t21 79q0 63 -32 102.5t-79.5 58.5t-95.5 19
q-51 0 -96.5 -19t-75 -57t-29.5 -93q0 -54 28 -93t72.5 -63t94.5 -32zM520 1196q-64 0 -103.5 33.5t-39.5 105.5q0 67 39.5 102t105.5 35q67 0 105.5 -36t38.5 -101q0 -72 -39 -105.5t-107 -33.5z" />
    <glyph glyph-name="uni0122" unicode="&#x122;" horiz-adv-x="1463" 
d="M854 -23q-185 0 -327 55.5t-239 155t-147 234t-50 293.5q0 216 89 382.5t252.5 261t387.5 94.5q75 0 146 -10t134 -26.5t116.5 -36.5t92.5 -40l-19 -222q-83 47 -161.5 76t-151.5 42.5t-140 13.5q-110 0 -201.5 -36t-159.5 -105t-105 -168.5t-37 -226.5q0 -113 32 -211.5
t98 -173.5t168 -117t241 -42q58 0 114 6t109.5 18.5t106 32t102.5 47.5l28 -215q-34 -15 -86 -29.5t-115.5 -26.5t-134 -19t-143.5 -7zM1111 55v189v162v168.5v149.5h222v-149.5v-168.5v-161.5v-185.5zM645 -573q39 58 48.5 115t9.5 135v74v74l101 8q62 -3 93 -34.5
t31 -81.5q0 -56 -23 -110t-64.5 -99.5t-98.5 -77.5z" />
    <glyph glyph-name="uni0123" unicode="&#x123;" horiz-adv-x="1090" 
d="M485 -407q-111 0 -186 19.5t-119.5 53t-63 75t-18.5 84.5q0 67 32 111.5t75 69.5t74 35v17q-16 5 -39.5 21.5t-42.5 47t-19 76.5q0 34 12.5 64t39 54.5t68.5 42.5v17q-25 10 -61 33t-70.5 60t-58 91t-23.5 127q0 95 47 169t137 115.5t218 41.5q50 0 88 -5t79 -10.5
t101 -5.5h295v-154h-186.5h-184.5l59 98q79 -42 115 -109t36 -153q0 -100 -41.5 -168.5t-114.5 -110.5t-168 -63q-97 -23 -143.5 -40.5t-46.5 -51.5q0 -24 20 -37t62 -19t110 -6h42q134 0 223 -21.5t133.5 -73.5t44.5 -142q0 -92 -46.5 -159t-124.5 -110t-170 -63.5
t-184 -20.5zM507 -240q101 0 168 26.5t100 62t33 62.5q0 32 -20 54t-75 33.5t-159 11.5h-35q-53 -2 -105 -19.5t-86.5 -47t-34.5 -67.5q0 -22 11.5 -43t37 -37.5t66.5 -26t99 -9.5zM478 486q31 5 68 15.5t70 30.5t54 52t21 79q0 63 -32 102.5t-79.5 58.5t-95.5 19
q-51 0 -96.5 -19t-75 -57t-29.5 -93q0 -54 28 -93t72.5 -63t94.5 -32zM509 1196q-61 4 -92.5 35.5t-31.5 80.5q0 56 23 110t64.5 99.5t98.5 77.5l97 3q-38 -58 -48 -114.5t-10 -135.5v-73.5v-74.5z" />
    <glyph glyph-name="Hcircumflex" unicode="&#x124;" horiz-adv-x="1500" 
d="M1096 0v227v242v480v247v230h235v-230v-247v-480v-242v-227h-235zM169 0v227v242v480v247v230h235v-230v-247v-480v-242v-227h-235zM331 621v199h844v-199h-844zM961 1563q-60 72 -120 142.5t-121 143.5h58q-61 -72 -120 -141.5t-119 -140.5h-166q65 91 131 183t132 185
h227q65 -93 131 -185.5t131 -183.5z" />
    <glyph glyph-name="hcircumflex" unicode="&#x125;" horiz-adv-x="1150" 
d="M154 0v211v225v551v243.5v233.5l214 23v-242v-258v-148h20q30 42 76 83.5t108 69t142 27.5q155 0 229.5 -90t74.5 -264v-117.5v-111.5v-223.5v-212.5h-214v211.5v213.5v178q0 108 -37 163t-136 55q-58 0 -106 -23.5t-87 -63t-70 -87.5v-222v-215.5v-209.5h-214zM755 1604
q-60 78 -118.5 155t-119.5 155h53q-60 -78 -118.5 -154t-118.5 -152h-166q65 100 131 201t132 203h227q66 -102 131.5 -203.5t130.5 -202.5z" />
    <glyph glyph-name="Hbar" unicode="&#x126;" horiz-adv-x="1500" 
d="M1096 0v227v242v480v247v230h235v-154v-154v-169v-480v-242v-227h-235zM169 0v227v242v480v169v154v154h235v-230v-247v-480v-242v-227h-235zM331 601v191h844v-191h-844zM17 1033v157h203h184h694h184h203v-157h-203h-184h-694h-184h-203z" />
    <glyph glyph-name="hbar" unicode="&#x127;" horiz-adv-x="1150" 
d="M-23 1174v147h168.5h150.5h89h152h168v-147h-168h-152h-89h-150.5h-168.5zM154 0v211v225v551v243.5v233.5l214 23v-242v-258v-148h20q30 42 76 83.5t108 69t142 27.5q155 0 229.5 -90t74.5 -264v-117.5v-111.5v-223.5v-212.5h-214v211.5v213.5v178q0 108 -37 163
t-136 55q-58 0 -106 -23.5t-87 -63t-70 -87.5v-222v-215.5v-209.5h-214z" />
    <glyph glyph-name="Itilde" unicode="&#x128;" horiz-adv-x="585" 
d="M173 0v227v242v480v247v230h239v-230v-247v-480v-242v-227h-239zM461 1556q-61 0 -105.5 25t-80 58t-66.5 58t-64 25q-54 0 -76 -36t-26 -97h-121q0 141 54.5 216t147.5 75q60 0 103.5 -25t78 -58t66 -58t65.5 -25q53 0 74 37t24 97h121q0 -141 -52.5 -216.5
t-142.5 -75.5z" />
    <glyph glyph-name="itilde" unicode="&#x129;" horiz-adv-x="530" 
d="M158 0v211v225v100v169v147v142l214 7v-144v-149v-172v-100v-225v-211h-214zM420 1137q-55 0 -95 25t-72 58t-59 58t-56 25q-45 0 -65 -36.5t-24 -97.5h-117q0 141 50.5 216.5t134.5 75.5q55 0 94.5 -25t70.5 -58t58.5 -58t57.5 -25q45 0 62.5 36.5t20.5 96.5h118
q0 -140 -48.5 -215.5t-130.5 -75.5z" />
    <glyph glyph-name="Imacron" unicode="&#x12a;" horiz-adv-x="585" 
d="M173 0v227v242v480v247v230h239v-230v-247v-480v-242v-227h-239zM-35 1650v162h154.5h169.5h170h154v-162h-154h-170h-169.5h-154.5z" />
    <glyph glyph-name="imacron" unicode="&#x12b;" horiz-adv-x="530" 
d="M158 0v211v225v100v169v147v142l214 7v-144v-149v-172v-100v-225v-211h-214zM-5 1230v162h129h141h142h128v-162h-128h-142h-141.5h-128.5z" />
    <glyph glyph-name="Ibreve" unicode="&#x12c;" horiz-adv-x="585" 
d="M173 0v227v242v480v247v230h239v-230v-247v-480v-242v-227h-239zM286 1552q-166 0 -252.5 96.5t-86.5 289.5l152 7q0 -124 47.5 -183t139.5 -59q93 0 141 58t48 177h152q0 -129 -38 -215t-114 -128.5t-189 -42.5z" />
    <glyph glyph-name="ibreve" unicode="&#x12d;" horiz-adv-x="530" 
d="M158 0v211v225v100v169v147v142l214 7v-144v-149v-172v-100v-225v-211h-214zM263 1132q-153 0 -231.5 97.5t-78.5 288.5l151 7q0 -123 39.5 -182.5t119.5 -59.5t120 58.5t40 176.5h150q0 -128 -35 -214t-104 -129t-171 -43z" />
    <glyph glyph-name="Iogonek" unicode="&#x12e;" horiz-adv-x="585" 
d="M173 0v227v242v480v247v230h239v-230v-247v-480v-242v-227h-239zM296 -423q-80 0 -133 21.5t-79 60t-26 87.5q0 50 23.5 95t67.5 85t105 75v44l112 10l45 -55q-80 -38 -134.5 -91.5t-54.5 -110.5q0 -41 28.5 -61.5t76.5 -20.5q33 0 56 5t36 9v-135q-22 -7 -55 -12.5
t-68 -5.5z" />
    <glyph glyph-name="iogonek" unicode="&#x12f;" horiz-adv-x="530" 
d="M158 0v211v225v100v169v147v142l214 7v-144v-149v-172v-100v-225v-211h-214zM262 1196q-64 0 -103.5 33.5t-39.5 105.5q0 67 39.5 102t105.5 35q67 0 105.5 -36t38.5 -101q0 -72 -39 -105.5t-107 -33.5zM256 -423q-80 0 -133 21.5t-79 60t-26 87.5q0 50 23.5 95t67.5 85
t105 75v44l112 10l45 -55q-80 -38 -134.5 -91.5t-54.5 -110.5q0 -41 28.5 -61.5t76.5 -20.5q33 0 56 5t36 9v-135q-22 -7 -55 -12.5t-68 -5.5z" />
    <glyph glyph-name="Idotaccent" unicode="&#x130;" horiz-adv-x="585" 
d="M173 0v227v242v480v247v230h239v-230v-247v-480v-242v-227h-239zM286 1604q-64 0 -103.5 33t-39.5 105q0 68 39.5 103t105.5 35q67 0 105.5 -36.5t38.5 -101.5q0 -72 -39 -105t-107 -33z" />
    <glyph glyph-name="dotlessi" unicode="&#x131;" horiz-adv-x="530" 
d="M158 0v211v225v100v169v147v142l214 7v-144v-149v-172v-100v-225v-211h-214z" />
    <glyph glyph-name="Jcircumflex" unicode="&#x134;" horiz-adv-x="603" 
d="M21 -314q56 67 94.5 135.5t58.5 146.5t21 176v435v370v247v230h235v-230v-247v-333v-251.5v-238.5q0 -82 -14 -148.5t-39 -119.5t-57 -95t-68 -77h-231zM519 1563q-60 72 -120 142.5t-121 143.5h58q-61 -72 -120 -141.5t-119 -140.5h-166q65 91 131 183t132 185h227
q65 -93 131 -185.5t131 -183.5z" />
    <glyph glyph-name="jcircumflex" unicode="&#x135;" horiz-adv-x="526" 
d="M0 -391q56 64 91 131.5t51 147t16 178.5v370v100v169v147v142l214 7v-144v-149v-172v-195.5v-157.5v-143q0 -75 -10.5 -138t-30.5 -115.5t-48.5 -95t-64.5 -75.5zM442 1144q-41 67 -83.5 134.5t-84.5 136t-86 137.5h178q57 -102 114.5 -202.5t115.5 -203.5zM-68 1148
q59 101 116 201t116 203h176q-43 -69 -85 -136.5t-84 -134.5t-83 -133h-156z" />
    <glyph glyph-name="uni0136" unicode="&#x136;" horiz-adv-x="1362" 
d="M1021 0q-85 100 -159 188t-145 172l-241 285h-95v188h93l211 236q75 83 147.5 165.5t169.5 191.5h278q-104 -113 -202.5 -221.5t-197.5 -218.5l-250 -276l-4 104l278 -332q65 -76 138.5 -164t144 -171.5t123.5 -146.5h-289zM169 0v227v242v480v247v230h234v-230v-247
v-480v-242v-227h-234zM544 -573q39 58 48.5 115t9.5 135v74v74l101 8q62 -3 93 -34.5t31 -81.5q0 -56 -23 -110t-64.5 -99.5t-98.5 -77.5z" />
    <glyph glyph-name="uni0137" unicode="&#x137;" horiz-adv-x="1108" 
d="M805 0q-59 66 -118.5 131.5t-118.5 129.5l-150 165h-72v148h80l128 148q59 68 118 136.5t117 135.5h256q-81 -88 -161 -176t-159 -176l-159 -173l-8 99l188 -213q82 -89 165 -178t164 -177h-270zM154 0v211v225v551v243.5v233.5l214 23v-242v-258v-589v-202v-196h-214z
M414 -573q39 58 48.5 115t9.5 135v74v74l101 8q62 -3 93 -34.5t31 -81.5q0 -56 -23 -110t-64.5 -99.5t-98.5 -77.5z" />
    <glyph glyph-name="kgreenlandic" unicode="&#x138;" horiz-adv-x="1108" 
d="M154 0v211v225v108v167v143v140l214 8v-214v-220v-170v-202v-196h-214zM805 0q-59 66 -118.5 131.5t-118.5 129.5l-150 165h-72v148h80l128 148q59 68 118 136.5t117 135.5h256q-81 -88 -161 -176t-159 -176l-159 -173l-8 99l188 -213q82 -89 165 -178t164 -177h-270z
" />
    <glyph glyph-name="Lacute" unicode="&#x139;" horiz-adv-x="1150" 
d="M169 0v227v242v480v247v230h235v-230v-247v-443v-242.5v-226.5l-85 170h268h194.5h156.5h148v-207h-917zM259 1565q67 93 132.5 185t130.5 184l230 4q-56 -64 -110.5 -126t-109 -123t-107.5 -121z" />
    <glyph glyph-name="lacute" unicode="&#x13a;" horiz-adv-x="522" 
d="M154 0v211v225v551v244v233l214 23v-242.5v-257.5v-551v-225v-211h-214zM96 1606q66 101 132 202.5t131 201.5l230 6q-56 -70 -111 -138.5t-108.5 -135.5t-107.5 -134z" />
    <glyph glyph-name="uni013B" unicode="&#x13b;" horiz-adv-x="1150" 
d="M169 0v227v242v480v247v230h235v-230v-247v-443v-242.5v-226.5l-85 170h268h194.5h156.5h148v-207h-917zM470 -573q39 58 48.5 115t9.5 135v74v74l101 8q62 -3 93 -34.5t31 -81.5q0 -56 -23 -110t-64.5 -99.5t-98.5 -77.5z" />
    <glyph glyph-name="uni013C" unicode="&#x13c;" horiz-adv-x="522" 
d="M154 0v211v225v551v244v233l214 23v-242.5v-257.5v-551v-225v-211h-214zM110 -573q39 58 48.5 115t9.5 135v74v74l101 8q62 -3 93 -34.5t31 -81.5q0 -56 -23 -110t-64.5 -99.5t-98.5 -77.5z" />
    <glyph glyph-name="Lcaron" unicode="&#x13d;" horiz-adv-x="1150" 
d="M169 0v227v242v480v247v230h235v-230v-247v-443v-242.5v-226.5l-85 170h268h194.5h156.5h148v-207h-917zM643 1089q20 49 32.5 102.5t18.5 103.5t6 90v85v84l94 8q40 -3 63.5 -30.5t23.5 -75.5q0 -50 -12 -101t-31.5 -99.5t-44 -90.5t-49.5 -73z" />
    <glyph glyph-name="lcaron" unicode="&#x13e;" horiz-adv-x="554" 
d="M154 0v211v225v551v244v233l214 23v-242.5v-257.5v-551v-225v-211h-214zM515 1089q20 49 32.5 102.5t18.5 103.5t6 90v85v84l94 8q40 -3 63.5 -30.5t23.5 -75.5q0 -50 -12 -101t-31.5 -99.5t-44 -90.5t-49.5 -73z" />
    <glyph glyph-name="Ldot" unicode="&#x13f;" horiz-adv-x="1150" 
d="M169 0v227v242v480v247v230h235v-230v-247v-443v-242.5v-226.5l-85 170h268h194.5h156.5h148v-207h-917zM866 586q-65 0 -104.5 33.5t-39.5 105.5q0 67 39.5 102t106.5 35q66 0 104.5 -36.5t38.5 -100.5q0 -72 -38.5 -105.5t-106.5 -33.5z" />
    <glyph glyph-name="ldot" unicode="&#x140;" horiz-adv-x="847" 
d="M154 0v211v225v551v244v233l214 23v-242.5v-257.5v-551v-225v-211h-214zM683 587q-65 0 -104.5 33.5t-39.5 105.5q0 67 39.5 102t106.5 35q66 0 104.5 -36.5t38.5 -100.5q0 -72 -38.5 -105.5t-106.5 -33.5z" />
    <glyph glyph-name="Lslash" unicode="&#x141;" horiz-adv-x="1174" 
d="M193 0v227v242v480v247v230h235v-230v-247v-443v-242.5v-226.5l-85 170h268h194.5h156.5h148v-207h-917zM22 533l-48 158q100 30 191.5 57t173.5 51l100 30q82 24 174 51.5t191 56.5l45 -158q-97 -29 -189 -56t-175 -52l-99 -30q-82 -24 -173.5 -51.5t-190.5 -56.5z" />
    <glyph glyph-name="lslash" unicode="&#x142;" horiz-adv-x="642" 
d="M19 534l-41 139q78 24 147.5 44.5t135.5 39.5l75 22q65 20 136 41t149 43l41 -139q-78 -23 -150 -44.5t-136 -40.5l-74 -22q-66 -19 -135.5 -39.5t-147.5 -43.5zM214 0v211v225v551v244v233l214 23v-242.5v-257.5v-551v-225v-211h-214z" />
    <glyph glyph-name="Nacute" unicode="&#x143;" horiz-adv-x="1505" 
d="M169 0v227v242v480v247v230h208q118 -168 225.5 -321t212.5 -304l281 -399h19v547v247v230h221v-230v-247v-480v-242v-227h-205q-97 139 -204.5 291.5t-235.5 334.5l-283 403h-18v-560v-242v-227h-221zM589 1565q67 93 132.5 185t130.5 184l230 4q-56 -64 -110.5 -126
t-109 -123t-107.5 -121z" />
    <glyph glyph-name="nacute" unicode="&#x144;" horiz-adv-x="1150" 
d="M154 0v211v225v100v226.5v231.5l183 12l8 -180h21q32 46 81.5 90.5t115.5 73.5t151 29q155 0 229.5 -90t74.5 -264v-117.5v-111.5v-223.5v-212.5h-214v211.5v213.5v178q0 108 -37 163t-136 55q-58 0 -106 -23.5t-87 -63t-70 -87.5v-222v-215.5v-209.5h-214zM422 1146
q66 101 132 202.5t131 201.5l230 6q-56 -70 -111 -138.5t-108.5 -135.5t-107.5 -134z" />
    <glyph glyph-name="uni0145" unicode="&#x145;" horiz-adv-x="1505" 
d="M169 0v227v242v480v247v230h208q118 -168 225.5 -321t212.5 -304l281 -399h19v547v247v230h221v-230v-247v-480v-242v-227h-205q-97 139 -204.5 291.5t-235.5 334.5l-283 403h-18v-560v-242v-227h-221zM603 -573q39 58 48.5 115t9.5 135v74v74l101 8q62 -3 93 -34.5
t31 -81.5q0 -56 -23 -110t-64.5 -99.5t-98.5 -77.5z" />
    <glyph glyph-name="uni0146" unicode="&#x146;" horiz-adv-x="1150" 
d="M154 0v211v225v100v226.5v231.5l183 12l8 -180h21q32 46 81.5 90.5t115.5 73.5t151 29q155 0 229.5 -90t74.5 -264v-117.5v-111.5v-223.5v-212.5h-214v211.5v213.5v178q0 108 -37 163t-136 55q-58 0 -106 -23.5t-87 -63t-70 -87.5v-222v-215.5v-209.5h-214zM436 -573
q39 58 48.5 115t9.5 135v74v74l101 8q62 -3 93 -34.5t31 -81.5q0 -56 -23 -110t-64.5 -99.5t-98.5 -77.5z" />
    <glyph glyph-name="Ncaron" unicode="&#x147;" horiz-adv-x="1505" 
d="M169 0v227v242v480v247v230h208q118 -168 225.5 -321t212.5 -304l281 -399h19v547v247v230h221v-230v-247v-480v-242v-227h-205q-97 139 -204.5 291.5t-235.5 334.5l-283 403h-18v-560v-242v-227h-221zM640 1564q-65 93 -131 185.5t-131 183.5l164 3q61 -72 120.5 -142.5
t120.5 -143.5h-58q61 72 120.5 142t118.5 140h166q-65 -90 -130.5 -182.5t-132.5 -185.5h-227z" />
    <glyph glyph-name="ncaron" unicode="&#x148;" horiz-adv-x="1150" 
d="M154 0v211v225v100v226.5v231.5l183 12l8 -180h21q32 46 81.5 90.5t115.5 73.5t151 29q155 0 229.5 -90t74.5 -264v-117.5v-111.5v-223.5v-212.5h-214v211.5v213.5v178q0 108 -37 163t-136 55q-58 0 -106 -23.5t-87 -63t-70 -87.5v-222v-215.5v-209.5h-214zM473 1136
q-66 103 -131.5 204t-130.5 202l164 2q60 -77 119 -154t119 -156h-53q60 78 119 154l118 152h166q-65 -99 -131 -200t-132 -204h-227z" />
    <glyph glyph-name="Eng" unicode="&#x14a;" horiz-adv-x="1505" 
d="M928 -384q56 67 94.5 135t58.5 146.5t20 175.5v53l82 -126h-52q-98 140 -204.5 292t-235.5 334l-283 403h-18v-560v-242v-227h-221v227v242v480v247v230h208q119 -168 226 -320.5t212 -304.5l281 -399h19v547v247v230h221v-230v-247v-402v-250v-238q0 -82 -14 -149
t-38.5 -120.5t-57 -96t-68.5 -77.5h-230z" />
    <glyph glyph-name="eng" unicode="&#x14b;" horiz-adv-x="1150" 
d="M646 -391q56 64 91 131.5t51 147t16 178.5v359v178q0 108 -37 163t-136 55q-58 0 -106 -23.5t-87 -63t-70 -87.5v-222v-215.5v-209.5h-214v211v225v100v226.5v231.5l183 12l8 -180h21q32 46 81.5 90.5t115.5 73.5t151 29q155 0 229.5 -90t74.5 -264v-66.5v-62.5v-195.5
v-157.5v-143q0 -75 -10 -138t-30 -115.5t-49 -95t-65 -75.5z" />
    <glyph glyph-name="Omacron" unicode="&#x14c;" horiz-adv-x="1632" 
d="M823 -24q-186 0 -323.5 59t-228 162t-135.5 236t-45 281q0 207 83.5 374.5t245 266t396.5 98.5q178 0 313.5 -57t227 -158.5t137.5 -235.5t46 -288q0 -211 -84 -378t-244.5 -263.5t-388.5 -96.5zM818 174q123 0 213 44t149 120t87.5 173t28.5 203q0 114 -31 212
t-91.5 172t-149.5 115.5t-206 41.5q-121 0 -211 -43t-150.5 -119t-90.5 -173t-30 -206q0 -108 29 -205t88.5 -172.5t150.5 -119t214 -43.5zM492 1650v162h154.5h169.5h170h154v-162h-154h-170h-169.5h-154.5z" />
    <glyph glyph-name="omacron" unicode="&#x14d;" horiz-adv-x="1195" 
d="M602 -24q-128 0 -224 43t-160.5 116.5t-96.5 168t-32 198.5q0 149 60 265.5t174 184t275 67.5q123 0 218 -39t159.5 -109.5t97.5 -164.5t33 -204q0 -149 -60 -268t-173.5 -188.5t-270.5 -69.5zM601 156q96 0 160 49.5t95.5 128.5t31.5 168q0 103 -35.5 178.5t-100 117
t-152.5 41.5q-95 0 -160.5 -44.5t-99 -121t-33.5 -171.5q0 -89 32.5 -168t98 -128.5t163.5 -49.5zM273 1230v162h154.5h169.5h170h154v-162h-154h-170h-169.5h-154.5z" />
    <glyph glyph-name="Obreve" unicode="&#x14e;" horiz-adv-x="1632" 
d="M823 -24q-186 0 -323.5 59t-228 162t-135.5 236t-45 281q0 207 83.5 374.5t245 266t396.5 98.5q178 0 313.5 -57t227 -158.5t137.5 -235.5t46 -288q0 -211 -84 -378t-244.5 -263.5t-388.5 -96.5zM818 174q123 0 213 44t149 120t87.5 173t28.5 203q0 114 -31 212
t-91.5 172t-149.5 115.5t-206 41.5q-121 0 -211 -43t-150.5 -119t-90.5 -173t-30 -206q0 -108 29 -205t88.5 -172.5t150.5 -119t214 -43.5zM813 1552q-166 0 -252.5 96.5t-86.5 289.5l152 7q0 -124 47.5 -183t139.5 -59q93 0 141 58t48 177h152q0 -129 -38 -215t-114 -128.5
t-189 -42.5z" />
    <glyph glyph-name="obreve" unicode="&#x14f;" horiz-adv-x="1195" 
d="M602 -24q-128 0 -224 43t-160.5 116.5t-96.5 168t-32 198.5q0 149 60 265.5t174 184t275 67.5q123 0 218 -39t159.5 -109.5t97.5 -164.5t33 -204q0 -149 -60 -268t-173.5 -188.5t-270.5 -69.5zM601 156q96 0 160 49.5t95.5 128.5t31.5 168q0 103 -35.5 178.5t-100 117
t-152.5 41.5q-95 0 -160.5 -44.5t-99 -121t-33.5 -171.5q0 -89 32.5 -168t98 -128.5t163.5 -49.5zM594 1132q-166 0 -252.5 96.5t-86.5 289.5l152 7q0 -123 47.5 -182.5t139.5 -59.5q93 0 141 58.5t48 176.5h152q0 -128 -38 -214t-114 -129t-189 -43z" />
    <glyph glyph-name="Ohungarumlaut" unicode="&#x150;" horiz-adv-x="1632" 
d="M823 -24q-186 0 -323.5 59t-228 162t-135.5 236t-45 281q0 207 83.5 374.5t245 266t396.5 98.5q178 0 313.5 -57t227 -158.5t137.5 -235.5t46 -288q0 -211 -84 -378t-244.5 -263.5t-388.5 -96.5zM818 174q123 0 213 44t149 120t87.5 173t28.5 203q0 114 -31 212
t-91.5 172t-149.5 115.5t-206 41.5q-121 0 -211 -43t-150.5 -119t-90.5 -173t-30 -206q0 -108 29 -205t88.5 -172.5t150.5 -119t214 -43.5zM885 1565q64 92 129 184.5t129 184.5l219 4q-54 -64 -107.5 -126t-106 -123t-104.5 -121zM504 1565q54 93 107 184.5t106 184.5
l209 4q-46 -64 -91.5 -126t-90.5 -123t-90 -121z" />
    <glyph glyph-name="ohungarumlaut" unicode="&#x151;" horiz-adv-x="1195" 
d="M602 -24q-128 0 -224 43t-160.5 116.5t-96.5 168t-32 198.5q0 149 60 265.5t174 184t275 67.5q123 0 218 -39t159.5 -109.5t97.5 -164.5t33 -204q0 -149 -60 -268t-173.5 -188.5t-270.5 -69.5zM601 156q96 0 160 49.5t95.5 128.5t31.5 168q0 103 -35.5 178.5t-100 117
t-152.5 41.5q-95 0 -160.5 -44.5t-99 -121t-33.5 -171.5q0 -89 32.5 -168t98 -128.5t163.5 -49.5zM666 1146q65 101 129.5 202.5t128.5 201.5l219 6q-54 -70 -107.5 -138.5t-106 -136t-104.5 -133.5zM285 1146q55 102 108 202.5t105 201.5l209 6q-46 -70 -91.5 -138.5
t-90.5 -136t-90 -133.5z" />
    <glyph glyph-name="OE" unicode="&#x152;" horiz-adv-x="2159" 
d="M830 -23q-174 0 -311 54t-232.5 153t-145.5 234t-50 297q0 215 87 381.5t246.5 261.5t378.5 95q95 0 182.5 -16.5t160.5 -43t125 -55.5l-20 -222q-117 72 -223 102.5t-202 30.5q-140 0 -251 -64t-175.5 -184t-64.5 -287q0 -110 33 -208t99 -172.5t163 -117t225 -42.5
q101 0 199.5 27.5t191.5 95.5l17 -222q-58 -35 -129 -56.5t-149 -31.5t-155 -10zM1139 0v227v242v481v246v230h907v-198h-208h-262h-339l132 162v-229.5v-246.5v-409v-241.5v-227.5l-118 162h344h239h217v-198h-912zM1316 626v191h271h233.5h188.5v-191h-192.5h-229.5h-271z
" />
    <glyph glyph-name="oe" unicode="&#x153;" horiz-adv-x="1844" 
d="M585 -23q-127 0 -222 42.5t-159 115.5t-96 168t-32 199q0 149 59.5 265.5t173 183.5t273.5 67q120 0 212 -39t155 -109.5t95 -164t32 -203.5q0 -148 -58.5 -267t-168.5 -188.5t-264 -69.5zM589 156q97 0 160.5 49.5t95 128.5t31.5 168q0 103 -35.5 179t-100 117
t-151.5 41q-96 0 -161.5 -45t-99 -121.5t-33.5 -170.5q0 -89 32.5 -168t98 -128.5t163.5 -49.5zM1423 -23q-184 0 -301.5 68t-174.5 186t-57 271q0 151 55 268t159.5 182.5t253.5 65.5q129 0 222 -48.5t143 -144.5t50 -238q0 -38 -1.5 -68.5t-6.5 -60.5l-186 82
q2 15 2.5 29.5t0.5 27.5q0 123 -61.5 190.5t-160.5 67.5q-76 0 -133.5 -42t-89 -115t-31.5 -168v-32q0 -106 37 -182t112 -117t190 -41q45 0 97 7.5t105 23.5t100 41l8 -186q-38 -20 -89 -35t-112.5 -23.5t-130.5 -8.5zM976 458v146l661 8l128 -52v-102h-789z" />
    <glyph glyph-name="Racute" unicode="&#x154;" horiz-adv-x="1356" 
d="M168 0v227v242v481v246v230h140h172.5h193.5q167 0 280 -38.5t170 -125t57 -232.5q0 -119 -46.5 -217t-152.5 -157.5t-285 -60.5l83 99l214 -283q50 -66 106 -140t109.5 -145t94.5 -126h-271q-64 88 -123.5 169.5t-116.5 159.5l-249 342l142 -122h-329v191h259
q109 0 180.5 25.5t107 83.5t35.5 155q0 79 -25 125t-65.5 69t-88.5 30t-94 7h-431l163 155v-234v-242v-445v-242v-227h-230zM476 1565q67 93 132.5 185t130.5 184l230 4q-56 -64 -110.5 -126t-109 -123t-107.5 -121z" />
    <glyph glyph-name="racute" unicode="&#x155;" horiz-adv-x="808" 
d="M154 0v211v225v100v226.5v231.5l183 12l8 -196h20q40 88 91 133t104 60.5t99 15.5q26 0 54 -4t53 -13l-19 -212q-35 6 -63 9t-64 3q-28 0 -62 -7.5t-68.5 -30.5t-66 -68.5t-55.5 -119.5v-151v-215.5v-209.5h-214zM303 1146q66 101 132 202.5t131 201.5l230 6
q-56 -70 -111 -138.5t-108.5 -135.5t-107.5 -134z" />
    <glyph glyph-name="uni0156" unicode="&#x156;" horiz-adv-x="1356" 
d="M168 0v227v242v481v246v230h140h172.5h193.5q167 0 280 -38.5t170 -125t57 -232.5q0 -119 -46.5 -217t-152.5 -157.5t-285 -60.5l83 99l214 -283q50 -66 106 -140t109.5 -145t94.5 -126h-271q-64 88 -123.5 169.5t-116.5 159.5l-249 342l142 -122h-329v191h259
q109 0 180.5 25.5t107 83.5t35.5 155q0 79 -25 125t-65.5 69t-88.5 30t-94 7h-431l163 155v-234v-242v-445v-242v-227h-230zM530 -573q39 58 48.5 115t9.5 135v74v74l101 8q62 -3 93 -34.5t31 -81.5q0 -56 -23 -110t-64.5 -99.5t-98.5 -77.5z" />
    <glyph glyph-name="uni0157" unicode="&#x157;" horiz-adv-x="808" 
d="M154 0v211v225v100v226.5v231.5l183 12l8 -196h20q40 88 91 133t104 60.5t99 15.5q26 0 54 -4t53 -13l-19 -212q-35 6 -63 9t-64 3q-28 0 -62 -7.5t-68.5 -30.5t-66 -68.5t-55.5 -119.5v-151v-215.5v-209.5h-214zM110 -573q39 58 48.5 115t9.5 135v74v74l101 8
q62 -3 93 -34.5t31 -81.5q0 -56 -23 -110t-64.5 -99.5t-98.5 -77.5z" />
    <glyph glyph-name="Rcaron" unicode="&#x158;" horiz-adv-x="1356" 
d="M168 0v227v242v481v246v230h140h172.5h193.5q167 0 280 -38.5t170 -125t57 -232.5q0 -119 -46.5 -217t-152.5 -157.5t-285 -60.5l83 99l214 -283q50 -66 106 -140t109.5 -145t94.5 -126h-271q-64 88 -123.5 169.5t-116.5 159.5l-249 342l142 -122h-329v191h259
q109 0 180.5 25.5t107 83.5t35.5 155q0 79 -25 125t-65.5 69t-88.5 30t-94 7h-431l163 155v-234v-242v-445v-242v-227h-230zM527 1564q-65 93 -131 185.5t-131 183.5l164 3q61 -72 120.5 -142.5t120.5 -143.5h-58q61 72 120.5 142t118.5 140h166q-65 -90 -130.5 -182.5
t-132.5 -185.5h-227z" />
    <glyph glyph-name="rcaron" unicode="&#x159;" horiz-adv-x="808" 
d="M154 0v211v225v100v226.5v231.5l183 12l8 -196h20q40 88 91 133t104 60.5t99 15.5q26 0 54 -4t53 -13l-19 -212q-35 6 -63 9t-64 3q-28 0 -62 -7.5t-68.5 -30.5t-66 -68.5t-55.5 -119.5v-151v-215.5v-209.5h-214zM354 1136q-66 103 -131.5 204t-130.5 202l164 2
q60 -77 119 -154t119 -156h-53q60 78 119 154l118 152h166q-65 -99 -131 -200t-132 -204h-227z" />
    <glyph glyph-name="Sacute" unicode="&#x15a;" horiz-adv-x="1183" 
d="M597 -23q-89 0 -180.5 15.5t-170 39.5t-126.5 48l19 219q69 -39 142.5 -66.5t149 -43t150.5 -15.5q82 0 146 21.5t100.5 67t36.5 117.5q0 69 -40.5 114t-117.5 78.5t-184 65.5q-134 41 -229 91.5t-144.5 126.5t-49.5 196q0 116 53.5 207t160 142.5t266.5 51.5
q64 0 128.5 -9t124 -23.5t108.5 -33.5t85 -39l-21 -218q-61 41 -129.5 68.5t-135 42t-123.5 14.5q-73 0 -134 -21t-98 -63.5t-37 -108.5q0 -60 32 -101t101 -73t178 -66q171 -54 270 -109.5t140.5 -130.5t41.5 -188q0 -121 -53.5 -215t-167 -148t-292.5 -54zM433 1565
q67 93 132.5 185t130.5 184l230 4q-56 -64 -110.5 -126t-109 -123t-107.5 -121z" />
    <glyph glyph-name="sacute" unicode="&#x15b;" horiz-adv-x="918" 
d="M449 -23q-65 0 -128.5 9t-119 25.5t-97.5 36.5l16 194q45 -26 98 -45.5t110.5 -30t115.5 -10.5q48 0 88.5 9.5t65 36.5t24.5 80q0 35 -23 58t-75 41.5t-142 43.5q-83 22 -144.5 55t-95.5 88t-34 145q0 145 93 225t249 80q66 0 128 -10.5t113.5 -27t87.5 -34.5l-17 -194
q-46 29 -99.5 48.5t-102.5 29t-83 9.5q-39 0 -73.5 -10.5t-55.5 -36t-21 -68.5q0 -34 16 -58t58.5 -44t123.5 -42q101 -29 171.5 -61t106.5 -84t36 -144t-40 -163t-126 -111t-224 -40zM296 1146q66 101 132 202.5t131 201.5l230 6q-56 -70 -111 -138.5t-108.5 -135.5
t-107.5 -134z" />
    <glyph glyph-name="Scircumflex" unicode="&#x15c;" horiz-adv-x="1183" 
d="M597 -23q-89 0 -180.5 15.5t-170 39.5t-126.5 48l19 219q69 -39 142.5 -66.5t149 -43t150.5 -15.5q82 0 146 21.5t100.5 67t36.5 117.5q0 69 -40.5 114t-117.5 78.5t-184 65.5q-134 41 -229 91.5t-144.5 126.5t-49.5 196q0 116 53.5 207t160 142.5t266.5 51.5
q64 0 128.5 -9t124 -23.5t108.5 -33.5t85 -39l-21 -218q-61 41 -129.5 68.5t-135 42t-123.5 14.5q-73 0 -134 -21t-98 -63.5t-37 -108.5q0 -60 32 -101t101 -73t178 -66q171 -54 270 -109.5t140.5 -130.5t41.5 -188q0 -121 -53.5 -215t-167 -148t-292.5 -54zM808 1563
q-60 72 -120 142.5t-121 143.5h58q-61 -72 -120 -141.5t-119 -140.5h-166q65 91 131 183t132 185h227q65 -93 131 -185.5t131 -183.5z" />
    <glyph glyph-name="scircumflex" unicode="&#x15d;" horiz-adv-x="918" 
d="M449 -23q-65 0 -128.5 9t-119 25.5t-97.5 36.5l16 194q45 -26 98 -45.5t110.5 -30t115.5 -10.5q48 0 88.5 9.5t65 36.5t24.5 80q0 35 -23 58t-75 41.5t-142 43.5q-83 22 -144.5 55t-95.5 88t-34 145q0 145 93 225t249 80q66 0 128 -10.5t113.5 -27t87.5 -34.5l-17 -194
q-46 29 -99.5 48.5t-102.5 29t-83 9.5q-39 0 -73.5 -10.5t-55.5 -36t-21 -68.5q0 -34 16 -58t58.5 -44t123.5 -42q101 -29 171.5 -61t106.5 -84t36 -144t-40 -163t-126 -111t-224 -40zM671 1144q-60 78 -118.5 155t-119.5 155h53q-60 -78 -118.5 -154t-118.5 -152h-166
q65 100 131 201t132 203h227q66 -102 131.5 -203.5t130.5 -202.5z" />
    <glyph glyph-name="Scedilla" unicode="&#x15e;" horiz-adv-x="1183" 
d="M597 -23q-89 0 -180.5 15.5t-170 39.5t-126.5 48l19 219q69 -39 142.5 -66.5t149 -43t150.5 -15.5q82 0 146 21.5t100.5 67t36.5 117.5q0 69 -40.5 114t-117.5 78.5t-184 65.5q-134 41 -229 91.5t-144.5 126.5t-49.5 196q0 116 53.5 207t160 142.5t266.5 51.5
q64 0 128.5 -9t124 -23.5t108.5 -33.5t85 -39l-21 -218q-61 41 -129.5 68.5t-135 42t-123.5 14.5q-73 0 -134 -21t-98 -63.5t-37 -108.5q0 -60 32 -101t101 -73t178 -66q171 -54 270 -109.5t140.5 -130.5t41.5 -188q0 -121 -53.5 -215t-167 -148t-292.5 -54zM547 -434
q-23 0 -47 2t-45 5.5t-36 8.5v128q13 -5 39.5 -9.5t58.5 -4.5q65 0 91.5 21.5t26.5 54.5q0 19 -13 37t-47 32.5t-98 22.5l76 179h118v-43l-48 -109q71 -11 111 -34.5t56 -55t16 -67.5q0 -47 -25 -85t-82 -60.5t-152 -22.5z" />
    <glyph glyph-name="scedilla" unicode="&#x15f;" horiz-adv-x="918" 
d="M449 -23q-65 0 -128.5 9t-119 25.5t-97.5 36.5l16 194q45 -26 98 -45.5t110.5 -30t115.5 -10.5q48 0 88.5 9.5t65 36.5t24.5 80q0 35 -23 58t-75 41.5t-142 43.5q-83 22 -144.5 55t-95.5 88t-34 145q0 145 93 225t249 80q66 0 128 -10.5t113.5 -27t87.5 -34.5l-17 -194
q-46 29 -99.5 48.5t-102.5 29t-83 9.5q-39 0 -73.5 -10.5t-55.5 -36t-21 -68.5q0 -34 16 -58t58.5 -44t123.5 -42q101 -29 171.5 -61t106.5 -84t36 -144t-40 -163t-126 -111t-224 -40zM410 -434q-23 0 -47 2t-45 5.5t-36 8.5v128q13 -5 39.5 -9.5t58.5 -4.5q65 0 91.5 21.5
t26.5 54.5q0 19 -13 37t-47 32.5t-98 22.5l76 179h118v-43l-48 -109q71 -11 111 -34.5t56 -55t16 -67.5q0 -47 -25 -85t-82 -60.5t-152 -22.5z" />
    <glyph glyph-name="Scaron" unicode="&#x160;" horiz-adv-x="1183" 
d="M597 -23q-89 0 -180.5 15.5t-170 39.5t-126.5 48l19 219q69 -39 142.5 -66.5t149 -43t150.5 -15.5q82 0 146 21.5t100.5 67t36.5 117.5q0 69 -40.5 114t-117.5 78.5t-184 65.5q-134 41 -229 91.5t-144.5 126.5t-49.5 196q0 116 53.5 207t160 142.5t266.5 51.5
q64 0 128.5 -9t124 -23.5t108.5 -33.5t85 -39l-21 -218q-61 41 -129.5 68.5t-135 42t-123.5 14.5q-73 0 -134 -21t-98 -63.5t-37 -108.5q0 -60 32 -101t101 -73t178 -66q171 -54 270 -109.5t140.5 -130.5t41.5 -188q0 -121 -53.5 -215t-167 -148t-292.5 -54zM484 1564
q-65 93 -131 185.5t-131 183.5l164 3q61 -72 120.5 -142.5t120.5 -143.5h-58q61 72 120.5 142t118.5 140h166q-65 -90 -130.5 -182.5t-132.5 -185.5h-227z" />
    <glyph glyph-name="scaron" unicode="&#x161;" horiz-adv-x="918" 
d="M449 -23q-65 0 -128.5 9t-119 25.5t-97.5 36.5l16 194q45 -26 98 -45.5t110.5 -30t115.5 -10.5q48 0 88.5 9.5t65 36.5t24.5 80q0 35 -23 58t-75 41.5t-142 43.5q-83 22 -144.5 55t-95.5 88t-34 145q0 145 93 225t249 80q66 0 128 -10.5t113.5 -27t87.5 -34.5l-17 -194
q-46 29 -99.5 48.5t-102.5 29t-83 9.5q-39 0 -73.5 -10.5t-55.5 -36t-21 -68.5q0 -34 16 -58t58.5 -44t123.5 -42q101 -29 171.5 -61t106.5 -84t36 -144t-40 -163t-126 -111t-224 -40zM347 1136q-66 103 -131.5 204t-130.5 202l164 2q60 -77 119 -154t119 -156h-53
q60 78 119 154l118 152h166q-65 -99 -131 -200t-132 -204h-227z" />
    <glyph glyph-name="uni0162" unicode="&#x162;" horiz-adv-x="1285" 
d="M526 0v227v242v445v246.5v229.5l91 -171h-177h-209h-173v207h1169v-207h-172h-210h-177l92 171v-229.5v-246.5v-445v-242v-227h-234zM593 -434q-23 0 -47 2t-45 5.5t-36 8.5v128q13 -5 39.5 -9.5t58.5 -4.5q65 0 91.5 21.5t26.5 54.5q0 19 -13 37t-47 32.5t-98 22.5
l76 179h118v-43l-48 -109q71 -11 111 -34.5t56 -55t16 -67.5q0 -47 -25 -85t-82 -60.5t-152 -22.5z" />
    <glyph glyph-name="uni0163" unicode="&#x163;" horiz-adv-x="829" 
d="M548 -24q-103 0 -175.5 34t-110 106t-37.5 186v158.5v159v158.5v158v196v185l211 42v-141v-132.5v-149.5v-575q0 -102 41 -153.5t128 -51.5q36 0 77.5 12.5t76.5 38.5l15 -180q-23 -15 -58.5 -26.5t-79 -18t-88.5 -6.5zM44 829v165h722v-165h-197h-193h-91h-241z
M419 -434q-23 0 -47 2t-45 5.5t-36 8.5v128q13 -5 39.5 -9.5t58.5 -4.5q65 0 91.5 21.5t26.5 54.5q0 19 -13 37t-47 32.5t-98 22.5l76 179h118v-43l-48 -109q71 -11 111 -34.5t56 -55t16 -67.5q0 -47 -25 -85t-82 -60.5t-152 -22.5z" />
    <glyph glyph-name="Tcaron" unicode="&#x164;" horiz-adv-x="1285" 
d="M526 0v227v242v445v246.5v229.5l91 -171h-177h-209h-173v207h1169v-207h-172h-210h-177l92 171v-229.5v-246.5v-445v-242v-227h-234zM530 1564q-65 93 -131 185.5t-131 183.5l164 3q61 -72 120.5 -142.5t120.5 -143.5h-58q61 72 120.5 142t118.5 140h166
q-65 -90 -130.5 -182.5t-132.5 -185.5h-227z" />
    <glyph glyph-name="tcaron" unicode="&#x165;" horiz-adv-x="834" 
d="M548 -24q-103 0 -175.5 34t-110 106t-37.5 186v158.5v159v158.5v158v196v185l211 42v-141v-132.5v-149.5v-575q0 -102 41 -153.5t128 -51.5q36 0 77.5 12.5t76.5 38.5l15 -180q-23 -15 -58.5 -26.5t-79 -18t-88.5 -6.5zM44 829v165h722v-165h-197h-193h-91h-241z
M565 1089q20 49 32.5 102.5t18.5 103.5t6 90v85v84l94 8q40 -3 63.5 -30.5t23.5 -75.5q0 -50 -12 -101t-31.5 -99.5t-44 -90.5t-49.5 -73z" />
    <glyph glyph-name="Tbar" unicode="&#x166;" horiz-adv-x="1285" 
d="M240 572v164h186h169h97h170h186v-164h-186h-170h-97h-169h-186zM526 0v227v242v445v246.5v229.5l91 -171h-177h-209h-173v207h1169v-207h-172h-210h-177l92 171v-229.5v-246.5v-445v-242v-227h-234z" />
    <glyph glyph-name="tbar" unicode="&#x167;" horiz-adv-x="829" 
d="M68 474v138h155h138h83h138h154v-138h-154h-138h-83h-138h-155zM548 -24q-103 0 -175.5 34t-110 106t-37.5 186v158.5v159v158.5v158v196v185l211 42v-141v-132.5v-149.5v-591q0 -102 41 -153.5t128 -51.5q36 0 77.5 12.5t76.5 38.5l15 -164q-23 -15 -58.5 -26.5t-79 -18
t-88.5 -6.5zM44 829v165h722v-165h-197h-193h-91h-241z" />
    <glyph glyph-name="Utilde" unicode="&#x168;" horiz-adv-x="1459" 
d="M731 -24q-206 0 -333.5 69.5t-186.5 195.5t-59 296v106v145.5v160.5v247v230h234v-230v-247v-394q0 -120 34.5 -205t110 -130.5t199.5 -45.5q126 0 201 45.5t108 130.5t33 206v393v247v230h234v-230v-247v-161v-146.5v-105.5q0 -170 -60.5 -295.5t-187.5 -195t-327 -69.5
zM904 1556q-61 0 -105.5 25t-80 58t-66.5 58t-64 25q-54 0 -76 -36t-26 -97h-121q0 141 54.5 216t147.5 75q60 0 103.5 -25t78 -58t66 -58t65.5 -25q53 0 74 37t24 97h121q0 -141 -52.5 -216.5t-142.5 -75.5z" />
    <glyph glyph-name="utilde" unicode="&#x169;" horiz-adv-x="1126" 
d="M436 -24q-155 0 -229.5 90.5t-74.5 264.5v115v98v167v143v140l214 8v-214v-220v-180q0 -107 37.5 -162t135.5 -55q55 0 102 23.5t85.5 63t69.5 87.5v223v216.5v209.5h214v-212.5v-237.5v-108v-225v-211h-183l-8 170h-21q-32 -47 -81 -91.5t-114 -73.5t-147 -29zM734 1137
q-61 0 -105.5 25t-80 58t-66.5 58t-64 25q-54 0 -76 -36.5t-26 -97.5h-121q0 141 54.5 216.5t147.5 75.5q60 0 103.5 -25t78 -58t66 -58t65.5 -25q53 0 74 36.5t24 96.5h121q0 -140 -52.5 -215.5t-142.5 -75.5z" />
    <glyph glyph-name="Umacron" unicode="&#x16a;" horiz-adv-x="1459" 
d="M731 -24q-206 0 -333.5 69.5t-186.5 195.5t-59 296v106v145.5v160.5v247v230h234v-230v-247v-394q0 -120 34.5 -205t110 -130.5t199.5 -45.5q126 0 201 45.5t108 130.5t33 206v393v247v230h234v-230v-247v-161v-146.5v-105.5q0 -170 -60.5 -295.5t-187.5 -195t-327 -69.5
zM408 1650v162h154.5h169.5h170h154v-162h-154h-170h-169.5h-154.5z" />
    <glyph glyph-name="umacron" unicode="&#x16b;" horiz-adv-x="1126" 
d="M436 -24q-155 0 -229.5 90.5t-74.5 264.5v115v98v167v143v140l214 8v-214v-220v-180q0 -107 37.5 -162t135.5 -55q55 0 102 23.5t85.5 63t69.5 87.5v223v216.5v209.5h214v-212.5v-237.5v-108v-225v-211h-183l-8 170h-21q-32 -47 -81 -91.5t-114 -73.5t-147 -29zM238 1230
v162h154.5h169.5h170h154v-162h-154h-170h-169.5h-154.5z" />
    <glyph glyph-name="Ubreve" unicode="&#x16c;" horiz-adv-x="1459" 
d="M731 -24q-206 0 -333.5 69.5t-186.5 195.5t-59 296v106v145.5v160.5v247v230h234v-230v-247v-394q0 -120 34.5 -205t110 -130.5t199.5 -45.5q126 0 201 45.5t108 130.5t33 206v393v247v230h234v-230v-247v-161v-146.5v-105.5q0 -170 -60.5 -295.5t-187.5 -195t-327 -69.5
zM729 1552q-166 0 -252.5 96.5t-86.5 289.5l152 7q0 -124 47.5 -183t139.5 -59q93 0 141 58t48 177h152q0 -129 -38 -215t-114 -128.5t-189 -42.5z" />
    <glyph glyph-name="ubreve" unicode="&#x16d;" horiz-adv-x="1126" 
d="M436 -24q-155 0 -229.5 90.5t-74.5 264.5v115v98v167v143v140l214 8v-214v-220v-180q0 -107 37.5 -162t135.5 -55q55 0 102 23.5t85.5 63t69.5 87.5v223v216.5v209.5h214v-212.5v-237.5v-108v-225v-211h-183l-8 170h-21q-32 -47 -81 -91.5t-114 -73.5t-147 -29zM559 1132
q-166 0 -252.5 96.5t-86.5 289.5l152 7q0 -123 47.5 -182.5t139.5 -59.5q93 0 141 58.5t48 176.5h152q0 -128 -38 -214t-114 -129t-189 -43z" />
    <glyph glyph-name="Uring" unicode="&#x16e;" horiz-adv-x="1459" 
d="M731 -24q-206 0 -333.5 69.5t-186.5 195.5t-59 296v106v145.5v160.5v247v230h234v-230v-247v-394q0 -120 34.5 -205t110 -130.5t199.5 -45.5q126 0 201 45.5t108 130.5t33 206v393v247v230h234v-230v-247v-161v-146.5v-105.5q0 -170 -60.5 -295.5t-187.5 -195t-327 -69.5
zM730 1549q-72 0 -126 25t-85 74.5t-31 120.5q0 99 67.5 158t176.5 59q72 0 126.5 -27.5t85 -76.5t30.5 -113q0 -72 -31 -121t-85.5 -74t-127.5 -25zM730 1650q56 0 91 30t35 88q0 52 -34.5 85t-89.5 33q-56 0 -91 -32.5t-35 -85.5q0 -58 35 -88t89 -30z" />
    <glyph glyph-name="uring" unicode="&#x16f;" horiz-adv-x="1126" 
d="M436 -24q-155 0 -229.5 90.5t-74.5 264.5v115v98v167v143v140l214 8v-214v-220v-180q0 -107 37.5 -162t135.5 -55q55 0 102 23.5t85.5 63t69.5 87.5v223v216.5v209.5h214v-212.5v-237.5v-108v-225v-211h-183l-8 170h-21q-32 -47 -81 -91.5t-114 -73.5t-147 -29zM560 1117
q-72 0 -126 25t-85 74.5t-31 120.5q0 99 67.5 158t176.5 59q72 0 126.5 -27.5t85 -76.5t30.5 -113q0 -72 -31 -121t-85.5 -74t-127.5 -25zM560 1218q56 0 91 30t35 88q0 52 -34.5 85t-89.5 33q-56 0 -91 -32.5t-35 -85.5q0 -58 35 -88t89 -30z" />
    <glyph glyph-name="Uhungarumlaut" unicode="&#x170;" horiz-adv-x="1459" 
d="M731 -24q-206 0 -333.5 69.5t-186.5 195.5t-59 296v106v145.5v160.5v247v230h234v-230v-247v-394q0 -120 34.5 -205t110 -130.5t199.5 -45.5q126 0 201 45.5t108 130.5t33 206v393v247v230h234v-230v-247v-161v-146.5v-105.5q0 -170 -60.5 -295.5t-187.5 -195t-327 -69.5
zM801 1565q64 92 129 184.5t129 184.5l219 4q-54 -64 -107.5 -126t-106 -123t-104.5 -121zM420 1565q54 93 107 184.5t106 184.5l209 4q-46 -64 -91.5 -126t-90.5 -123t-90 -121z" />
    <glyph glyph-name="uhungarumlaut" unicode="&#x171;" horiz-adv-x="1126" 
d="M436 -24q-155 0 -229.5 90.5t-74.5 264.5v115v98v167v143v140l214 8v-214v-220v-180q0 -107 37.5 -162t135.5 -55q55 0 102 23.5t85.5 63t69.5 87.5v223v216.5v209.5h214v-212.5v-237.5v-108v-225v-211h-183l-8 170h-21q-32 -47 -81 -91.5t-114 -73.5t-147 -29zM631 1146
q65 101 129.5 202.5t128.5 201.5l219 6q-54 -70 -107.5 -138.5t-106 -136t-104.5 -133.5zM250 1146q55 102 108 202.5t105 201.5l209 6q-46 -70 -91.5 -138.5t-90.5 -136t-90 -133.5z" />
    <glyph glyph-name="Uogonek" unicode="&#x172;" horiz-adv-x="1459" 
d="M731 -24q-206 0 -333.5 69.5t-186.5 195.5t-59 296v106v145.5v160.5v247v230h234v-230v-247v-394q0 -120 34.5 -205t110 -130.5t199.5 -45.5q126 0 201 45.5t108 130.5t33 206v393v247v230h234v-230v-247v-161v-146.5v-105.5q0 -170 -60.5 -295.5t-187.5 -195t-327 -69.5
zM815 -423q-80 0 -133 21.5t-79 60t-26 87.5q0 50 23.5 95t67.5 85t105 75v44l112 10l45 -55q-80 -38 -134.5 -91.5t-54.5 -110.5q0 -41 28.5 -61.5t76.5 -20.5q33 0 56 5t36 9v-135q-22 -7 -55 -12.5t-68 -5.5z" />
    <glyph glyph-name="uogonek" unicode="&#x173;" horiz-adv-x="1126" 
d="M436 -24q-155 0 -229.5 90.5t-74.5 264.5v115v98v167v143v140l214 8v-214v-220v-180q0 -107 37.5 -162t135.5 -55q55 0 102 23.5t85.5 63t69.5 87.5v223v216.5v209.5h214v-212.5v-237.5v-108v-225v-211h-183l-8 170h-21q-32 -47 -81 -91.5t-114 -73.5t-147 -29zM874 -423
q-80 0 -133 21.5t-79 60t-26 87.5q0 50 23.5 95t67.5 85t105 75v44l112 10l45 -55q-80 -38 -134.5 -91.5t-54.5 -110.5q0 -41 28.5 -61.5t76.5 -20.5q33 0 56 5t36 9v-135q-22 -7 -55 -12.5t-68 -5.5z" />
    <glyph glyph-name="Wcircumflex" unicode="&#x174;" horiz-adv-x="2060" 
d="M449 0q-29 106 -63 227t-63 224l-125 447q-33 119 -73 261t-75 267h263q36 -145 76 -305t75 -305l134 -538h20l132 545q23 93 48 197t50.5 208t48.5 198h261q36 -145 75 -302t76 -303l135 -543h20l135 546q35 141 74.5 301t74.5 301h262q-35 -127 -74.5 -267t-73.5 -258
l-127 -450q-31 -107 -64.5 -227.5t-63.5 -223.5h-293q-36 137 -75.5 288.5t-74.5 285.5l-135 519h-20l-132 -519q-34 -134 -73 -286.5t-74 -287.5h-281zM1234 1563q-60 72 -120 142.5t-121 143.5h58q-61 -72 -120 -141.5t-119 -140.5h-166q65 91 131 183t132 185h227
q65 -93 131 -185.5t131 -183.5z" />
    <glyph glyph-name="wcircumflex" unicode="&#x175;" horiz-adv-x="1623" 
d="M361 0l-60 188t-61 190l-57 177q-36 111 -70.5 219.5t-70.5 219.5l227 8q32 -116 68 -243t68 -243l82 -291h18l79 297q32 118 63.5 235t63.5 237h203q32 -114 64.5 -233.5t63.5 -236.5l82 -299h18l83 304q31 114 65 238t62 227h229q-35 -110 -70.5 -219.5t-70.5 -219.5
l-56 -175q-31 -96 -61.5 -192t-60.5 -188h-246q-30 106 -63 219.5t-63 217.5l-77 265h-19l-75 -269q-29 -102 -60.5 -214.5t-61.5 -218.5h-236zM1021 1144q-60 78 -118.5 155t-119.5 155h53q-60 -78 -118.5 -154t-118.5 -152h-166q65 100 131 201t132 203h227
q66 -102 131.5 -203.5t130.5 -202.5z" />
    <glyph glyph-name="Ycircumflex" unicode="&#x176;" horiz-adv-x="1325" 
d="M553 538l-305 538q-49 86 -94 166.5t-104 183.5h268q48 -91 82.5 -156.5t65 -124t67.5 -129.5l121 -230h22l118 223q40 74 72 135t67.5 127t83.5 155h261q-50 -89 -99.5 -177t-97.5 -172l-304 -539h-224zM548 0v227v242v265h235v-265v-242v-227h-235zM875 1563
q-60 72 -120 142.5t-121 143.5h58q-61 -72 -120 -141.5t-119 -140.5h-166q65 91 131 183t132 185h227q65 -93 131 -185.5t131 -183.5z" />
    <glyph glyph-name="ycircumflex" unicode="&#x177;" horiz-adv-x="1058" 
d="M253 -391q40 100 81 202t81 201v-47q-37 103 -75 207.5l-74 203.5l-65 181q-39 107 -79.5 219t-79.5 218l230 8q38 -122 74 -238t73 -237l92 -301h20l101 302q40 118 78.5 233.5t78.5 232.5h227q-31 -80 -60.5 -154.5t-64.5 -164.5t-84 -215l-110 -280
q-74 -190 -126 -323t-95 -241zM739 1144q-60 78 -118.5 155t-119.5 155h53q-60 -78 -118.5 -154t-118.5 -152h-166q65 100 131 201t132 203h227q66 -102 131.5 -203.5t130.5 -202.5z" />
    <glyph glyph-name="Ydieresis" unicode="&#x178;" horiz-adv-x="1325" 
d="M553 538l-305 538q-49 86 -94 166.5t-104 183.5h268q48 -91 82.5 -156.5t65 -124t67.5 -129.5l121 -230h22l118 223q40 74 72 135t67.5 127t83.5 155h261q-50 -89 -99.5 -177t-97.5 -172l-304 -539h-224zM548 0v227v242v265h235v-265v-242v-227h-235zM881 1604
q-57 0 -91.5 33t-34.5 99q0 62 35 96.5t93 34.5q59 0 92.5 -36t33.5 -95q0 -66 -33.5 -99t-94.5 -33zM446 1604q-57 0 -91.5 33t-34.5 99q0 62 35 96.5t93 34.5q59 0 92.5 -36t33.5 -95q0 -66 -34 -99t-94 -33z" />
    <glyph glyph-name="Zacute" unicode="&#x179;" horiz-adv-x="1354" 
d="M90 0v129q54 71 121.5 158.5t136 177t126.5 164.5l520 677l41 -78h-390h-256.5h-280.5v198h1141v-164q-89 -114 -174.5 -224.5t-171.5 -221.5l-546 -705l-27 87h355h190h205h178v-198h-1168zM513 1565q67 93 132.5 185t130.5 184l230 4q-56 -64 -110.5 -126t-109 -123
t-107.5 -121z" />
    <glyph glyph-name="zacute" unicode="&#x17a;" horiz-adv-x="1007" 
d="M72 0v105q81 106 158.5 207.5t146.5 191.5l301 394l28 -70h-210h-122h-149h-147v166h831v-123q-37 -49 -86 -112.5t-101 -131t-100 -129.5l-295 -385l-22 54h230h122.5h144.5h138v-167h-868zM335 1146q66 101 132 202.5t131 201.5l230 6q-56 -70 -111 -138.5
t-108.5 -135.5t-107.5 -134z" />
    <glyph glyph-name="Zdotaccent" unicode="&#x17b;" horiz-adv-x="1354" 
d="M90 0v129q54 71 121.5 158.5t136 177t126.5 164.5l520 677l41 -78h-390h-256.5h-280.5v198h1141v-164q-89 -114 -174.5 -224.5t-171.5 -221.5l-546 -705l-27 87h355h190h205h178v-198h-1168zM674 1604q-64 0 -103.5 33t-39.5 105q0 68 39.5 103t105.5 35
q67 0 105.5 -36.5t38.5 -101.5q0 -72 -39 -105t-107 -33z" />
    <glyph glyph-name="zdotaccent" unicode="&#x17c;" horiz-adv-x="1007" 
d="M72 0v105q81 106 158.5 207.5t146.5 191.5l301 394l28 -70h-210h-122h-149h-147v166h831v-123q-37 -49 -86 -112.5t-101 -131t-100 -129.5l-295 -385l-22 54h230h122.5h144.5h138v-167h-868zM497 1196q-64 0 -103.5 33.5t-39.5 105.5q0 67 39.5 102t105.5 35
q67 0 105.5 -36t38.5 -101q0 -72 -39 -105.5t-107 -33.5z" />
    <glyph glyph-name="Zcaron" unicode="&#x17d;" horiz-adv-x="1354" 
d="M90 0v129q54 71 121.5 158.5t136 177t126.5 164.5l520 677l41 -78h-390h-256.5h-280.5v198h1141v-164q-89 -114 -174.5 -224.5t-171.5 -221.5l-546 -705l-27 87h355h190h205h178v-198h-1168zM564 1564q-65 93 -131 185.5t-131 183.5l164 3q61 -72 120.5 -142.5
t120.5 -143.5h-58q61 72 120.5 142t118.5 140h166q-65 -90 -130.5 -182.5t-132.5 -185.5h-227z" />
    <glyph glyph-name="zcaron" unicode="&#x17e;" horiz-adv-x="1007" 
d="M72 0v105q81 106 158.5 207.5t146.5 191.5l301 394l28 -70h-210h-122h-149h-147v166h831v-123q-37 -49 -86 -112.5t-101 -131t-100 -129.5l-295 -385l-22 54h230h122.5h144.5h138v-167h-868zM386 1136q-66 103 -131.5 204t-130.5 202l164 2q60 -77 119 -154t119 -156h-53
q60 78 119 154l118 152h166q-65 -99 -131 -200t-132 -204h-227z" />
    <glyph glyph-name="uni018F" unicode="&#x18f;" horiz-adv-x="1570" 
d="M787 -23q-179 0 -310.5 58.5t-217 160t-127 233t-41.5 277.5l5 106h1197v-184h-1006l34 47q0 -96 26 -185.5t81.5 -161t144 -112.5t212.5 -41q122 0 208.5 41.5t141.5 114t81 167t27 201.5v72q-1 115 -38.5 205t-107 152.5t-170 95t-229.5 32.5q-61 0 -122 -8t-121.5 -24
t-118.5 -39.5t-113 -53.5l-21 209q50 24 110 45.5t127.5 36.5t139.5 23t147 8q179 0 318.5 -49.5t236.5 -145t147.5 -233t50.5 -311.5q0 -216 -79.5 -382t-234 -260.5t-378.5 -94.5z" />
    <glyph glyph-name="florin" unicode="&#x192;" horiz-adv-x="1066" 
d="M188 -259q-40 0 -76.5 4t-66 10.5t-49.5 14.5l32 180q35 -12 71.5 -19.5t73.5 -7.5q81 0 122 48.5t50 151.5q19 225 39 449t39 448q9 111 45.5 184.5t93.5 116t126.5 61t145.5 18.5q40 0 76 -3.5t65.5 -10.5t49.5 -14l-32 -180q-33 12 -69.5 19t-74.5 7q-104 0 -156 -53
t-62 -163q-5 -50 -10 -107t-10 -111l2 -32q-14 -160 -27 -315t-27 -316q-10 -111 -43 -184.5t-83 -116t-112.5 -61t-132.5 -18.5zM130 634v154h188h170h143h171h188v-154h-188h-171h-143h-170h-188z" />
    <glyph glyph-name="Ohorn" unicode="&#x1a0;" horiz-adv-x="1693" 
d="M823 -24q-186 0 -323.5 59t-228 162t-135.5 236t-45 281q0 207 83.5 374.5t245 266t396.5 98.5q178 0 313.5 -57t227 -158.5t137.5 -235.5t46 -288q0 -211 -84 -378t-244.5 -263.5t-388.5 -96.5zM818 174q123 0 213 44t149 120t87.5 173t28.5 203q0 114 -31 212
t-91.5 172t-149.5 115.5t-206 41.5q-121 0 -211 -43t-150.5 -119t-90.5 -173t-30 -206q0 -108 29 -205t88.5 -172.5t150.5 -119t214 -43.5zM1287 1128l-34 118q99 0 150 25t69 67t18 97t-11 111.5t-24 106.5l155 9q13 -29 25 -62.5t19.5 -74t7.5 -90.5q0 -94 -41.5 -162.5
t-124.5 -106.5t-209 -38z" />
    <glyph glyph-name="ohorn" unicode="&#x1a1;" horiz-adv-x="1299" 
d="M602 -24q-128 0 -224 43t-160.5 116.5t-96.5 168t-32 198.5q0 149 60 265.5t174 184t275 67.5q123 0 218 -39t159.5 -109.5t97.5 -164.5t33 -204q0 -149 -60 -268t-173.5 -188.5t-270.5 -69.5zM601 156q96 0 160 49.5t95.5 128.5t31.5 168q0 103 -35.5 178.5t-100 117
t-152.5 41.5q-95 0 -160.5 -44.5t-99 -121t-33.5 -171.5q0 -89 32.5 -168t98 -128.5t163.5 -49.5zM924 696l-34 118q99 0 150 25t69 67t18 97t-11 111.5t-24 106.5l155 9q13 -29 25 -62.5t19.5 -74t7.5 -90.5q0 -94 -41.5 -162.5t-124.5 -106.5t-209 -38z" />
    <glyph glyph-name="Uhorn" unicode="&#x1af;" horiz-adv-x="1638" 
d="M731 -24q-206 0 -333.5 69.5t-186.5 195.5t-59 296v106v145.5v160.5v247v230h234v-230v-247v-394q0 -120 34.5 -205t110 -130.5t199.5 -45.5q126 0 201 45.5t108 130.5t33 206v393v247v230h234v-230v-247v-161v-146.5v-105.5q0 -170 -60.5 -295.5t-187.5 -195t-327 -69.5
zM1264 1128l-34 118q99 0 150 25t69 67t18 97t-11 111.5t-24 106.5l155 9q13 -29 25 -62.5t19.5 -74t7.5 -90.5q0 -94 -41.5 -162.5t-124.5 -106.5t-209 -38z" />
    <glyph glyph-name="uhorn" unicode="&#x1b0;" horiz-adv-x="1320" 
d="M436 -24q-155 0 -229.5 90.5t-74.5 264.5v115v98v167v143v140l214 8v-214v-220v-180q0 -107 37.5 -162t135.5 -55q55 0 102 23.5t85.5 63t69.5 87.5v223v216.5v209.5h214v-212.5v-237.5v-108v-225v-211h-183l-8 170h-21q-32 -47 -81 -91.5t-114 -73.5t-147 -29zM946 696
l-34 118q99 0 150 25t69 67t18 97t-11 111.5t-24 106.5l155 9q13 -29 25 -62.5t19.5 -74t7.5 -90.5q0 -94 -41.5 -162.5t-124.5 -106.5t-209 -38z" />
    <glyph glyph-name="uni01C4" unicode="&#x1c4;" horiz-adv-x="2793" 
d="M169 0v227v242v480v247v230h173.5h173.5h178q164 0 291.5 -47.5t215.5 -139t133.5 -222.5t45.5 -299q0 -151 -40.5 -281.5t-128 -228.5t-230.5 -153t-348 -55h-166h-149.5h-148.5zM404 192h230q185 0 295 69t158 189t48 272q0 116 -28 210.5t-87 162t-150 103.5t-217 36
h-249v-158.5v-175.5v-380v-172.5v-155.5zM1529 0v129q54 71 121.5 158.5t136 177t126.5 164.5l520 677l41 -78h-390h-256.5h-280.5v198h1141v-164q-89 -114 -174.5 -224.5t-171.5 -221.5l-546 -705l-27 87h355h190h205h178v-198h-1168zM2002 1564q-65 93 -131 185.5
t-131 183.5l164 3q61 -72 120.5 -142.5t120.5 -143.5h-58q61 72 120.5 142t118.5 140h166q-65 -90 -130.5 -182.5t-132.5 -185.5h-227z" />
    <glyph glyph-name="uni01C5" unicode="&#x1c5;" horiz-adv-x="2478" 
d="M169 0v227v242v480v247v230h173.5h173.5h178q164 0 291.5 -47.5t215.5 -139t133.5 -222.5t45.5 -299q0 -151 -40.5 -281.5t-128 -228.5t-230.5 -153t-348 -55h-166h-149.5h-148.5zM404 192h230q185 0 295 69t158 189t48 272q0 116 -28 210.5t-87 162t-150 103.5t-217 36
h-249v-158.5v-175.5v-380v-172.5v-155.5zM1543 0v105q81 106 158.5 207.5t146.5 191.5l301 394l28 -70h-210h-122h-149h-147v166h831v-123q-37 -49 -86 -112.5t-101 -131t-100 -129.5l-295 -385l-22 54h230h122.5h144.5h138v-167h-868zM1857 1136q-66 103 -131.5 204
t-130.5 202l164 2q60 -77 119 -154t119 -156h-53q60 78 119 154l118 152h166q-65 -99 -131 -200t-132 -204h-227z" />
    <glyph glyph-name="uni01C6" unicode="&#x1c6;" horiz-adv-x="2168" 
d="M506 -24q-140 0 -232.5 73t-138 192.5t-45.5 258.5q0 147 48.5 265t142.5 186t228 68q65 0 120 -17t97 -47t70 -68h20v100v243.5v233.5l214 23v-242.5v-257.5v-551v-225v-211h-184l-12 134h-18q-38 -51 -84.5 -86t-102.5 -53.5t-123 -18.5zM579 163q54 0 98 17.5
t78.5 49.5t60.5 76v404q-27 40 -64 66.5t-81 40t-90 13.5q-92 0 -152 -45t-90 -120.5t-30 -166.5q0 -87 28.5 -163.5t88 -124t153.5 -47.5zM1233 0v105q81 106 158.5 207.5t146.5 191.5l301 394l28 -70h-210h-122h-149h-147v166h831v-123q-37 -49 -86 -112.5t-101 -131
t-100 -129.5l-295 -385l-22 54h230h122.5h144.5h138v-167h-868zM1547 1136q-66 103 -131.5 204t-130.5 202l164 2q60 -77 119 -154t119 -156h-53q60 78 119 154l118 152h166q-65 -99 -131 -200t-132 -204h-227z" />
    <glyph glyph-name="uni01C7" unicode="&#x1c7;" horiz-adv-x="1753" 
d="M169 0v227v242v480v247v230h235v-230v-247v-443v-242.5v-226.5l-85 170h268h194.5h156.5h148v-207h-917zM1171 -314q56 67 94.5 135.5t58.5 146.5t21 176v435v370v247v230h235v-230v-247v-333v-251.5v-238.5q0 -82 -14 -148.5t-39 -119.5t-57 -95t-68 -77h-231z" />
    <glyph glyph-name="uni01C8" unicode="&#x1c8;" horiz-adv-x="1676" 
d="M169 0v227v242v480v247v230h235v-230v-247v-443v-242.5v-226.5l-85 170h268h194.5h156.5h148v-207h-917zM1150 -391q56 64 91 131.5t51 147t16 178.5v370v100v169v147v142l214 7v-144v-149v-172v-195.5v-157.5v-143q0 -75 -10.5 -138t-30.5 -115.5t-48.5 -95t-64.5 -75.5
zM1413 1196q-64 0 -103.5 33.5t-39.5 105.5q0 67 39.5 102t105.5 35q67 0 105.5 -36t38.5 -101q0 -72 -39 -105.5t-107 -33.5z" />
    <glyph glyph-name="uni01C9" unicode="&#x1c9;" horiz-adv-x="1048" 
d="M154 0v211v225v551v244v233l214 23v-242.5v-257.5v-551v-225v-211h-214zM522 -391q56 64 91 131.5t51 147t16 178.5v370v100v169v147v142l214 7v-144v-149v-172v-195.5v-157.5v-143q0 -75 -10.5 -138t-30.5 -115.5t-48.5 -95t-64.5 -75.5zM784 1196q-64 0 -103.5 33.5
t-39.5 105.5q0 67 39.5 102t105.5 35q67 0 105.5 -36t38.5 -101q0 -72 -39 -105.5t-107 -33.5z" />
    <glyph glyph-name="uni01CA" unicode="&#x1ca;" horiz-adv-x="2108" 
d="M169 0v227v242v480v247v230h208q118 -168 225.5 -321t212.5 -304l281 -399h19v547v247v230h221v-230v-247v-480v-242v-227h-205q-97 139 -204.5 291.5t-235.5 334.5l-283 403h-18v-560v-242v-227h-221zM1526 -314q56 67 94.5 135.5t58.5 146.5t21 176v435v370v247v230
h235v-230v-247v-333v-251.5v-238.5q0 -82 -14 -148.5t-39 -119.5t-57 -95t-68 -77h-231z" />
    <glyph glyph-name="uni01CB" unicode="&#x1cb;" horiz-adv-x="2031" 
d="M169 0v227v242v480v247v230h208q118 -168 225.5 -321t212.5 -304l281 -399h19v547v247v230h221v-230v-247v-480v-242v-227h-205q-97 139 -204.5 291.5t-235.5 334.5l-283 403h-18v-560v-242v-227h-221zM1505 -391q56 64 91 131.5t51 147t16 178.5v370v100v169v147v142
l214 7v-144v-149v-172v-195.5v-157.5v-143q0 -75 -10.5 -138t-30.5 -115.5t-48.5 -95t-64.5 -75.5zM1768 1196q-64 0 -103.5 33.5t-39.5 105.5q0 67 39.5 102t105.5 35q67 0 105.5 -36t38.5 -101q0 -72 -39 -105.5t-107 -33.5z" />
    <glyph glyph-name="uni01CC" unicode="&#x1cc;" horiz-adv-x="1676" 
d="M154 0v211v225v100v226.5v231.5l183 12l8 -180h21q32 46 81.5 90.5t115.5 73.5t151 29q155 0 229.5 -90t74.5 -264v-117.5v-111.5v-223.5v-212.5h-214v211.5v213.5v178q0 108 -37 163t-136 55q-58 0 -106 -23.5t-87 -63t-70 -87.5v-222v-215.5v-209.5h-214zM1150 -391
q56 64 91 131.5t51 147t16 178.5v370v100v169v147v142l214 7v-144v-149v-172v-195.5v-157.5v-143q0 -75 -10.5 -138t-30.5 -115.5t-48.5 -95t-64.5 -75.5zM1413 1196q-64 0 -103.5 33.5t-39.5 105.5q0 67 39.5 102t105.5 35q67 0 105.5 -36t38.5 -101q0 -72 -39 -105.5
t-107 -33.5z" />
    <glyph glyph-name="Gcaron" unicode="&#x1e6;" horiz-adv-x="1463" 
d="M854 -23q-185 0 -327 55.5t-239 155t-147 234t-50 293.5q0 216 89 382.5t252.5 261t387.5 94.5q75 0 146 -10t134 -26.5t116.5 -36.5t92.5 -40l-19 -222q-83 47 -161.5 76t-151.5 42.5t-140 13.5q-110 0 -201.5 -36t-159.5 -105t-105 -168.5t-37 -226.5q0 -113 32 -211.5
t98 -173.5t168 -117t241 -42q58 0 114 6t109.5 18.5t106 32t102.5 47.5l28 -215q-34 -15 -86 -29.5t-115.5 -26.5t-134 -19t-143.5 -7zM1111 55v189v162v168.5v149.5h222v-149.5v-168.5v-161.5v-185.5zM682 1564q-65 93 -131 185.5t-131 183.5l164 3q61 -72 120.5 -142.5
t120.5 -143.5h-58q61 72 120.5 142t118.5 140h166q-65 -90 -130.5 -182.5t-132.5 -185.5h-227z" />
    <glyph glyph-name="gcaron" unicode="&#x1e7;" horiz-adv-x="1090" 
d="M485 -407q-111 0 -186 19.5t-119.5 53t-63 75t-18.5 84.5q0 67 32 111.5t75 69.5t74 35v17q-16 5 -39.5 21.5t-42.5 47t-19 76.5q0 34 12.5 64t39 54.5t68.5 42.5v17q-25 10 -61 33t-70.5 60t-58 91t-23.5 127q0 95 47 169t137 115.5t218 41.5q50 0 88 -5t79 -10.5
t101 -5.5h295v-154h-186.5h-184.5l59 98q79 -42 115 -109t36 -153q0 -100 -41.5 -168.5t-114.5 -110.5t-168 -63q-97 -23 -143.5 -40.5t-46.5 -51.5q0 -24 20 -37t62 -19t110 -6h42q134 0 223 -21.5t133.5 -73.5t44.5 -142q0 -92 -46.5 -159t-124.5 -110t-170 -63.5
t-184 -20.5zM507 -240q101 0 168 26.5t100 62t33 62.5q0 32 -20 54t-75 33.5t-159 11.5h-35q-53 -2 -105 -19.5t-86.5 -47t-34.5 -67.5q0 -22 11.5 -43t37 -37.5t66.5 -26t99 -9.5zM478 486q31 5 68 15.5t70 30.5t54 52t21 79q0 63 -32 102.5t-79.5 58.5t-95.5 19
q-51 0 -96.5 -19t-75 -57t-29.5 -93q0 -54 28 -93t72.5 -63t94.5 -32zM409 1136q-66 103 -131.5 204t-130.5 202l164 2q60 -77 119 -154t119 -156h-53q60 78 119 154l118 152h166q-65 -99 -131 -200t-132 -204h-227z" />
    <glyph glyph-name="uni01EA" unicode="&#x1ea;" horiz-adv-x="1632" 
d="M823 -24q-186 0 -323.5 59t-228 162t-135.5 236t-45 281q0 207 83.5 374.5t245 266t396.5 98.5q178 0 313.5 -57t227 -158.5t137.5 -235.5t46 -288q0 -211 -84 -378t-244.5 -263.5t-388.5 -96.5zM818 174q123 0 213 44t149 120t87.5 173t28.5 203q0 114 -31 212
t-91.5 172t-149.5 115.5t-206 41.5q-121 0 -211 -43t-150.5 -119t-90.5 -173t-30 -206q0 -108 29 -205t88.5 -172.5t150.5 -119t214 -43.5zM902 -423q-80 0 -133 21.5t-79 60t-26 87.5q0 50 23.5 95t67.5 85t105 75v44l112 10l45 -55q-80 -38 -134.5 -91.5t-54.5 -110.5
q0 -41 28.5 -61.5t76.5 -20.5q33 0 56 5t36 9v-135q-22 -7 -55 -12.5t-68 -5.5z" />
    <glyph glyph-name="uni01EB" unicode="&#x1eb;" horiz-adv-x="1195" 
d="M602 -24q-128 0 -224 43t-160.5 116.5t-96.5 168t-32 198.5q0 149 60 265.5t174 184t275 67.5q123 0 218 -39t159.5 -109.5t97.5 -164.5t33 -204q0 -149 -60 -268t-173.5 -188.5t-270.5 -69.5zM601 156q96 0 160 49.5t95.5 128.5t31.5 168q0 103 -35.5 178.5t-100 117
t-152.5 41.5q-95 0 -160.5 -44.5t-99 -121t-33.5 -171.5q0 -89 32.5 -168t98 -128.5t163.5 -49.5zM644 -423q-80 0 -133 21.5t-79 60t-26 87.5q0 50 23.5 95t67.5 85t105 75v44l112 10l45 -55q-80 -38 -134.5 -91.5t-54.5 -110.5q0 -41 28.5 -61.5t76.5 -20.5q33 0 56 5
t36 9v-135q-22 -7 -55 -12.5t-68 -5.5z" />
    <glyph glyph-name="Aringacute" unicode="&#x1fa;" horiz-adv-x="1401" 
d="M53 0q40 115 84 242t85 241l170 490q47 132 84 238.5t75 214.5h305q39 -111 75.5 -217t82.5 -237l169 -491q41 -118 84.5 -242.5t82.5 -238.5h-244q-39 121 -80 248.5t-78 241.5l-236 730h-20l-239 -723q-39 -118 -81 -247t-82 -250h-237zM346 336l22 180h692l18 -180
h-732zM699 1549q-72 0 -126 25t-85 74.5t-31 120.5q0 99 67.5 158t176.5 59q72 0 126.5 -27.5t85 -76.5t30.5 -113q0 -72 -31 -121t-85.5 -74t-127.5 -25zM699 1650q56 0 91 30t35 88q0 52 -34.5 85t-89.5 33q-56 0 -91 -32.5t-35 -85.5q0 -58 35 -88t89 -30zM569 1909
q67 93 132.5 185t130.5 184l230 4q-56 -64 -110.5 -126t-109 -123t-107.5 -121z" />
    <glyph glyph-name="aringacute" unicode="&#x1fb;" horiz-adv-x="1039" 
d="M390 -21q-85 0 -152 34.5t-105.5 100t-38.5 159.5q0 83 28.5 139.5t75.5 92.5t105 56t117 29l295 46q4 83 -24.5 127t-80 60t-116.5 16q-34 0 -73.5 -5t-83 -16.5t-91 -28t-97.5 -39.5l-12 190q37 15 83 29t99.5 25.5t110.5 17.5t116 6q118 0 202 -35t129 -111.5
t45 -198.5v-119v-132v-120v-144v-158h-193l-12 132h-19q-29 -37 -72.5 -72t-103 -58t-132.5 -23zM460 149q48 0 94.5 21.5t86.5 61.5t69 97v176q-15 -9 -38.5 -17t-70.5 -18t-132 -25q-49 -8 -84 -29t-54.5 -54.5t-19.5 -79.5q0 -73 44.5 -103t104.5 -30zM528 1117
q-72 0 -126 25t-85 74.5t-31 120.5q0 99 67.5 158t176.5 59q72 0 126.5 -27.5t85 -76.5t30.5 -113q0 -72 -31 -121t-85.5 -74t-127.5 -25zM528 1218q56 0 91 30t35 88q0 52 -34.5 85t-89.5 33q-56 0 -91 -32.5t-35 -85.5q0 -58 35 -88t89 -30zM398 1490q66 101 132 202.5
t131 201.5l230 6q-56 -70 -111 -138.5t-108.5 -135.5t-107.5 -134z" />
    <glyph glyph-name="AEacute" unicode="&#x1fc;" horiz-adv-x="1959" 
d="M28 0l126 241.5t125 241.5l255 492q67 129 123 235.5t112 215.5h1078v-198h-135.5h-152.5h-182h-285l77 162v-229.5v-246.5v-409v-241.5v-227.5l-71 162h297h162.5h151.5h143v-198h-913v227v242v481v243.5v213.5l115 -172h-157l-375 -738q-60 -120 -125.5 -248
t-127.5 -249h-241zM387 336l22 181h613l19 -181h-654zM1117 626v191h271h233.5h188.5v-191h-95.5h-98h-107h-122.5h-270zM889 1565q67 93 132.5 185t130.5 184l230 4q-56 -64 -110.5 -126t-109 -123t-107.5 -121z" />
    <glyph glyph-name="aeacute" unicode="&#x1fd;" horiz-adv-x="1625" 
d="M1206 -23q-173 0 -283.5 68t-163.5 186t-53 271q0 151 51.5 268t149.5 182.5t238 65.5q128 0 220 -48.5t142 -144.5t50 -238q0 -38 -1.5 -68.5t-6.5 -60.5l-187 82q2 15 3 29.5t1 27.5q0 123 -63 190.5t-159 67.5q-77 0 -133.5 -42t-87.5 -115t-31 -168v-32
q0 -158 82 -249t255 -91q44 0 96.5 7.5t105.5 23.5t100 41l8 -186q-38 -20 -89.5 -35t-112.5 -23.5t-131 -8.5zM442 149q48 0 94.5 21.5t86.5 61.5t69 97v176q-14 -9 -38 -17t-71 -18t-132 -25q-49 -8 -84 -29t-54.5 -54.5t-19.5 -79.5q0 -73 44.5 -103t104.5 -30zM388 -21
q-94 0 -164 34.5t-109 100t-39 159.5q0 83 28.5 139.5t75.5 92.5t105 56t117 29l296 46q3 83 -25.5 127t-80 60t-116.5 16q-34 0 -73.5 -5t-83 -16.5t-90.5 -28t-98 -39.5l-11 190q35 15 79.5 29t95.5 25.5t106 17.5t111 6q167 0 257.5 -81t90.5 -264l-36 -168l5 -248
q-52 -98 -120.5 -159.5t-150 -90t-170.5 -28.5zM763 458v146l658 8l128 -52v-102h-786zM637 1146q66 101 132 202.5t131 201.5l230 6q-56 -70 -111 -138.5t-108.5 -135.5t-107.5 -134z" />
    <glyph glyph-name="Oslashacute" unicode="&#x1fe;" horiz-adv-x="1632" 
d="M823 -24q-186 0 -323.5 59t-228 162t-135.5 236t-45 281q0 207 83.5 374.5t245 266t396.5 98.5q178 0 313.5 -57t227 -158.5t137.5 -235.5t46 -288q0 -211 -84 -378t-244.5 -263.5t-388.5 -96.5zM818 174q123 0 213 44t149 120t87.5 173t28.5 203q0 114 -31 212
t-91.5 172t-149.5 115.5t-206 41.5q-121 0 -211 -43t-150.5 -119t-90.5 -173t-30 -206q0 -108 29 -205t88.5 -172.5t150.5 -119t214 -43.5zM272 -138l-113 95q105 137 197.5 257.5t199.5 260.5l393 515q110 143 205.5 267.5t195.5 255.5l117 -88q-102 -133 -196 -256.5
t-204 -265.5l-397 -520q-108 -142 -203.5 -266.5t-194.5 -254.5zM651 1565q67 93 132.5 185t130.5 184l230 4q-56 -64 -110.5 -126t-109 -123t-107.5 -121z" />
    <glyph glyph-name="oslashacute" unicode="&#x1ff;" horiz-adv-x="1195" 
d="M602 -23q-128 0 -224 42.5t-160 115.5t-96.5 168t-32.5 199q0 149 60 265.5t174 183.5t275 67q123 0 218 -39t159.5 -109.5t98 -164t33.5 -203.5q0 -148 -61 -267t-174 -188.5t-270 -69.5zM600 156q97 0 161 49.5t95 128.5t31 168q0 103 -35.5 179t-99.5 117t-152 41
q-96 0 -161.5 -45t-98.5 -121.5t-33 -170.5q0 -89 32.5 -168t98 -128.5t162.5 -49.5zM205 -136l-102 81q78 102 146.5 191.5t146.5 191.5l288 377q83 109 153 200t143 186l105 -77q-74 -97 -145 -190t-152 -199l-292 -381q-80 -104 -148.5 -194t-142.5 -186zM432 1146
q66 101 132 202.5t131 201.5l230 6q-56 -70 -111 -138.5t-108.5 -135.5t-107.5 -134z" />
    <glyph glyph-name="uni0200" unicode="&#x200;" horiz-adv-x="1401" 
d="M53 0q40 115 84 242t85 241l170 490q47 132 84 238.5t75 214.5h305q39 -111 75.5 -217t82.5 -237l169 -491q41 -118 84.5 -242.5t82.5 -238.5h-244q-39 121 -80 248.5t-78 241.5l-236 730h-20l-239 -723q-39 -118 -81 -247t-82 -250h-237zM346 336l22 180h692l18 -180
h-732zM474 1565q-51 60 -103 120.5t-104.5 122.5t-106.5 126l213 4q63 -92 127 -184.5t129 -185.5zM863 1565q-44 60 -88.5 120.5t-89.5 122.5t-92 126l206 4q53 -92 105.5 -184t106.5 -186z" />
    <glyph glyph-name="uni0201" unicode="&#x201;" horiz-adv-x="1039" 
d="M390 -21q-85 0 -152 34.5t-105.5 100t-38.5 159.5q0 83 28.5 139.5t75.5 92.5t105 56t117 29l295 46q4 83 -24.5 127t-80 60t-116.5 16q-34 0 -73.5 -5t-83 -16.5t-91 -28t-97.5 -39.5l-12 190q37 15 83 29t99.5 25.5t110.5 17.5t116 6q118 0 202 -35t129 -111.5
t45 -198.5v-119v-132v-120v-144v-158h-193l-12 132h-19q-29 -37 -72.5 -72t-103 -58t-132.5 -23zM460 149q48 0 94.5 21.5t86.5 61.5t69 97v176q-15 -9 -38.5 -17t-70.5 -18t-132 -25q-49 -8 -84 -29t-54.5 -54.5t-19.5 -79.5q0 -73 44.5 -103t104.5 -30zM303 1146
q-51 66 -103.5 132.5t-105 134.5t-105.5 137l213 6q63 -101 127 -203.5t129 -204.5zM692 1146q-44 66 -88.5 132.5t-90 134.5t-91.5 137l206 6q53 -101 106 -202.5t106 -205.5z" />
    <glyph glyph-name="uni0202" unicode="&#x202;" horiz-adv-x="1401" 
d="M53 0q40 115 84 242t85 241l170 490q47 132 84 238.5t75 214.5h305q39 -111 75.5 -217t82.5 -237l169 -491q41 -118 84.5 -242.5t82.5 -238.5h-244q-39 121 -80 248.5t-78 241.5l-236 730h-20l-239 -723q-39 -118 -81 -247t-82 -250h-237zM346 336l22 180h692l18 -180
h-732zM887 1560q0 124 -47.5 183t-139.5 59q-94 0 -141.5 -58t-47.5 -177h-152q0 129 38 214.5t114 128.5t189 43q166 0 252.5 -96.5t86.5 -289.5z" />
    <glyph glyph-name="uni0203" unicode="&#x203;" horiz-adv-x="1039" 
d="M390 -21q-85 0 -152 34.5t-105.5 100t-38.5 159.5q0 83 28.5 139.5t75.5 92.5t105 56t117 29l295 46q4 83 -24.5 127t-80 60t-116.5 16q-34 0 -73.5 -5t-83 -16.5t-91 -28t-97.5 -39.5l-12 190q37 15 83 29t99.5 25.5t110.5 17.5t116 6q118 0 202 -35t129 -111.5
t45 -198.5v-119v-132v-120v-144v-158h-193l-12 132h-19q-29 -37 -72.5 -72t-103 -58t-132.5 -23zM460 149q48 0 94.5 21.5t86.5 61.5t69 97v176q-15 -9 -38.5 -17t-70.5 -18t-132 -25q-49 -8 -84 -29t-54.5 -54.5t-19.5 -79.5q0 -73 44.5 -103t104.5 -30zM716 1140
q0 125 -47.5 183.5t-139.5 58.5q-94 0 -141.5 -58t-47.5 -177h-152q0 129 38 215t114 128.5t189 42.5q166 0 252.5 -96t86.5 -290z" />
    <glyph glyph-name="uni0204" unicode="&#x204;" horiz-adv-x="1189" 
d="M168 0v227v242v481v246v230h908v-198h-208h-262h-339l131 162v-229.5v-246.5v-409v-241.5v-227.5l-117 162h344h239h217v-198h-913zM346 626v191h271h233.5h188.5v-191h-192.5h-230.5h-270zM399 1565q-51 60 -103 120.5t-104.5 122.5t-106.5 126l213 4q63 -92 127 -184.5
t129 -185.5zM788 1565q-44 60 -88.5 120.5t-89.5 122.5t-92 126l206 4q53 -92 105.5 -184t106.5 -186z" />
    <glyph glyph-name="uni0205" unicode="&#x205;" horiz-adv-x="1054" 
d="M621 -23q-183 0 -301 68t-174.5 186t-56.5 271q0 151 54.5 268t159.5 182.5t254 65.5q129 0 222 -48.5t143 -144.5t50 -238q0 -38 -1.5 -68.5t-6.5 -60.5l-187 82q2 15 3 29.5t1 27.5q0 123 -61.5 190.5t-160.5 67.5q-77 0 -134 -42t-88.5 -115t-31.5 -168v-32
q0 -106 36.5 -182t112 -117t190.5 -41q44 0 96.5 7.5t105.5 23.5t100 41l8 -186q-38 -20 -89 -35t-112.5 -23.5t-131.5 -8.5zM175 458v146l661 8l128 -53v-101h-789zM327 1146q-51 66 -103.5 132.5t-105 134.5t-105.5 137l213 6q63 -101 127 -203.5t129 -204.5zM716 1146
q-44 66 -88.5 132.5t-90 134.5t-91.5 137l206 6q53 -101 106 -202.5t106 -205.5z" />
    <glyph glyph-name="uni0206" unicode="&#x206;" horiz-adv-x="1189" 
d="M168 0v227v242v481v246v230h908v-198h-208h-262h-339l131 162v-229.5v-246.5v-409v-241.5v-227.5l-117 162h344h239h217v-198h-913zM346 626v191h271h233.5h188.5v-191h-192.5h-230.5h-270zM812 1560q0 124 -47.5 183t-139.5 59q-94 0 -141.5 -58t-47.5 -177h-152
q0 129 38 214.5t114 128.5t189 43q166 0 252.5 -96.5t86.5 -289.5z" />
    <glyph glyph-name="uni0207" unicode="&#x207;" horiz-adv-x="1054" 
d="M621 -23q-183 0 -301 68t-174.5 186t-56.5 271q0 151 54.5 268t159.5 182.5t254 65.5q129 0 222 -48.5t143 -144.5t50 -238q0 -38 -1.5 -68.5t-6.5 -60.5l-187 82q2 15 3 29.5t1 27.5q0 123 -61.5 190.5t-160.5 67.5q-77 0 -134 -42t-88.5 -115t-31.5 -168v-32
q0 -106 36.5 -182t112 -117t190.5 -41q44 0 96.5 7.5t105.5 23.5t100 41l8 -186q-38 -20 -89 -35t-112.5 -23.5t-131.5 -8.5zM175 458v146l661 8l128 -53v-101h-789zM740 1140q0 125 -47.5 183.5t-139.5 58.5q-94 0 -141.5 -58t-47.5 -177h-152q0 129 38 215t114 128.5
t189 42.5q166 0 252.5 -96t86.5 -290z" />
    <glyph glyph-name="uni0208" unicode="&#x208;" horiz-adv-x="585" 
d="M173 0v227v242v480v247v230h239v-230v-247v-480v-242v-227h-239zM62 1565q-51 60 -103 120.5t-104.5 122.5t-106.5 126l213 4q63 -92 127 -184.5t129 -185.5zM451 1565q-44 60 -88.5 120.5t-89.5 122.5t-92 126l206 4q53 -92 105.5 -184t106.5 -186z" />
    <glyph glyph-name="uni0209" unicode="&#x209;" horiz-adv-x="530" 
d="M158 0v211v225v100v169v147v142l214 7v-144v-149v-172v-100v-225v-211h-214zM38 1146q-51 66 -103.5 132.5t-105 134.5t-105.5 137l213 6q63 -101 127 -203.5t129 -204.5zM427 1146q-44 66 -88.5 132.5t-90 134.5t-91.5 137l206 6q53 -101 106 -202.5t106 -205.5z" />
    <glyph glyph-name="uni020A" unicode="&#x20a;" horiz-adv-x="585" 
d="M173 0v227v242v480v247v230h239v-230v-247v-480v-242v-227h-239zM475 1560q0 124 -47.5 183t-139.5 59q-94 0 -141.5 -58t-47.5 -177h-152q0 129 38 214.5t114 128.5t189 43q166 0 252.5 -96.5t86.5 -289.5z" />
    <glyph glyph-name="uni020B" unicode="&#x20b;" horiz-adv-x="530" 
d="M158 0v211v225v100v169v147v142l214 7v-144v-149v-172v-100v-225v-211h-214zM422 1140q0 125 -39.5 183.5t-119.5 58.5t-120.5 -58t-40.5 -177h-149q0 129 34.5 214.5t103.5 128.5t172 43q153 0 231 -97t78 -289z" />
    <glyph glyph-name="uni020C" unicode="&#x20c;" horiz-adv-x="1632" 
d="M823 -24q-186 0 -323.5 59t-228 162t-135.5 236t-45 281q0 207 83.5 374.5t245 266t396.5 98.5q178 0 313.5 -57t227 -158.5t137.5 -235.5t46 -288q0 -211 -84 -378t-244.5 -263.5t-388.5 -96.5zM818 174q123 0 213 44t149 120t87.5 173t28.5 203q0 114 -31 212
t-91.5 172t-149.5 115.5t-206 41.5q-121 0 -211 -43t-150.5 -119t-90.5 -173t-30 -206q0 -108 29 -205t88.5 -172.5t150.5 -119t214 -43.5zM589 1565q-51 60 -103 120.5t-104.5 122.5t-106.5 126l213 4q63 -92 127 -184.5t129 -185.5zM978 1565q-44 60 -88.5 120.5
t-89.5 122.5t-92 126l206 4q53 -92 105.5 -184t106.5 -186z" />
    <glyph glyph-name="uni020D" unicode="&#x20d;" horiz-adv-x="1195" 
d="M602 -24q-128 0 -224 43t-160.5 116.5t-96.5 168t-32 198.5q0 149 60 265.5t174 184t275 67.5q123 0 218 -39t159.5 -109.5t97.5 -164.5t33 -204q0 -149 -60 -268t-173.5 -188.5t-270.5 -69.5zM601 156q96 0 160 49.5t95.5 128.5t31.5 168q0 103 -35.5 178.5t-100 117
t-152.5 41.5q-95 0 -160.5 -44.5t-99 -121t-33.5 -171.5q0 -89 32.5 -168t98 -128.5t163.5 -49.5zM370 1146q-51 66 -103.5 132.5t-105 134.5t-105.5 137l213 6q63 -101 127 -203.5t129 -204.5zM759 1146q-44 66 -88.5 132.5t-90 134.5t-91.5 137l206 6q53 -101 106 -202.5
t106 -205.5z" />
    <glyph glyph-name="uni020E" unicode="&#x20e;" horiz-adv-x="1632" 
d="M823 -24q-186 0 -323.5 59t-228 162t-135.5 236t-45 281q0 207 83.5 374.5t245 266t396.5 98.5q178 0 313.5 -57t227 -158.5t137.5 -235.5t46 -288q0 -211 -84 -378t-244.5 -263.5t-388.5 -96.5zM818 174q123 0 213 44t149 120t87.5 173t28.5 203q0 114 -31 212
t-91.5 172t-149.5 115.5t-206 41.5q-121 0 -211 -43t-150.5 -119t-90.5 -173t-30 -206q0 -108 29 -205t88.5 -172.5t150.5 -119t214 -43.5zM1002 1560q0 124 -47.5 183t-139.5 59q-94 0 -141.5 -58t-47.5 -177h-152q0 129 38 214.5t114 128.5t189 43q166 0 252.5 -96.5
t86.5 -289.5z" />
    <glyph glyph-name="uni020F" unicode="&#x20f;" horiz-adv-x="1195" 
d="M602 -24q-128 0 -224 43t-160.5 116.5t-96.5 168t-32 198.5q0 149 60 265.5t174 184t275 67.5q123 0 218 -39t159.5 -109.5t97.5 -164.5t33 -204q0 -149 -60 -268t-173.5 -188.5t-270.5 -69.5zM601 156q96 0 160 49.5t95.5 128.5t31.5 168q0 103 -35.5 178.5t-100 117
t-152.5 41.5q-95 0 -160.5 -44.5t-99 -121t-33.5 -171.5q0 -89 32.5 -168t98 -128.5t163.5 -49.5zM783 1140q0 125 -47.5 183.5t-139.5 58.5q-94 0 -141.5 -58t-47.5 -177h-152q0 129 38 215t114 128.5t189 42.5q166 0 252.5 -96t86.5 -290z" />
    <glyph glyph-name="uni0210" unicode="&#x210;" horiz-adv-x="1356" 
d="M168 0v227v242v481v246v230h140h172.5h193.5q167 0 280 -38.5t170 -125t57 -232.5q0 -119 -46.5 -217t-152.5 -157.5t-285 -60.5l83 99l214 -283q50 -66 106 -140t109.5 -145t94.5 -126h-271q-64 88 -123.5 169.5t-116.5 159.5l-249 342l142 -122h-329v191h259
q109 0 180.5 25.5t107 83.5t35.5 155q0 79 -25 125t-65.5 69t-88.5 30t-94 7h-431l163 155v-234v-242v-445v-242v-227h-230zM414 1565q-51 60 -103 120.5t-104.5 122.5t-106.5 126l213 4q63 -92 127 -184.5t129 -185.5zM803 1565q-44 60 -88.5 120.5t-89.5 122.5t-92 126
l206 4q53 -92 105.5 -184t106.5 -186z" />
    <glyph glyph-name="uni0211" unicode="&#x211;" horiz-adv-x="808" 
d="M154 0v211v225v100v226.5v231.5l183 12l8 -196h20q40 88 91 133t104 60.5t99 15.5q26 0 54 -4t53 -13l-19 -212q-35 6 -63 9t-64 3q-28 0 -62 -7.5t-68.5 -30.5t-66 -68.5t-55.5 -119.5v-151v-215.5v-209.5h-214zM241 1146q-51 66 -103.5 132.5t-105 134.5t-105.5 137
l213 6q63 -101 127 -203.5t129 -204.5zM630 1146q-44 66 -88.5 132.5t-90 134.5t-91.5 137l206 6q53 -101 106 -202.5t106 -205.5z" />
    <glyph glyph-name="uni0212" unicode="&#x212;" horiz-adv-x="1356" 
d="M168 0v227v242v481v246v230h140h172.5h193.5q167 0 280 -38.5t170 -125t57 -232.5q0 -119 -46.5 -217t-152.5 -157.5t-285 -60.5l83 99l214 -283q50 -66 106 -140t109.5 -145t94.5 -126h-271q-64 88 -123.5 169.5t-116.5 159.5l-249 342l142 -122h-329v191h259
q109 0 180.5 25.5t107 83.5t35.5 155q0 79 -25 125t-65.5 69t-88.5 30t-94 7h-431l163 155v-234v-242v-445v-242v-227h-230zM827 1560q0 124 -47.5 183t-139.5 59q-94 0 -141.5 -58t-47.5 -177h-152q0 129 38 214.5t114 128.5t189 43q166 0 252.5 -96.5t86.5 -289.5z" />
    <glyph glyph-name="uni0213" unicode="&#x213;" horiz-adv-x="808" 
d="M154 0v211v225v100v226.5v231.5l183 12l8 -196h20q40 88 91 133t104 60.5t99 15.5q26 0 54 -4t53 -13l-19 -212q-35 6 -63 9t-64 3q-28 0 -62 -7.5t-68.5 -30.5t-66 -68.5t-55.5 -119.5v-151v-215.5v-209.5h-214zM654 1140q0 125 -47.5 183.5t-139.5 58.5
q-94 0 -141.5 -58t-47.5 -177h-152q0 129 38 215t114 128.5t189 42.5q166 0 252.5 -96t86.5 -290z" />
    <glyph glyph-name="uni0214" unicode="&#x214;" horiz-adv-x="1459" 
d="M731 -24q-206 0 -333.5 69.5t-186.5 195.5t-59 296v106v145.5v160.5v247v230h234v-230v-247v-394q0 -120 34.5 -205t110 -130.5t199.5 -45.5q126 0 201 45.5t108 130.5t33 206v393v247v230h234v-230v-247v-161v-146.5v-105.5q0 -170 -60.5 -295.5t-187.5 -195t-327 -69.5
zM505 1565q-51 60 -103 120.5t-104.5 122.5t-106.5 126l213 4q63 -92 127 -184.5t129 -185.5zM894 1565q-44 60 -88.5 120.5t-89.5 122.5t-92 126l206 4q53 -92 105.5 -184t106.5 -186z" />
    <glyph glyph-name="uni0215" unicode="&#x215;" horiz-adv-x="1126" 
d="M436 -24q-155 0 -229.5 90.5t-74.5 264.5v115v98v167v143v140l214 8v-214v-220v-180q0 -107 37.5 -162t135.5 -55q55 0 102 23.5t85.5 63t69.5 87.5v223v216.5v209.5h214v-212.5v-237.5v-108v-225v-211h-183l-8 170h-21q-32 -47 -81 -91.5t-114 -73.5t-147 -29zM335 1146
q-51 66 -103.5 132.5t-105 134.5t-105.5 137l213 6q63 -101 127 -203.5t129 -204.5zM724 1146q-44 66 -88.5 132.5t-90 134.5t-91.5 137l206 6q53 -101 106 -202.5t106 -205.5z" />
    <glyph glyph-name="uni0216" unicode="&#x216;" horiz-adv-x="1459" 
d="M731 -24q-206 0 -333.5 69.5t-186.5 195.5t-59 296v106v145.5v160.5v247v230h234v-230v-247v-394q0 -120 34.5 -205t110 -130.5t199.5 -45.5q126 0 201 45.5t108 130.5t33 206v393v247v230h234v-230v-247v-161v-146.5v-105.5q0 -170 -60.5 -295.5t-187.5 -195t-327 -69.5
zM918 1560q0 124 -47.5 183t-139.5 59q-94 0 -141.5 -58t-47.5 -177h-152q0 129 38 214.5t114 128.5t189 43q166 0 252.5 -96.5t86.5 -289.5z" />
    <glyph glyph-name="uni0217" unicode="&#x217;" horiz-adv-x="1126" 
d="M436 -24q-155 0 -229.5 90.5t-74.5 264.5v115v98v167v143v140l214 8v-214v-220v-180q0 -107 37.5 -162t135.5 -55q55 0 102 23.5t85.5 63t69.5 87.5v223v216.5v209.5h214v-212.5v-237.5v-108v-225v-211h-183l-8 170h-21q-32 -47 -81 -91.5t-114 -73.5t-147 -29zM748 1140
q0 125 -47.5 183.5t-139.5 58.5q-94 0 -141.5 -58t-47.5 -177h-152q0 129 38 215t114 128.5t189 42.5q166 0 252.5 -96t86.5 -290z" />
    <glyph glyph-name="uni0218" unicode="&#x218;" horiz-adv-x="1183" 
d="M597 -23q-89 0 -180.5 15.5t-170 39.5t-126.5 48l19 219q69 -39 142.5 -66.5t149 -43t150.5 -15.5q82 0 146 21.5t100.5 67t36.5 117.5q0 69 -40.5 114t-117.5 78.5t-184 65.5q-134 41 -229 91.5t-144.5 126.5t-49.5 196q0 116 53.5 207t160 142.5t266.5 51.5
q64 0 128.5 -9t124 -23.5t108.5 -33.5t85 -39l-21 -218q-61 41 -129.5 68.5t-135 42t-123.5 14.5q-73 0 -134 -21t-98 -63.5t-37 -108.5q0 -60 32 -101t101 -73t178 -66q171 -54 270 -109.5t140.5 -130.5t41.5 -188q0 -121 -53.5 -215t-167 -148t-292.5 -54zM447 -573
q39 58 48.5 115t9.5 135v74v74l101 8q62 -3 93 -34.5t31 -81.5q0 -56 -23 -110t-64.5 -99.5t-98.5 -77.5z" />
    <glyph glyph-name="uni0219" unicode="&#x219;" horiz-adv-x="918" 
d="M449 -23q-65 0 -128.5 9t-119 25.5t-97.5 36.5l16 194q45 -26 98 -45.5t110.5 -30t115.5 -10.5q48 0 88.5 9.5t65 36.5t24.5 80q0 35 -23 58t-75 41.5t-142 43.5q-83 22 -144.5 55t-95.5 88t-34 145q0 145 93 225t249 80q66 0 128 -10.5t113.5 -27t87.5 -34.5l-17 -194
q-46 29 -99.5 48.5t-102.5 29t-83 9.5q-39 0 -73.5 -10.5t-55.5 -36t-21 -68.5q0 -34 16 -58t58.5 -44t123.5 -42q101 -29 171.5 -61t106.5 -84t36 -144t-40 -163t-126 -111t-224 -40zM310 -573q39 58 48.5 115t9.5 135v74v74l101 8q62 -3 93 -34.5t31 -81.5q0 -56 -23 -110
t-64.5 -99.5t-98.5 -77.5z" />
    <glyph glyph-name="uni021A" unicode="&#x21a;" horiz-adv-x="1285" 
d="M526 0v227v242v445v246.5v229.5l91 -171h-177h-209h-173v207h1169v-207h-172h-210h-177l92 171v-229.5v-246.5v-445v-242v-227h-234zM493 -573q39 58 48.5 115t9.5 135v74v74l101 8q62 -3 93 -34.5t31 -81.5q0 -56 -23 -110t-64.5 -99.5t-98.5 -77.5z" />
    <glyph glyph-name="uni021B" unicode="&#x21b;" horiz-adv-x="829" 
d="M548 -24q-103 0 -175.5 34t-110 106t-37.5 186v158.5v159v158.5v158v196v185l211 42v-141v-132.5v-149.5v-575q0 -102 41 -153.5t128 -51.5q36 0 77.5 12.5t76.5 38.5l15 -180q-23 -15 -58.5 -26.5t-79 -18t-88.5 -6.5zM44 829v165h722v-165h-197h-193h-91h-241z
M319 -573q39 58 48.5 115t9.5 135v74v74l101 8q62 -3 93 -34.5t31 -81.5q0 -56 -23 -110t-64.5 -99.5t-98.5 -77.5z" />
    <glyph glyph-name="uni022A" unicode="&#x22a;" horiz-adv-x="1632" 
d="M823 -24q-186 0 -323.5 59t-228 162t-135.5 236t-45 281q0 207 83.5 374.5t245 266t396.5 98.5q178 0 313.5 -57t227 -158.5t137.5 -235.5t46 -288q0 -211 -84 -378t-244.5 -263.5t-388.5 -96.5zM818 174q123 0 213 44t149 120t87.5 173t28.5 203q0 114 -31 212
t-91.5 172t-149.5 115.5t-206 41.5q-121 0 -211 -43t-150.5 -119t-90.5 -173t-30 -206q0 -108 29 -205t88.5 -172.5t150.5 -119t214 -43.5zM1032 1604q-57 0 -91.5 33t-34.5 99q0 62 35 96.5t93 34.5q59 0 92.5 -36t33.5 -95q0 -66 -33.5 -99t-94.5 -33zM597 1604
q-57 0 -91.5 33t-34.5 99q0 62 35 96.5t93 34.5q59 0 92.5 -36t33.5 -95q0 -66 -34 -99t-94 -33zM490 2022v162h154.5h169.5h170h154v-162h-154h-170h-169.5h-154.5z" />
    <glyph glyph-name="uni022B" unicode="&#x22b;" horiz-adv-x="1195" 
d="M602 -24q-128 0 -224 43t-160.5 116.5t-96.5 168t-32 198.5q0 149 60 265.5t174 184t275 67.5q123 0 218 -39t159.5 -109.5t97.5 -164.5t33 -204q0 -149 -60 -268t-173.5 -188.5t-270.5 -69.5zM601 156q96 0 160 49.5t95.5 128.5t31.5 168q0 103 -35.5 178.5t-100 117
t-152.5 41.5q-95 0 -160.5 -44.5t-99 -121t-33.5 -171.5q0 -89 32.5 -168t98 -128.5t163.5 -49.5zM813 1184q-57 0 -91.5 33t-34.5 99q0 62 35 97t93 35q59 0 92.5 -36.5t33.5 -95.5q0 -66 -33.5 -99t-94.5 -33zM378 1184q-57 0 -91.5 33t-34.5 99q0 62 35 97t93 35
q59 0 92.5 -36.5t33.5 -95.5q0 -66 -34 -99t-94 -33zM271 1614v162h154.5h169.5h170h154v-162h-154h-170h-169.5h-154.5z" />
    <glyph glyph-name="uni022C" unicode="&#x22c;" horiz-adv-x="1632" 
d="M823 -24q-186 0 -323.5 59t-228 162t-135.5 236t-45 281q0 207 83.5 374.5t245 266t396.5 98.5q178 0 313.5 -57t227 -158.5t137.5 -235.5t46 -288q0 -211 -84 -378t-244.5 -263.5t-388.5 -96.5zM818 174q123 0 213 44t149 120t87.5 173t28.5 203q0 114 -31 212
t-91.5 172t-149.5 115.5t-206 41.5q-121 0 -211 -43t-150.5 -119t-90.5 -173t-30 -206q0 -108 29 -205t88.5 -172.5t150.5 -119t214 -43.5zM988 1556q-61 0 -105.5 25t-80 58t-66.5 58t-64 25q-54 0 -76 -36t-26 -97h-121q0 141 54.5 216t147.5 75q60 0 103.5 -25t78 -58
t66 -58t65.5 -25q53 0 74 37t24 97h121q0 -141 -52.5 -216.5t-142.5 -75.5zM492 2051v162h154.5h169.5h170h154v-162h-154h-170h-169.5h-154.5z" />
    <glyph glyph-name="uni022D" unicode="&#x22d;" horiz-adv-x="1195" 
d="M602 -24q-128 0 -224 43t-160.5 116.5t-96.5 168t-32 198.5q0 149 60 265.5t174 184t275 67.5q123 0 218 -39t159.5 -109.5t97.5 -164.5t33 -204q0 -149 -60 -268t-173.5 -188.5t-270.5 -69.5zM601 156q96 0 160 49.5t95.5 128.5t31.5 168q0 103 -35.5 178.5t-100 117
t-152.5 41.5q-95 0 -160.5 -44.5t-99 -121t-33.5 -171.5q0 -89 32.5 -168t98 -128.5t163.5 -49.5zM769 1137q-61 0 -105.5 25t-80 58t-66.5 58t-64 25q-54 0 -76 -36.5t-26 -97.5h-121q0 141 54.5 216.5t147.5 75.5q60 0 103.5 -25t78 -58t66 -58t65.5 -25q53 0 74 36.5
t24 96.5h121q0 -140 -52.5 -215.5t-142.5 -75.5zM273 1643v162h154.5h169.5h170h154v-162h-154h-170h-169.5h-154.5z" />
    <glyph glyph-name="uni0230" unicode="&#x230;" horiz-adv-x="1632" 
d="M823 -24q-186 0 -323.5 59t-228 162t-135.5 236t-45 281q0 207 83.5 374.5t245 266t396.5 98.5q178 0 313.5 -57t227 -158.5t137.5 -235.5t46 -288q0 -211 -84 -378t-244.5 -263.5t-388.5 -96.5zM818 174q123 0 213 44t149 120t87.5 173t28.5 203q0 114 -31 212
t-91.5 172t-149.5 115.5t-206 41.5q-121 0 -211 -43t-150.5 -119t-90.5 -173t-30 -206q0 -108 29 -205t88.5 -172.5t150.5 -119t214 -43.5zM812 1604q-64 0 -103.5 33t-39.5 105q0 68 39.5 103t105.5 35q67 0 105.5 -36.5t38.5 -101.5q0 -72 -39 -105t-107 -33zM491 2030
v162h154.5h169.5h170h154v-162h-154h-170h-169.5h-154.5z" />
    <glyph glyph-name="uni0231" unicode="&#x231;" horiz-adv-x="1195" 
d="M602 -24q-128 0 -224 43t-160.5 116.5t-96.5 168t-32 198.5q0 149 60 265.5t174 184t275 67.5q123 0 218 -39t159.5 -109.5t97.5 -164.5t33 -204q0 -149 -60 -268t-173.5 -188.5t-270.5 -69.5zM601 156q96 0 160 49.5t95.5 128.5t31.5 168q0 103 -35.5 178.5t-100 117
t-152.5 41.5q-95 0 -160.5 -44.5t-99 -121t-33.5 -171.5q0 -89 32.5 -168t98 -128.5t163.5 -49.5zM594 1196q-64 0 -103.5 33.5t-39.5 105.5q0 67 39.5 102t105.5 35q67 0 105.5 -36t38.5 -101q0 -72 -39 -105.5t-107 -33.5zM272 1634v162h154.5h169.5h170h154v-162h-154
h-170h-169.5h-154.5z" />
    <glyph glyph-name="uni0232" unicode="&#x232;" horiz-adv-x="1325" 
d="M553 538l-305 538q-49 86 -94 166.5t-104 183.5h268q48 -91 82.5 -156.5t65 -124t67.5 -129.5l121 -230h22l118 223q40 74 72 135t67.5 127t83.5 155h261q-50 -89 -99.5 -177t-97.5 -172l-304 -539h-224zM548 0v227v242v265h235v-265v-242v-227h-235zM341 1650v162h154.5
h169.5h170h154v-162h-154h-170h-169.5h-154.5z" />
    <glyph glyph-name="uni0233" unicode="&#x233;" horiz-adv-x="1058" 
d="M253 -391q40 100 81 202t81 201v-47q-37 103 -75 207.5l-74 203.5l-65 181q-39 107 -79.5 219t-79.5 218l230 8q38 -122 74 -238t73 -237l92 -301h20l101 302q40 118 78.5 233.5t78.5 232.5h227q-31 -80 -60.5 -154.5t-64.5 -164.5t-84 -215l-110 -280
q-74 -190 -126 -323t-95 -241zM205 1230v162h154.5h169.5h170h154v-162h-154h-170h-169.5h-154.5z" />
    <glyph glyph-name="uni0237" unicode="&#x237;" horiz-adv-x="526" 
d="M0 -391q56 64 91 131.5t51 147t16 178.5v370v100v169v147v142l214 7v-144v-149v-172v-195.5v-157.5v-143q0 -75 -10.5 -138t-30.5 -115.5t-48.5 -95t-64.5 -75.5z" />
    <glyph glyph-name="uni0259" unicode="&#x259;" horiz-adv-x="1054" 
d="M497 -23q-129 0 -222 48.5t-143 144.5t-50 238q0 39 2 69t6 60l187 -82q-1 -13 -2.5 -28t-1.5 -29q0 -122 62.5 -190t159.5 -68q77 0 134 42t88.5 115t31.5 168v32q0 106 -36.5 182t-111.5 117t-191 41q-44 0 -96.5 -7.5t-105.5 -23.5t-100 -41l-8 187q38 19 89.5 34
t112.5 23.5t131 8.5q183 0 301 -67.5t174.5 -186t56.5 -271.5q0 -151 -54.5 -267.5t-159 -182.5t-254.5 -66zM218 383l-128 53v101h789v-145z" />
    <glyph glyph-name="uni02BB" unicode="&#x2bb;" horiz-adv-x="474" 
d="M219 905q-65 7 -94 50.5t-29 106.5q0 65 18.5 128t50 120t70.5 104.5t80 80.5l110 3q-38 -56 -60.5 -113.5t-33 -121t-10.5 -136.5v-105v-109z" />
    <glyph glyph-name="uni02BC" unicode="&#x2bc;" horiz-adv-x="474" 
d="M49 899q38 56 61 113.5t33 121t10 136.5v105v109l103 8q65 -6 94 -49.5t29 -107.5q0 -65 -18.5 -128t-50.5 -120t-71 -104t-80 -81z" />
    <glyph glyph-name="uni02BE" unicode="&#x2be;" horiz-adv-x="394" 
d="M58 1117v101q56 0 91 30t35 88q0 52 -34.5 85t-89.5 33v100q72 0 126 -27.5t85 -76.5t31 -113q0 -72 -31 -121t-85.5 -74t-127.5 -25z" />
    <glyph glyph-name="uni02BF" unicode="&#x2bf;" horiz-adv-x="394" 
d="M334 1117q-72 0 -126.5 25t-85 74.5t-30.5 120.5q0 99 67.5 158t176.5 59v-100q-56 0 -91 -32.5t-35 -85.5q0 -58 35 -88t89 -30v-101z" />
    <glyph glyph-name="circumflex" unicode="&#x2c6;" horiz-adv-x="1200" 
d="M810 1144q-60 78 -118.5 155t-119.5 155h53q-60 -78 -118.5 -154t-118.5 -152h-166q65 100 131 201t132 203h227q66 -102 131.5 -203.5t130.5 -202.5z" />
    <glyph glyph-name="caron" unicode="&#x2c7;" horiz-adv-x="1200" 
d="M486 1136q-66 103 -131.5 204t-130.5 202l164 2q60 -77 119 -154t119 -156h-53q60 78 119 154l118 152h166q-65 -99 -131 -200t-132 -204h-227z" />
    <glyph glyph-name="uni02C8" unicode="&#x2c8;" horiz-adv-x="412" 
d="M120 1042v261.5v254.5h172v-254.5v-261.5h-172z" />
    <glyph glyph-name="uni02C9" unicode="&#x2c9;" horiz-adv-x="776" 
d="M64 1230v162h154.5h169.5h170h154v-162h-154h-170h-169.5h-154.5z" />
    <glyph glyph-name="uni02CA" unicode="&#x2ca;" horiz-adv-x="605" 
d="M32 1146q66 101 132 202.5t131 201.5l230 6q-56 -70 -111 -138.5t-108.5 -135.5t-107.5 -134z" />
    <glyph glyph-name="uni02CB" unicode="&#x2cb;" horiz-adv-x="605" 
d="M407 1146q-53 66 -107.5 133t-109 135t-110.5 136l229 6q66 -102 132 -203t132 -205z" />
    <glyph glyph-name="uni02CC" unicode="&#x2cc;" horiz-adv-x="412" 
d="M120 -384v261.5v254.5h172v-254.5v-261.5h-172z" />
    <glyph glyph-name="breve" unicode="&#x2d8;" horiz-adv-x="1200" 
d="M597 1132q-166 0 -252.5 96.5t-86.5 289.5l152 7q0 -123 47.5 -182.5t139.5 -59.5q93 0 141 58.5t48 176.5h152q0 -128 -38 -214t-114 -129t-189 -43z" />
    <glyph glyph-name="dotaccent" unicode="&#x2d9;" horiz-adv-x="1200" 
d="M600 1196q-64 0 -103.5 33.5t-39.5 105.5q0 67 39.5 102t105.5 35q67 0 105.5 -36t38.5 -101q0 -72 -39 -105.5t-107 -33.5z" />
    <glyph glyph-name="ring" unicode="&#x2da;" horiz-adv-x="1200" 
d="M598 1117q-72 0 -126 25t-85 74.5t-31 120.5q0 99 67.5 158t176.5 59q72 0 126.5 -27.5t85 -76.5t30.5 -113q0 -72 -31 -121t-85.5 -74t-127.5 -25zM598 1218q56 0 91 30t35 88q0 52 -34.5 85t-89.5 33q-56 0 -91 -32.5t-35 -85.5q0 -58 35 -88t89 -30z" />
    <glyph glyph-name="ogonek" unicode="&#x2db;" horiz-adv-x="1200" 
d="M483 -423q-80 0 -133 21.5t-79 60t-26 87.5q0 50 23.5 95t67.5 85t105 75v44l112 10l45 -55q-80 -38 -134.5 -91.5t-54.5 -110.5q0 -41 28.5 -61.5t76.5 -20.5q33 0 56 5t36 9v-135q-22 -7 -55 -12.5t-68 -5.5z" />
    <glyph glyph-name="tilde" unicode="&#x2dc;" horiz-adv-x="1200" 
d="M772 1137q-61 0 -105.5 25t-80 58t-66.5 58t-64 25q-54 0 -76 -36.5t-26 -97.5h-121q0 141 54.5 216.5t147.5 75.5q60 0 103.5 -25t78 -58t66 -58t65.5 -25q53 0 74 36.5t24 96.5h121q0 -140 -52.5 -215.5t-142.5 -75.5z" />
    <glyph glyph-name="hungarumlaut" unicode="&#x2dd;" horiz-adv-x="1200" 
d="M669 1146q65 101 129.5 202.5t128.5 201.5l219 6q-54 -70 -107.5 -138.5t-106 -136t-104.5 -133.5zM288 1146q55 102 108 202.5t105 201.5l209 6q-46 -70 -91.5 -138.5t-90.5 -136t-90 -133.5z" />
    <glyph glyph-name="gravecomb" unicode="&#x300;" 
d="M599 1146q-53 66 -107.5 133t-109 135t-110.5 136l229 6q66 -102 132 -203t132 -205z" />
    <glyph glyph-name="acutecomb" unicode="&#x301;" 
d="M435 1146q66 101 132 202.5t131 201.5l230 6q-56 -70 -111 -138.5t-108.5 -135.5t-107.5 -134z" />
    <glyph glyph-name="uni0302" unicode="&#x302;" 
d="M810 1144q-60 78 -118.5 155t-119.5 155h53q-60 -78 -118.5 -154t-118.5 -152h-166q65 100 131 201t132 203h227q66 -102 131.5 -203.5t130.5 -202.5z" />
    <glyph glyph-name="tildecomb" unicode="&#x303;" 
d="M772 1137q-61 0 -105.5 25t-80 58t-66.5 58t-64 25q-54 0 -76 -36.5t-26 -97.5h-121q0 141 54.5 216.5t147.5 75.5q60 0 103.5 -25t78 -58t66 -58t65.5 -25q53 0 74 36.5t24 96.5h121q0 -140 -52.5 -215.5t-142.5 -75.5z" />
    <glyph glyph-name="uni0304" unicode="&#x304;" 
d="M276 1230v162h154.5h169.5h170h154v-162h-154h-170h-169.5h-154.5z" />
    <glyph glyph-name="uni0306" unicode="&#x306;" 
d="M597 1132q-166 0 -252.5 96.5t-86.5 289.5l152 7q0 -123 47.5 -182.5t139.5 -59.5q93 0 141 58.5t48 176.5h152q0 -128 -38 -214t-114 -129t-189 -43z" />
    <glyph glyph-name="uni0307" unicode="&#x307;" 
d="M228 1196q-64 0 -103.5 33.5t-39.5 105.5q0 67 39.5 102t105.5 35q67 0 105.5 -36t38.5 -101q0 -72 -39 -105.5t-107 -33.5z" />
    <glyph glyph-name="uni0308" unicode="&#x308;" 
d="M814 1184q-57 0 -91.5 33t-34.5 99q0 62 35 97t93 35q59 0 92.5 -36.5t33.5 -95.5q0 -66 -33.5 -99t-94.5 -33zM379 1184q-57 0 -91.5 33t-34.5 99q0 62 35 97t93 35q59 0 92.5 -36.5t33.5 -95.5q0 -66 -34 -99t-94 -33z" />
    <glyph glyph-name="hookabovecomb" unicode="&#x309;" 
d="M510 1146v107q73 27 124.5 62.5t51.5 83.5q0 40 -30.5 56.5t-75.5 16.5q-32 0 -64.5 -6.5t-66 -18.5t-69.5 -29l-11 135q19 9 45 18.5t57.5 17t67 12.5t73.5 5q62 0 118.5 -18t92.5 -57t36 -105q0 -62 -31 -105.5t-80.5 -73.5t-105.5 -49v-52h-132z" />
    <glyph glyph-name="uni030A" unicode="&#x30a;" 
d="M598 1117q-72 0 -126 25t-85 74.5t-31 120.5q0 99 67.5 158t176.5 59q72 0 126.5 -27.5t85 -76.5t30.5 -113q0 -72 -31 -121t-85.5 -74t-127.5 -25zM598 1218q56 0 91 30t35 88q0 52 -34.5 85t-89.5 33q-56 0 -91 -32.5t-35 -85.5q0 -58 35 -88t89 -30z" />
    <glyph glyph-name="uni030B" unicode="&#x30b;" 
d="M669 1146q65 101 129.5 202.5t128.5 201.5l219 6q-54 -70 -107.5 -138.5t-106 -136t-104.5 -133.5zM288 1146q55 102 108 202.5t105 201.5l209 6q-46 -70 -91.5 -138.5t-90.5 -136t-90 -133.5z" />
    <glyph glyph-name="uni030C" unicode="&#x30c;" 
d="M486 1136q-66 103 -131.5 204t-130.5 202l164 2q60 -77 119 -154t119 -156h-53q60 78 119 154l118 152h166q-65 -99 -131 -200t-132 -204h-227z" />
    <glyph glyph-name="uni030F" unicode="&#x30f;" 
d="M373 1146q-51 66 -103.5 132.5t-105 134.5t-105.5 137l213 6q63 -101 127 -203.5t129 -204.5zM762 1146q-44 66 -88.5 132.5t-90 134.5t-91.5 137l206 6q53 -101 106 -202.5t106 -205.5z" />
    <glyph glyph-name="uni0311" unicode="&#x311;" 
d="M786 1140q0 125 -47.5 183.5t-139.5 58.5q-94 0 -141.5 -58t-47.5 -177h-152q0 129 38 215t114 128.5t189 42.5q166 0 252.5 -96t86.5 -290z" />
    <glyph glyph-name="uni0312" unicode="&#x312;" 
d="M586 1196q-61 4 -92.5 35.5t-31.5 80.5q0 56 23 110t64.5 99.5t98.5 77.5l97 3q-38 -58 -48 -114.5t-10 -135.5v-73.5v-74.5z" />
    <glyph glyph-name="uni031B" unicode="&#x31b;" 
d="M464 696l-34 118q99 0 150 25t69 67t18 97t-11 111.5t-24 106.5l155 9q13 -29 25 -62.5t19.5 -74t7.5 -90.5q0 -94 -41.5 -162.5t-124.5 -106.5t-209 -38z" />
    <glyph glyph-name="dotbelowcomb" unicode="&#x323;" 
d="M599 -443q-65 0 -104.5 33.5t-39.5 105.5q0 67 39.5 102t106.5 35q66 0 104.5 -36.5t38.5 -100.5q0 -72 -38.5 -105.5t-106.5 -33.5z" />
    <glyph glyph-name="uni0324" unicode="&#x324;" 
d="M814 -430q-57 0 -91.5 33t-34.5 99q0 62 35 96.5t93 34.5q59 0 92.5 -36t33.5 -95q0 -66 -33.5 -99t-94.5 -33zM379 -430q-57 0 -91.5 33t-34.5 99q0 62 35 96.5t93 34.5q59 0 92.5 -36t33.5 -95q0 -66 -34 -99t-94 -33z" />
    <glyph glyph-name="uni0326" unicode="&#x326;" 
d="M449 -573q39 58 48.5 115t9.5 135v74v74l101 8q62 -3 93 -34.5t31 -81.5q0 -56 -23 -110t-64.5 -99.5t-98.5 -77.5z" />
    <glyph glyph-name="uni0327" unicode="&#x327;" 
d="M548 -434q-23 0 -47 2t-45 5.5t-36 8.5v128q13 -5 39.5 -9.5t58.5 -4.5q65 0 91.5 21.5t26.5 54.5q0 19 -13 37t-47 32.5t-98 22.5l76 179h118v-43l-48 -109q71 -11 111 -34.5t56 -55t16 -67.5q0 -47 -25 -85t-82 -60.5t-152 -22.5z" />
    <glyph glyph-name="uni0328" unicode="&#x328;" 
d="M483 -423q-80 0 -133 21.5t-79 60t-26 87.5q0 50 23.5 95t67.5 85t105 75v44l112 10l45 -55q-80 -38 -134.5 -91.5t-54.5 -110.5q0 -41 28.5 -61.5t76.5 -20.5q33 0 56 5t36 9v-135q-22 -7 -55 -12.5t-68 -5.5z" />
    <glyph glyph-name="uni032E" unicode="&#x32e;" 
d="M598 -504q-166 0 -252.5 96.5t-86.5 289.5l152 7q0 -123 47.5 -182.5t139.5 -59.5q93 0 141 58.5t48 176.5h152q0 -128 -38 -214t-114 -129t-189 -43z" />
    <glyph glyph-name="uni0331" unicode="&#x331;" 
d="M276 -369v161h154.5h169.5h170h154v-161h-154h-170h-169.5h-154.5z" />
    <glyph glyph-name="uni0374" unicode="&#x374;" horiz-adv-x="504" 
d="M128 736q12 161 19.5 320.5t12.5 316.5l228 5q-26 -158 -52.5 -318t-49.5 -322z" />
    <glyph glyph-name="uni0375" unicode="&#x375;" horiz-adv-x="492" 
d="M128 -333q12 161 19.5 320.5t12.5 316.5l228 5q-26 -158 -52.5 -318t-49.5 -322z" />
    <glyph glyph-name="uni037E" unicode="&#x37e;" horiz-adv-x="493" 
d="M246 723q-47 0 -81 19.5t-52.5 53t-18.5 77.5q0 66 41.5 106t111.5 40q47 0 81 -18.5t52 -51.5t18 -76q0 -65 -40 -107.5t-112 -42.5zM67 -314q38 56 61 113.5t33 121t10 136.5v105v109l103 8q65 -6 94 -49.5t29 -107.5q0 -65 -18.5 -128t-50.5 -120t-71 -104t-80 -81z
" />
    <glyph glyph-name="tonos" unicode="&#x384;" horiz-adv-x="1200" 
d="M446 1146q45 108 90 215.5t89 214.5l212 5q-41 -74 -81 -146.5t-79.5 -143.5t-78.5 -143z" />
    <glyph glyph-name="dieresistonos" unicode="&#x385;" horiz-adv-x="1200" 
d="M284 1184q-48 0 -79.5 33t-31.5 99q0 62 32 97t81 35q52 0 81.5 -36.5t29.5 -95.5q0 -66 -29.5 -99t-83.5 -33zM856 1184q-51 0 -81 33t-30 99q0 62 30 97t83 35q50 0 80.5 -36.5t30.5 -95.5q0 -66 -31 -99t-82 -33zM467 1146q18 108 36 215.5t36 214.5l178 5
q-32 -111 -64 -218.5t-63 -214.5z" />
    <glyph glyph-name="Alphatonos" unicode="&#x386;" horiz-adv-x="1401" 
d="M53 0q40 115 84 242t85 241l170 490q47 132 84 238.5t75 214.5h305q39 -111 75.5 -217t82.5 -237l169 -491q41 -118 84.5 -242.5t82.5 -238.5h-244q-39 121 -80 248.5t-78 241.5l-236 730h-20l-239 -723q-39 -118 -81 -247t-82 -250h-237zM346 336l22 180h692l18 -180
h-732zM-54 992q31 108 61.5 216t60.5 214l196 5q-28 -74 -56 -146.5t-55.5 -143.5t-55.5 -143z" />
    <glyph glyph-name="anoteleia" unicode="&#x387;" horiz-adv-x="493" 
d="M246 722q-47 0 -81 19.5t-52.5 53t-18.5 77.5q0 66 41.5 106t111.5 40q47 0 81 -18.5t52 -51.5t18 -76q0 -65 -40 -107.5t-112 -42.5z" />
    <glyph glyph-name="Epsilontonos" unicode="&#x388;" horiz-adv-x="1309" 
d="M288 0v227v242v481v246v230h908v-198h-208h-262h-339l131 162v-229.5v-246.5v-409v-241.5v-227.5l-117 162h344h239h217v-198h-913zM466 626v191h271h233.5h188.5v-191h-192.5h-230.5h-270zM-170 992q31 108 61.5 216t60.5 214l196 5q-28 -74 -56 -146.5t-55.5 -143.5
t-55.5 -143z" />
    <glyph glyph-name="Etatonos" unicode="&#x389;" horiz-adv-x="1600" 
d="M1196 0v227v242v480v247v230h235v-230v-247v-480v-242v-227h-235zM269 0v227v242v480v247v230h235v-230v-247v-480v-242v-227h-235zM431 621v199h844v-199h-844zM-190 992q31 108 61.5 216t60.5 214l196 5q-28 -74 -56 -146.5t-55.5 -143.5t-55.5 -143z" />
    <glyph glyph-name="Iotatonos" unicode="&#x38a;" horiz-adv-x="685" 
d="M273 0v227v242v480v247v230h239v-230v-247v-480v-242v-227h-239zM-186 992q31 108 61.5 216t60.5 214l196 5q-28 -74 -56 -146.5t-55.5 -143.5t-55.5 -143z" />
    <glyph glyph-name="Omicrontonos" unicode="&#x38c;" horiz-adv-x="1692" 
d="M883 -24q-186 0 -323.5 59t-228 162t-135.5 236t-45 281q0 207 83.5 374.5t245 266t396.5 98.5q178 0 313.5 -57t227 -158.5t137.5 -235.5t46 -288q0 -211 -84 -378t-244.5 -263.5t-388.5 -96.5zM878 174q123 0 213 44t149 120t87.5 173t28.5 203q0 114 -31 212
t-91.5 172t-149.5 115.5t-206 41.5q-121 0 -211 -43t-150.5 -119t-90.5 -173t-30 -206q0 -108 29 -205t88.5 -172.5t150.5 -119t214 -43.5zM-175 992q31 108 61.5 216t60.5 214l196 5q-28 -74 -56 -146.5t-55.5 -143.5t-55.5 -143z" />
    <glyph glyph-name="Upsilontonos" unicode="&#x38e;" horiz-adv-x="1385" 
d="M613 538l-305 538q-49 86 -94 166.5t-104 183.5h268q48 -91 82.5 -156.5t65 -124t67.5 -129.5l121 -230h22l118 223q40 74 72 135t67.5 127t83.5 155h261q-50 -89 -99.5 -177t-97.5 -172l-304 -539h-224zM608 0v227v242v265h235v-265v-242v-227h-235zM-266 992
q31 108 61.5 216t60.5 214l196 5q-28 -74 -56 -146.5t-55.5 -143.5t-55.5 -143z" />
    <glyph glyph-name="Omegatonos" unicode="&#x38f;" horiz-adv-x="1698" 
d="M129 0v199h141h174h38v19q-98 60 -166 147.5t-103.5 196.5t-35.5 230q0 192 85.5 341t243.5 234.5t373 85.5q163 0 293 -50t221 -139t139 -209.5t48 -262.5q0 -127 -36.5 -236.5t-105 -194.5t-161.5 -142v-20h38h173.5h141.5v-199h-636v192q81 35 144 88.5t107 124.5
t66.5 157.5t22.5 187.5q0 158 -55 271t-157 174t-241 61q-144 0 -246.5 -62.5t-157 -176t-54.5 -267.5q0 -135 40.5 -244t117 -187.5t184.5 -126.5v-192h-636zM-160 992q31 108 61.5 216t60.5 214l196 5q-28 -74 -56 -146.5t-55.5 -143.5t-55.5 -143z" />
    <glyph glyph-name="iotadieresistonos" unicode="&#x390;" horiz-adv-x="625" 
d="M414 -24q-87 0 -148 33t-93.5 102t-32.5 177v132v116v242v216l214 7v-222.5v-194v-156.5v-90q0 -87 27.5 -134.5t98.5 -47.5q25 0 48.5 6.5t49.5 23.5l13 -173q-20 -11 -48 -19t-61 -13t-68 -5zM165 1146q18 108 36 215.5t36 214.5l178 5q-32 -111 -64 -218.5t-63 -214.5
zM-6 1184q-48 0 -79.5 33t-31.5 99q0 62 32 97t81 35q52 0 81.5 -36.5t29.5 -95.5q0 -66 -29.5 -99t-83.5 -33zM530 1184q-51 0 -81 33t-30 99q0 62 30 97t83 35q50 0 80.5 -36.5t30.5 -95.5q0 -66 -31 -99t-82 -33z" />
    <glyph glyph-name="Alpha" unicode="&#x391;" horiz-adv-x="1401" 
d="M53 0q40 115 84 242t85 241l170 490q47 132 84 238.5t75 214.5h305q39 -111 75.5 -217t82.5 -237l169 -491q41 -118 84.5 -242.5t82.5 -238.5h-244q-39 121 -80 248.5t-78 241.5l-236 730h-20l-239 -723q-39 -118 -81 -247t-82 -250h-237zM346 336l22 180h692l18 -180
h-732z" />
    <glyph glyph-name="Beta" unicode="&#x392;" horiz-adv-x="1304" 
d="M633 0h-190.5h-157h-117.5v227v242v481v246v230h257h287q132 0 224 -23.5t148 -67t82 -105t26 -137.5q0 -91 -33.5 -159t-91 -112t-130.5 -65v-21q78 -16 144 -54.5t106 -108.5t40 -178q0 -86 -28.5 -158.5t-95.5 -125.5t-182 -82t-288 -29zM398 191h255q118 0 191 26.5
t106.5 76.5t33.5 120q0 113 -80.5 163.5t-226.5 50.5h-332v184h326q97 0 158.5 30.5t90.5 81t29 111.5q0 102 -64 151t-191 49h-296v-160v-177v-380v-171.5v-155.5z" />
    <glyph glyph-name="Gamma" unicode="&#x393;" horiz-adv-x="1139" 
d="M169 0v227v242v480v247v230h896v-207h-224.5h-281.5h-255l100 171v-229.5v-246.5v-445v-242v-227h-235z" />
    <glyph glyph-name="uni0394" unicode="&#x394;" horiz-adv-x="1453" 
d="M53 0q42 116 88.5 243t88.5 243l178 488q48 130 87.5 237.5t77.5 214.5h313q39 -107 77.5 -213.5t85.5 -238.5l178 -492q43 -118 88 -242.5t87 -239.5h-1349zM304 37l-28 162h902l-33 -162q-43 128 -88 263t-85 254l-234 660h-20l-236 -654q-42 -125 -88 -260.5
t-90 -262.5z" />
    <glyph glyph-name="Epsilon" unicode="&#x395;" horiz-adv-x="1189" 
d="M168 0v227v242v481v246v230h908v-198h-208h-262h-339l131 162v-229.5v-246.5v-409v-241.5v-227.5l-117 162h344h239h217v-198h-913zM346 626v191h271h233.5h188.5v-191h-192.5h-230.5h-270z" />
    <glyph glyph-name="Zeta" unicode="&#x396;" horiz-adv-x="1354" 
d="M90 0v129q54 71 121.5 158.5t136 177t126.5 164.5l520 677l41 -78h-390h-256.5h-280.5v198h1141v-164q-89 -114 -174.5 -224.5t-171.5 -221.5l-546 -705l-27 87h355h190h205h178v-198h-1168z" />
    <glyph glyph-name="Eta" unicode="&#x397;" horiz-adv-x="1500" 
d="M1096 0v227v242v480v247v230h235v-230v-247v-480v-242v-227h-235zM169 0v227v242v480v247v230h235v-230v-247v-480v-242v-227h-235zM331 621v199h844v-199h-844z" />
    <glyph glyph-name="Theta" unicode="&#x398;" horiz-adv-x="1648" 
d="M830 -23q-188 0 -327.5 58.5t-231 161.5t-136 235.5t-44.5 280.5q0 156 47.5 290.5t140 235.5t229.5 157.5t316 56.5q181 0 318 -57t229 -158.5t138.5 -235.5t46.5 -287q0 -212 -84.5 -378.5t-247 -263t-394.5 -96.5zM826 175q128 0 220 42.5t150.5 118t86 172.5
t27.5 206q0 117 -30 215.5t-90 171.5t-151 114t-213 41q-125 0 -217 -42.5t-152.5 -118t-90 -173t-29.5 -207.5q0 -112 29 -209t88 -172t151.5 -117t220.5 -42zM518 627v184h145.5h160.5h159.5h146.5v-184h-146.5h-159.5h-160.5h-145.5z" />
    <glyph glyph-name="Iota" unicode="&#x399;" horiz-adv-x="585" 
d="M173 0v227v242v480v247v230h239v-230v-247v-480v-242v-227h-239z" />
    <glyph glyph-name="Kappa" unicode="&#x39a;" horiz-adv-x="1362" 
d="M1021 0q-85 100 -159 188t-145 172l-241 285h-95v188h93l211 236q75 83 147.5 165.5t169.5 191.5h278q-104 -113 -202.5 -221.5t-197.5 -218.5l-250 -276l-4 104l278 -332q65 -76 138.5 -164t144 -171.5t123.5 -146.5h-289zM169 0v227v242v480v247v230h234v-230v-247
v-480v-242v-227h-234z" />
    <glyph glyph-name="Lambda" unicode="&#x39b;" horiz-adv-x="1402" 
d="M53 0q40 116 83.5 242.5t83.5 241.5l169 489q45 131 82 238t74 215h317q37 -108 73.5 -214t81.5 -238l168 -493q40 -118 83 -242.5t82 -238.5h-262q-49 154 -99.5 314.5t-98.5 308.5l-178 562h-20l-182 -561q-48 -145 -102 -311t-101 -313h-254z" />
    <glyph glyph-name="Mu" unicode="&#x39c;" horiz-adv-x="1920" 
d="M122 0q14 114 28 227t30 245l60 473q16 131 30 244.5t30 236.5h236q58 -141 110.5 -271.5t104.5 -260.5l206 -510h17l202 510q51 130 102.5 259t107.5 273h235q15 -122 29 -235.5t31 -245.5l59 -477q16 -129 30 -240t28 -228h-224q-21 175 -40 333t-36 295l-48 394h-17
l-160 -424q-59 -155 -117.5 -309t-108.5 -289h-158q-33 86 -73 186t-81.5 205t-81.5 205l-169 426h-17l-47 -392q-17 -138 -36 -296.5t-41 -333.5h-221z" />
    <glyph glyph-name="Nu" unicode="&#x39d;" horiz-adv-x="1505" 
d="M169 0v227v242v480v247v230h208q118 -168 225.5 -321t212.5 -304l281 -399h19v547v247v230h221v-230v-247v-480v-242v-227h-205q-97 139 -204.5 291.5t-235.5 334.5l-283 403h-18v-560v-242v-227h-221z" />
    <glyph glyph-name="Xi" unicode="&#x39e;" horiz-adv-x="1317" 
d="M99 0v207h267h292h292.5h267.5v-207h-1119zM234 620v200h190.5h233.5h233.5h189.5v-200h-127.5h-136.5h-159h-229.5h-194.5zM104 1219v207h1109v-207h-245h-309h-309.5h-245.5z" />
    <glyph glyph-name="Omicron" unicode="&#x39f;" horiz-adv-x="1632" 
d="M823 -24q-186 0 -323.5 59t-228 162t-135.5 236t-45 281q0 207 83.5 374.5t245 266t396.5 98.5q178 0 313.5 -57t227 -158.5t137.5 -235.5t46 -288q0 -211 -84 -378t-244.5 -263.5t-388.5 -96.5zM818 174q123 0 213 44t149 120t87.5 173t28.5 203q0 114 -31 212
t-91.5 172t-149.5 115.5t-206 41.5q-121 0 -211 -43t-150.5 -119t-90.5 -173t-30 -206q0 -108 29 -205t88.5 -172.5t150.5 -119t214 -43.5z" />
    <glyph glyph-name="Pi" unicode="&#x3a0;" horiz-adv-x="1493" 
d="M169 0v227v242v480v247v230h1155v-230v-247v-480v-242v-227h-235v227v242v445v246.5v229.5l75 -163h-835l75 163v-229.5v-246.5v-445v-242v-227h-235z" />
    <glyph glyph-name="Rho" unicode="&#x3a1;" horiz-adv-x="1270" 
d="M168 0v227v242v481v246v230h219h310q167 0 277 -43t165 -136t55 -244q0 -134 -49 -238t-162 -163t-305 -59h-105.5h-110.5h-93v191h260q113 0 185 27t106.5 86t34.5 154q0 78 -25 124.5t-65.5 70t-89 31.5t-94.5 8h-395l114 155v-229.5v-246.5v-445v-242v-227h-232z" />
    <glyph glyph-name="Sigma" unicode="&#x3a3;" horiz-adv-x="1295" 
d="M90 0v158q49 55 111 125t126.5 142.5t119.5 134.5l188 213v-98l-203 226q-78 89 -154.5 174.5t-157.5 175.5v175h1059v-199h-278.5h-253.5h-306l29 73l185 -207q80 -91 162 -184t159 -181q-82 -91 -169 -188.5t-169 -189.5l-190 -214l-23 71h308h188.5h204.5h177v-207
h-1113z" />
    <glyph glyph-name="Tau" unicode="&#x3a4;" horiz-adv-x="1285" 
d="M526 0v227v242v445v246.5v229.5l91 -171h-177h-209h-173v207h1169v-207h-172h-210h-177l92 171v-229.5v-246.5v-445v-242v-227h-234z" />
    <glyph glyph-name="Upsilon" unicode="&#x3a5;" horiz-adv-x="1325" 
d="M553 538l-305 538q-49 86 -94 166.5t-104 183.5h268q48 -91 82.5 -156.5t65 -124t67.5 -129.5l121 -230h22l118 223q40 74 72 135t67.5 127t83.5 155h261q-50 -89 -99.5 -177t-97.5 -172l-304 -539h-224zM548 0v227v242v265h235v-265v-242v-227h-235z" />
    <glyph glyph-name="Phi" unicode="&#x3a6;" horiz-adv-x="1737" 
d="M882 124l4 184h87q158 0 256 46.5t143.5 136.5t45.5 220q0 133 -45 223.5t-141 137t-252 46.5h-84l-4 184h91q242 0 391.5 -75t218 -207.5t68.5 -308.5q0 -169 -68 -301.5t-219.5 -209t-404.5 -76.5h-87zM768 124q-190 0 -322 44t-213.5 123.5t-119 186t-37.5 233.5
q0 176 68.5 308.5t218 207.5t391.5 75h90l-3 -184h-85q-154 0 -251 -46.5t-141.5 -137t-44.5 -223.5q0 -130 45.5 -220t143.5 -136.5t256 -46.5h87l3 -184h-86zM751 -38v102v99l6 4v141.5v151.5v506v151.5v141.5l-6 4v99.5v101.5h235v-101.5v-99.5l-6 -4v-141.5v-151.5v-506
v-151v-142l6 -4v-98.5v-102.5h-235z" />
    <glyph glyph-name="Chi" unicode="&#x3a7;" horiz-adv-x="1380" 
d="M66 0q57 98 117 199t125 211l208 354v-62l-183 293q-63 102 -128 205.5t-141 225.5h270q55 -92 108 -179.5t101 -167.5l124 -205h20l120 207q47 80 98.5 168t102.5 177h262q-69 -115 -131.5 -219.5t-114.5 -193.5l-198 -331v68l204 -311q75 -115 143.5 -220.5
t142.5 -218.5h-278q-56 90 -106.5 170t-97.5 154l-153 244h-20l-143 -245q-46 -78 -91.5 -156t-97.5 -167h-263z" />
    <glyph glyph-name="Psi" unicode="&#x3a8;" horiz-adv-x="1724" 
d="M783 312q-187 0 -314 41.5t-203 117t-109 177.5t-33 222v47v62v231v216h226v-144.5v-144v-158.5v-107q0 -115 35.5 -199.5t129 -130.5t264.5 -46zM747 0v227v242v480v247v230h231v-230v-247v-480v-242v-227h-231zM948 312l4 184q172 0 262.5 45.5t124.5 130t34 200.5v107
v231v216h227v-216v-231v-62v-47q0 -120 -34 -222t-110 -177.5t-201 -117t-307 -41.5z" />
    <glyph glyph-name="uni03A9" unicode="&#x3a9;" horiz-adv-x="1638" 
d="M69 0v199h141h174h38v19q-98 60 -166 147.5t-103.5 196.5t-35.5 230q0 192 85.5 341t243.5 234.5t373 85.5q163 0 293 -50t221 -139t139 -209.5t48 -262.5q0 -127 -36.5 -236.5t-105 -194.5t-161.5 -142v-20h38h173.5h141.5v-199h-636v192q81 35 144 88.5t107 124.5
t66.5 157.5t22.5 187.5q0 158 -55 271t-157 174t-241 61q-144 0 -246.5 -62.5t-157 -176t-54.5 -267.5q0 -135 40.5 -244t117 -187.5t184.5 -126.5v-192h-636z" />
    </font>
</defs>
</svg>
